<?xml version="1.0" encoding="UTF-8" standalone="no"?><!DOCTYPE svg PUBLIC "-//W3C//DTD SVG 1.1//EN" "http://www.w3.org/Graphics/SVG/1.1/DTD/svg11.dtd"><svg width="100%" height="100%" viewBox="0 0 600 525" version="1.1" xmlns="http://www.w3.org/2000/svg" xmlns:xlink="http://www.w3.org/1999/xlink" xml:space="preserve" style="fill-rule:evenodd;clip-rule:evenodd;stroke-linecap:round;stroke-linejoin:round;stroke-miterlimit:1.5;"><g id="Layer1"><path d="M519.449,49.44c16.281,0.001 29.498,13.218 29.498,29.499l0,334.71c0,16.281 -13.218,29.499 -29.498,29.499l-358.532,0l-109.206,-109.207l0,-255.002c0,-16.281 13.217,-29.498 29.498,-29.499l438.24,0Z" style="fill:#ebebeb;stroke:#565656;stroke-width:10px;"/><path d="M399.573,330.877l38.595,10.341l-29.51,162.867l-22.557,-40.921l-39.996,24.16l53.468,-156.447Z" style="fill:#6a6a6a;stroke:#2f2f2f;stroke-width:7px;"/><path d="M471.433,330.877l-38.595,10.341l29.51,162.867l22.557,-40.921l39.996,24.16l-53.468,-156.447Z" style="fill:#6a6a6a;stroke:#2f2f2f;stroke-width:7px;"/><path d="M51.711,333.941l79.708,0c16.28,0 29.498,13.218 29.498,29.499l0,79.708l-109.206,-109.207Z" style="fill:#585858;stroke:#484848;stroke-width:10px;"/><rect x="106.314" y="105.566" width="387.384" height="39.932" style="fill-opacity:0.494118;"/><rect x="106.314" y="173.609" width="215.686" height="21.548" style="fill-opacity:0.494118;"/><rect x="106.314" y="223.067" width="215.686" height="20.562" style="fill-opacity:0.494118;"/><path d="M418.597,247.537c4.043,-4.785 9.989,-7.545 16.252,-7.545c6.264,0 12.21,2.76 16.252,7.545l9.566,11.32c0.649,0.768 1.472,1.37 2.401,1.754c0.929,0.385 1.936,0.542 2.938,0.458l14.768,-1.241c6.242,-0.525 12.398,1.728 16.827,6.157c4.429,4.429 6.682,10.585 6.157,16.827l-1.241,14.768c-0.084,1.002 0.073,2.01 0.458,2.938c0.384,0.929 0.986,1.752 1.754,2.401l11.32,9.566c4.785,4.042 7.545,9.988 7.545,16.252c0,6.263 -2.76,12.209 -7.545,16.252l-11.32,9.565c-0.768,0.649 -1.37,1.472 -1.754,2.401c-0.385,0.929 -0.542,1.936 -0.458,2.938l1.241,14.769c0.525,6.241 -1.728,12.397 -6.157,16.826c-4.429,4.43 -10.585,6.682 -16.827,6.158l-14.768,-1.241c-1.002,-0.085 -2.009,0.072 -2.938,0.457c-0.929,0.385 -1.752,0.986 -2.401,1.754l-9.566,11.32c-4.042,4.785 -9.988,7.545 -16.252,7.545c-6.263,0 -12.209,-2.76 -16.252,-7.545l-9.565,-11.32c-0.649,-0.768 -1.472,-1.369 -2.401,-1.754c-0.929,-0.385 -1.936,-0.542 -2.938,-0.457l-14.769,1.241c-6.241,0.524 -12.397,-1.728 -16.826,-6.158c-4.43,-4.429 -6.682,-10.585 -6.158,-16.826l1.241,-14.769c0.085,-1.002 -0.072,-2.009 -0.457,-2.938c-0.385,-0.929 -0.986,-1.752 -1.754,-2.401l-11.32,-9.565c-4.785,-4.043 -7.545,-9.989 -7.545,-16.252c0,-6.264 2.76,-12.21 7.545,-16.252l11.32,-9.566c0.768,-0.649 1.369,-1.472 1.754,-2.401c0.385,-0.928 0.542,-1.936 0.457,-2.938l-1.241,-14.768c-0.524,-6.242 1.728,-12.398 6.158,-16.827c4.429,-4.429 10.585,-6.682 16.826,-6.157l14.769,1.241c1.002,0.084 2.009,-0.073 2.938,-0.458c0.929,-0.384 1.752,-0.986 2.401,-1.754l9.565,-11.32Z" style="fill:#6a6a6a;stroke:#2f2f2f;stroke-width:7px;"/><circle cx="434.849" cy="328.737" r="51.821" style="fill:none;stroke:#2f2f2f;stroke-width:7px;"/></g></svg>