<?xml version="1.0" encoding="UTF-8" standalone="no"?>
<!-- Created with Inkscape (http://www.inkscape.org/) -->
<svg
   xmlns:dc="http://purl.org/dc/elements/1.1/"
   xmlns:cc="http://creativecommons.org/ns#"
   xmlns:rdf="http://www.w3.org/1999/02/22-rdf-syntax-ns#"
   xmlns:svg="http://www.w3.org/2000/svg"
   xmlns="http://www.w3.org/2000/svg"
   xmlns:sodipodi="http://sodipodi.sourceforge.net/DTD/sodipodi-0.dtd"
   xmlns:inkscape="http://www.inkscape.org/namespaces/inkscape"
   width="137.38875"
   height="139.075"
   id="svg2795"
   sodipodi:version="0.32"
   inkscape:version="0.46"
   version="1.0"
   sodipodi:docname="WEF logo.svg"
   inkscape:output_extension="org.inkscape.output.svg.inkscape">
  <defs
     id="defs2797">
    <inkscape:perspective
       sodipodi:type="inkscape:persp3d"
       inkscape:vp_x="0 : 526.18109 : 1"
       inkscape:vp_y="0 : 1000 : 0"
       inkscape:vp_z="744.09448 : 526.18109 : 1"
       inkscape:persp3d-origin="372.04724 : 350.78739 : 1"
       id="perspective2803" />
  </defs>
  <sodipodi:namedview
     id="base"
     pagecolor="#ffffff"
     bordercolor="#666666"
     borderopacity="1.0"
     gridtolerance="10000"
     guidetolerance="10"
     objecttolerance="10"
     inkscape:pageopacity="0.0"
     inkscape:pageshadow="2"
     inkscape:zoom="1.979899"
     inkscape:cx="-3.850061"
     inkscape:cy="78.88499"
     inkscape:document-units="px"
     inkscape:current-layer="layer1"
     showgrid="false"
     inkscape:window-width="1024"
     inkscape:window-height="712"
     inkscape:window-x="-4"
     inkscape:window-y="-4" />
  <metadata
     id="metadata2800">
    <rdf:RDF>
      <cc:Work
         rdf:about="">
        <dc:format>image/svg+xml</dc:format>
        <dc:type
           rdf:resource="http://purl.org/dc/dcmitype/StillImage" />
      </cc:Work>
    </rdf:RDF>
  </metadata>
  <g
     inkscape:label="Layer 1"
     inkscape:groupmode="layer"
     id="layer1"
     transform="translate(-154.16277,-417.1104)">
    <path
       d="M 288.8319,521.44038 L 156.88239,521.44038"
       style="fill:none;fill-opacity:1;stroke:#5a5b5d;stroke-width:2.44552469;stroke-linecap:butt;stroke-linejoin:miter;stroke-miterlimit:4;stroke-dasharray:none;stroke-opacity:1"
       id="path2521" />
    <path
       d="M 181.2337,525.57576 C 181.67267,525.68826 181.91845,525.74328 181.97103,525.74328 C 182.07985,525.74328 182.18379,525.71638 182.28039,525.66258 C 182.37821,525.60755 182.44546,525.52318 182.48337,525.4058 L 182.73281,525.4058 L 182.83674,527.75595 L 182.5763,527.75595 C 182.42223,527.2913 182.22047,526.91469 181.97225,526.62612 C 181.49904,526.09055 180.86076,525.82276 180.05985,525.82276 C 179.25038,525.82276 178.58887,526.11011 178.07531,526.68725 C 177.56175,527.26318 177.30497,528.05675 177.30497,529.06797 C 177.30497,529.99727 177.5752,530.73827 178.11444,531.29218 C 178.65367,531.84609 179.3372,532.12366 180.16379,532.12366 C 180.76172,532.12366 181.31196,531.99404 181.81574,531.73604 C 182.10553,531.59053 182.42345,531.37043 182.76949,531.07575 L 182.98225,531.26772 C 182.7267,531.55996 182.41,531.81674 182.03094,532.03806 C 181.38532,532.41467 180.6859,532.60176 179.93146,532.60176 C 178.6928,532.60176 177.7097,532.24471 176.98216,531.53184 C 176.30964,530.86666 175.9746,530.03885 175.9746,529.04841 C 175.9746,528.03229 176.32798,527.18125 177.03718,526.49406 C 177.78307,525.76896 178.75516,525.4058 179.95102,525.4058 C 180.36799,525.4058 180.79595,525.46327 181.2337,525.57576"
       style="fill:#00529c;fill-opacity:1;fill-rule:nonzero;stroke:none"
       id="path2523" />
    <path
       d="M 185.44123,528.9836 C 185.44123,527.877 185.67967,527.0602 186.15777,526.53196 C 186.63464,526.00373 187.21912,525.73961 187.90876,525.73961 C 188.57517,525.73961 189.15231,525.99395 189.63897,526.50384 C 190.12563,527.01373 190.37018,527.84032 190.37018,528.9836 C 190.37018,530.11466 190.1293,530.9388 189.64753,531.4548 C 189.16576,531.96959 188.58617,532.22759 187.90876,532.22759 C 187.21423,532.22759 186.62975,531.96347 186.1541,531.43524 C 185.67844,530.90701 185.44123,530.08898 185.44123,528.9836 M 184.13043,528.98605 C 184.13043,530.0523 184.49236,530.92535 185.21624,531.6052 C 185.92911,532.26916 186.82539,532.60176 187.90509,532.60176 C 188.91387,532.60176 189.7747,532.30096 190.48757,531.70058 C 191.28236,531.02806 191.67976,530.12322 191.67976,528.98605 C 191.67976,527.86722 191.29581,526.97216 190.5267,526.29964 C 189.81749,525.67603 188.94322,525.36423 187.90509,525.36423 C 186.87064,525.36423 185.99758,525.67481 185.28961,526.29352 C 184.51682,526.96971 184.13043,527.86722 184.13043,528.98605"
       style="fill:#00529c;fill-opacity:1;fill-rule:nonzero;stroke:none"
       id="path2525" />
    <path
       d="M 192.40241,532.26916 C 192.87929,532.22392 193.1862,532.12488 193.32193,531.97203 C 193.45766,531.82041 193.52491,531.46703 193.52491,530.91434 L 193.52491,526.64568 C 193.52491,526.2654 193.45888,526.0184 193.3256,525.90346 C 193.19354,525.78852 192.89274,525.72005 192.4232,525.69682 L 192.4232,525.50973 L 194.69142,525.50973 L 197.35093,530.75172 L 199.94686,525.50973 L 202.23831,525.50973 L 202.23831,525.69682 C 201.8079,525.72739 201.53033,525.79953 201.40684,525.91202 C 201.28211,526.02452 201.21975,526.26907 201.21975,526.64568 L 201.21975,531.3203 C 201.21975,531.70425 201.28211,531.95002 201.40684,532.05763 C 201.53033,532.16401 201.8079,532.23493 202.23831,532.26916 L 202.23831,532.45625 L 199.01511,532.45625 L 199.01511,532.26916 C 199.47976,532.23493 199.76956,532.15912 199.88327,532.04051 C 199.99821,531.9219 200.05446,531.64066 200.05446,531.1968 L 200.05446,526.47694 L 197.09293,532.45625 L 196.93519,532.45625 L 194.0238,526.71905 L 194.0238,530.91434 C 194.0238,531.49026 194.1155,531.86443 194.30014,532.03806 C 194.41997,532.15056 194.68898,532.22759 195.10594,532.26916 L 195.10594,532.45625 L 192.40241,532.45625 L 192.40241,532.26916 z"
       style="fill:#00529c;fill-opacity:1;fill-rule:nonzero;stroke:none"
       id="path2527" />
    <path
       d="M 203.40361,532.26916 C 203.88171,532.22392 204.18862,532.12488 204.32435,531.97203 C 204.45885,531.82041 204.52733,531.46703 204.52733,530.91434 L 204.52733,526.64568 C 204.52733,526.2654 204.4613,526.0184 204.32802,525.90346 C 204.19596,525.78852 203.89393,525.72005 203.42562,525.69682 L 203.42562,525.50973 L 205.69384,525.50973 L 208.35335,530.75172 L 210.94927,525.50973 L 213.24073,525.50973 L 213.24073,525.69682 C 212.81032,525.72739 212.53275,525.79953 212.40803,525.91202 C 212.28331,526.02452 212.22217,526.26907 212.22217,526.64568 L 212.22217,531.3203 C 212.22217,531.70425 212.28331,531.95002 212.40803,532.05763 C 212.53275,532.16401 212.81032,532.23493 213.24073,532.26916 L 213.24073,532.45625 L 210.01753,532.45625 L 210.01753,532.26916 C 210.48218,532.23493 210.77075,532.15912 210.88569,532.04051 C 210.99941,531.9219 211.05688,531.64066 211.05688,531.1968 L 211.05688,526.47694 L 208.09535,532.45625 L 207.93761,532.45625 L 205.02621,526.71905 L 205.02621,530.91434 C 205.02621,531.49026 205.11792,531.86443 205.30256,532.03806 C 205.42239,532.15056 205.69017,532.22759 206.10713,532.26916 L 206.10713,532.45625 L 203.40361,532.45625 L 203.40361,532.26916 z"
       style="fill:#00529c;fill-opacity:1;fill-rule:nonzero;stroke:none"
       id="path2529" />
    <path
       d="M 214.2006,532.26916 C 214.6628,532.2386 214.96238,532.17379 215.09811,532.07597 C 215.23506,531.97692 215.30353,531.72259 215.30353,531.31174 L 215.30353,526.65424 C 215.30353,526.26296 215.23506,526.01107 215.09811,525.8998 C 214.96238,525.7873 214.6628,525.72005 214.2006,525.69682 L 214.2006,525.50973 L 217.57053,525.50973 L 217.57053,525.69682 C 217.10833,525.72005 216.80875,525.7873 216.67302,525.8998 C 216.53607,526.01107 216.4676,526.26296 216.4676,526.65424 L 216.4676,531.31174 C 216.4676,531.72259 216.53607,531.97692 216.67302,532.07597 C 216.80875,532.17379 217.10833,532.2386 217.57053,532.26916 L 217.57053,532.45625 L 214.2006,532.45625 L 214.2006,532.26916 z"
       style="fill:#00529c;fill-opacity:1;fill-rule:nonzero;stroke:none"
       id="path2531" />
    <path
       d="M 218.79085,525.50973 L 225.3204,525.50973 L 225.36197,527.29864 L 225.09174,527.29864 C 224.95602,526.73739 224.78483,526.37178 224.57574,526.20182 C 224.36787,526.03185 223.9289,525.94748 223.26127,525.94748 L 222.63766,525.94748 L 222.63766,531.31174 C 222.63766,531.72259 222.70613,531.97692 222.84186,532.07597 C 222.97881,532.17379 223.27839,532.2386 223.73937,532.26916 L 223.73937,532.45625 L 220.37066,532.45625 L 220.37066,532.26916 C 220.86343,532.23493 221.17034,532.16034 221.2914,532.04662 C 221.41245,531.9329 221.47359,531.64678 221.47359,531.18702 L 221.47359,525.94748 L 220.84876,525.94748 C 220.21659,525.94748 219.78495,526.03063 219.5563,526.19815 C 219.32764,526.36689 219.15523,526.73372 219.04029,527.29864 L 218.74927,527.29864 L 218.79085,525.50973 z"
       style="fill:#00529c;fill-opacity:1;fill-rule:nonzero;stroke:none"
       id="path2533" />
    <path
       d="M 226.23747,525.50973 L 232.76702,525.50973 L 232.8086,527.29864 L 232.53837,527.29864 C 232.40386,526.73739 232.23145,526.37178 232.02358,526.20182 C 231.81449,526.03185 231.37674,525.94748 230.70789,525.94748 L 230.08428,525.94748 L 230.08428,531.31174 C 230.08428,531.72259 230.15276,531.97692 230.28848,532.07597 C 230.42543,532.17379 230.72501,532.2386 231.18599,532.26916 L 231.18599,532.45625 L 227.81728,532.45625 L 227.81728,532.26916 C 228.31005,532.23493 228.61697,532.16034 228.73802,532.04662 C 228.85907,531.9329 228.92021,531.64678 228.92021,531.18702 L 228.92021,525.94748 L 228.29538,525.94748 C 227.66321,525.94748 227.23158,526.03063 227.00292,526.19815 C 226.77426,526.36689 226.60185,526.73372 226.48692,527.29864 L 226.1959,527.29864 L 226.23747,525.50973 z"
       style="fill:#00529c;fill-opacity:1;fill-rule:nonzero;stroke:none"
       id="path2535" />
    <path
       d="M 233.77458,532.26916 C 234.2001,532.22759 234.47644,532.15667 234.60361,532.05885 C 234.72956,531.95981 234.79314,531.71036 234.79314,531.31174 L 234.79314,526.65424 C 234.79314,526.27396 234.73078,526.02819 234.60606,525.91325 C 234.48134,525.79953 234.20377,525.72739 233.77458,525.69682 L 233.77458,525.50973 L 239.90918,525.50973 L 239.95075,526.98683 L 239.65973,526.98683 C 239.56191,526.52218 239.41518,526.2226 239.21954,526.08688 C 239.0239,525.95237 238.58859,525.88512 237.91241,525.88512 L 236.3326,525.88512 C 236.16141,525.88512 236.05625,525.90958 236.01713,525.95849 C 235.978,526.0074 235.95721,526.10155 235.95721,526.23728 L 235.95721,528.60944 L 237.74611,528.60944 C 238.23888,528.60944 238.55191,528.54341 238.68764,528.41135 C 238.82214,528.27929 238.93219,528.01273 239.01412,527.61044 L 239.28435,527.61044 L 239.28435,530.02295 L 239.01412,530.02295 C 238.92852,529.61822 238.81725,529.35043 238.68152,529.2196 C 238.54702,529.08998 238.23522,529.02518 237.74611,529.02518 L 235.95721,529.02518 L 235.95721,531.64922 C 235.95721,531.86198 236.03058,531.98671 236.17486,532.02461 C 236.32037,532.06252 236.75445,532.08208 237.47833,532.08208 C 238.26212,532.08208 238.84171,532.00382 239.21465,531.84609 C 239.58759,531.68958 239.92141,531.31052 240.21609,530.70892 L 240.53279,530.70892 L 240.01678,532.45625 L 233.77458,532.45625 L 233.77458,532.26916 z"
       style="fill:#00529c;fill-opacity:1;fill-rule:nonzero;stroke:none"
       id="path2537" />
    <path
       d="M 243.46742,531.66267 L 243.46742,526.30331 C 243.46742,526.12601 243.51266,526.01229 243.60437,525.96093 C 243.69607,525.9108 243.87093,525.88512 244.13015,525.88512 C 245.16706,525.88512 245.99976,526.11867 246.62948,526.58699 C 247.36314,527.13112 247.72997,527.94303 247.72997,529.02273 C 247.72997,530.23571 247.28488,531.09287 246.39349,531.5942 C 245.81267,531.91945 245.07413,532.08208 244.1754,532.08208 C 243.88682,532.08208 243.69607,532.05396 243.60437,531.99893 C 243.51266,531.94513 243.46742,531.83264 243.46742,531.66267 M 241.28356,532.45625 L 244.48353,532.45625 C 245.34191,532.45625 246.06456,532.35843 246.65394,532.16278 C 246.97552,532.05763 247.28733,531.90111 247.5869,531.69447 C 248.06011,531.37043 248.41227,530.97304 248.64704,530.50105 C 248.88181,530.02906 248.99797,529.5314 248.99797,529.00806 C 248.99797,527.55297 248.34624,526.54297 247.04155,525.97805 C 246.31768,525.66625 245.4324,525.50973 244.38693,525.50973 L 241.28356,525.50973 L 241.28356,525.69682 C 241.71398,525.72739 241.99032,525.79831 242.11504,525.90835 C 242.23976,526.0184 242.30212,526.26662 242.30212,526.65424 L 242.30212,531.31174 C 242.30212,531.71036 242.23854,531.95981 242.11015,532.05885 C 241.98176,532.15667 241.70542,532.22759 241.28356,532.26916 L 241.28356,532.45625 z"
       style="fill:#00529c;fill-opacity:1;fill-rule:nonzero;stroke:none"
       id="path2539" />
    <path
       d="M 253.37913,525.50973 L 259.90868,525.50973 L 259.95025,527.29864 L 259.68002,527.29864 C 259.5443,526.73739 259.37311,526.37178 259.16402,526.20182 C 258.95615,526.03185 258.5184,525.94748 257.84955,525.94748 L 257.22594,525.94748 L 257.22594,531.31174 C 257.22594,531.72259 257.29441,531.97692 257.43014,532.07597 C 257.56709,532.17379 257.86667,532.2386 258.32765,532.26916 L 258.32765,532.45625 L 254.95894,532.45625 L 254.95894,532.26916 C 255.45171,532.23493 255.75862,532.16034 255.87968,532.04662 C 256.00073,531.9329 256.06187,531.64678 256.06187,531.18702 L 256.06187,525.94748 L 255.43704,525.94748 C 254.80487,525.94748 254.37323,526.03063 254.14458,526.19815 C 253.91592,526.36689 253.74351,526.73372 253.62857,527.29864 L 253.33755,527.29864 L 253.37913,525.50973 z"
       style="fill:#00529c;fill-opacity:1;fill-rule:nonzero;stroke:none"
       id="path2541" />
    <path
       d="M 261.93602,528.9836 C 261.93602,527.877 262.17446,527.0602 262.65256,526.53196 C 263.12944,526.00373 263.71269,525.73961 264.40233,525.73961 C 265.06996,525.73961 265.64588,525.99395 266.13376,526.50384 C 266.62042,527.01373 266.86375,527.84032 266.86375,528.9836 C 266.86375,530.11466 266.62287,530.9388 266.14232,531.4548 C 265.66055,531.96959 265.08096,532.22759 264.40233,532.22759 C 263.70902,532.22759 263.12454,531.96347 262.64889,531.43524 C 262.17324,530.90701 261.93602,530.08898 261.93602,528.9836 M 260.62522,528.98605 C 260.62522,530.0523 260.98716,530.92535 261.71103,531.6052 C 262.42268,532.26916 263.32019,532.60176 264.39989,532.60176 C 265.40866,532.60176 266.26949,532.30096 266.98114,531.70058 C 267.77716,531.02806 268.17455,530.12322 268.17455,528.98605 C 268.17455,527.86722 267.78938,526.97216 267.02149,526.29964 C 266.31229,525.67603 265.43801,525.36423 264.39989,525.36423 C 263.36421,525.36423 262.49238,525.67481 261.7844,526.29352 C 261.01161,526.96971 260.62522,527.86722 260.62522,528.98605"
       style="fill:#00529c;fill-opacity:1;fill-rule:nonzero;stroke:none"
       id="path2543" />
    <path
       d="M 156.09615,543.30215 C 156.55713,543.2728 156.85671,543.208 156.99244,543.11018 C 157.12939,543.01113 157.19786,542.7568 157.19786,542.34595 L 157.19786,537.68722 C 157.19786,537.29716 157.12939,537.04527 156.99244,536.934 C 156.85671,536.82151 156.55713,536.75426 156.09615,536.73102 L 156.09615,536.54394 L 159.46486,536.54394 L 159.46486,536.73102 C 159.00266,536.75426 158.70308,536.82151 158.56736,536.934 C 158.43041,537.04527 158.36193,537.29716 158.36193,537.68722 L 158.36193,542.34595 C 158.36193,542.7568 158.43041,543.01113 158.56736,543.11018 C 158.70308,543.208 159.00266,543.2728 159.46486,543.30215 L 159.46486,543.48923 L 156.09615,543.48923 L 156.09615,543.30215 z"
       style="fill:#00529c;fill-opacity:1;fill-rule:nonzero;stroke:none"
       id="path2545" />
    <path
       d="M 160.25599,543.30215 C 160.73287,543.25813 161.03978,543.15909 161.17551,543.00624 C 161.31123,542.85462 161.37849,542.50124 161.37849,541.94855 L 161.37849,537.67989 C 161.37849,537.29961 161.31246,537.05261 161.1804,536.93767 C 161.04712,536.82273 160.74632,536.75426 160.27678,536.73102 L 160.27678,536.54394 L 162.545,536.54394 L 165.20451,541.78592 L 167.80043,536.54394 L 170.09189,536.54394 L 170.09189,536.73102 C 169.66148,536.76159 169.38391,536.83374 169.26041,536.94623 C 169.13569,537.05872 169.07333,537.30328 169.07333,537.67989 L 169.07333,542.35451 C 169.07333,542.73846 169.13569,542.98423 169.26041,543.09183 C 169.38391,543.19821 169.66148,543.26913 170.09189,543.30215 L 170.09189,543.48923 L 166.86869,543.48923 L 166.86869,543.30215 C 167.33334,543.26913 167.62313,543.19332 167.73685,543.07472 C 167.85179,542.95611 167.90804,542.67487 167.90804,542.23101 L 167.90804,537.50992 L 164.94651,543.48923 L 164.78877,543.48923 L 161.87737,537.75325 L 161.87737,541.94855 C 161.87737,542.52325 161.9703,542.89864 162.15372,543.07105 C 162.27355,543.18476 162.54256,543.2618 162.95952,543.30215 L 162.95952,543.48923 L 160.25599,543.48923 L 160.25599,543.30215 z"
       style="fill:#00529c;fill-opacity:1;fill-rule:nonzero;stroke:none"
       id="path2547" />
    <path
       d="M 176.35488,538.44656 C 176.35488,539.13498 176.07976,539.60452 175.52952,539.85396 C 175.22627,539.99091 174.81053,540.05816 174.2823,540.05816 C 174.22238,540.05816 174.16124,540.05816 174.09644,540.05572 C 174.03285,540.05327 173.89835,540.03982 173.69293,540.01659 L 173.69293,537.27026 C 173.69293,537.12231 173.71983,537.02816 173.77363,536.98414 C 173.82865,536.94012 173.97416,536.91811 174.20893,536.91811 C 174.70782,536.91811 175.11867,536.98291 175.44515,537.1113 C 176.05164,537.35341 176.35488,537.7985 176.35488,538.44656 M 171.50907,543.48923 L 174.79464,543.48923 L 174.79464,543.30215 C 174.32876,543.2728 174.02919,543.20555 173.89468,543.10039 C 173.76018,542.99646 173.69293,542.74457 173.69293,542.34595 L 173.69293,540.43233 L 174.12212,540.43233 L 174.59533,540.43233 C 175.45615,540.43233 176.17147,540.27337 176.74372,539.95423 C 177.31597,539.63508 177.6021,539.1203 177.6021,538.40988 C 177.6021,537.84985 177.34165,537.39865 176.82075,537.05628 C 176.29986,536.71513 175.54908,536.54394 174.5672,536.54394 L 171.50907,536.54394 L 171.50907,536.73102 C 171.93582,536.76159 172.21216,536.83618 172.33933,536.95357 C 172.46527,537.07095 172.52763,537.3155 172.52763,537.68722 L 172.52763,542.22123 C 172.52763,542.65775 172.47139,542.93777 172.35889,543.06127 C 172.2464,543.18476 171.96394,543.26547 171.50907,543.30215 L 171.50907,543.48923 z"
       style="fill:#00529c;fill-opacity:1;fill-rule:nonzero;stroke:none"
       id="path2549" />
    <path
       d="M 180.58319,539.91265 L 180.58319,537.28494 C 180.58319,537.12475 180.61988,537.02326 180.69324,536.98169 C 180.76783,536.93889 180.96959,536.91811 181.29973,536.91811 C 181.78884,536.91811 182.18134,536.97802 182.47725,537.09663 C 183.02994,537.32773 183.30751,537.75081 183.30751,538.36708 C 183.30751,539.01637 182.99326,539.45412 182.3672,539.684 C 182.00893,539.81116 181.41467,539.8882 180.58319,539.91265 M 178.39934,543.48923 L 181.62376,543.48923 L 181.62376,543.30215 C 181.18846,543.26913 180.906,543.19944 180.77639,543.09428 C 180.648,542.98912 180.58319,542.74335 180.58319,542.35695 L 180.58319,540.28682 L 181.06496,540.26603 L 183.95435,543.48923 L 185.84474,543.48923 L 185.84474,543.30215 C 185.61486,543.28014 185.42655,543.23245 185.27982,543.15664 C 185.13309,543.08205 184.98636,542.96344 184.83963,542.80204 L 182.45402,540.14131 C 183.10086,540.05082 183.6132,539.86619 183.98981,539.58617 C 184.36642,539.30494 184.55472,538.90387 184.55472,538.37931 C 184.55472,537.60041 184.13165,537.06606 183.2855,536.77627 C 182.83919,536.6222 182.28161,536.54394 181.61276,536.54394 L 178.39934,536.54394 L 178.39934,536.73102 C 178.82731,536.76159 179.10487,536.83496 179.22959,536.95112 C 179.35554,537.06606 179.4179,537.31184 179.4179,537.68722 L 179.4179,542.22123 C 179.4179,542.66142 179.36165,542.94266 179.25038,543.06371 C 179.13911,543.18599 178.85543,543.26547 178.39934,543.30215 L 178.39934,543.48923 z"
       style="fill:#00529c;fill-opacity:1;fill-rule:nonzero;stroke:none"
       id="path2551" />
    <path
       d="M 187.59207,540.01659 C 187.59207,538.91121 187.83051,538.0944 188.30861,537.56617 C 188.78671,537.03794 189.36996,536.7726 190.0596,536.7726 C 190.72601,536.7726 191.30315,537.02816 191.78981,537.53805 C 192.27769,538.04672 192.52102,538.87453 192.52102,540.01659 C 192.52102,541.14886 192.28014,541.97301 191.79837,542.48901 C 191.3166,543.0038 190.73701,543.26058 190.0596,543.26058 C 189.36629,543.26058 188.78181,542.99768 188.30616,542.46945 C 187.83051,541.93999 187.59207,541.12319 187.59207,540.01659 M 186.28249,540.02026 C 186.28249,541.0865 186.6432,541.95956 187.36708,542.63819 C 188.07995,543.30337 188.97623,543.63596 190.05593,543.63596 C 191.06471,543.63596 191.92554,543.33516 192.63841,542.73479 C 193.4332,542.06227 193.8306,541.15742 193.8306,540.02026 C 193.8306,538.90143 193.44665,538.00514 192.67754,537.33385 C 191.96833,536.71024 191.09528,536.39843 190.05593,536.39843 C 189.02148,536.39843 188.14965,536.70901 187.44044,537.32773 C 186.66766,538.00392 186.28249,538.90143 186.28249,540.02026"
       style="fill:#00529c;fill-opacity:1;fill-rule:nonzero;stroke:none"
       id="path2553" />
    <path
       d="M 196.9193,536.54394 L 196.9193,536.73102 C 196.63317,536.73592 196.43753,536.75181 196.33359,536.78238 C 196.15018,536.83985 196.05847,536.95112 196.05847,537.11864 C 196.05847,537.20546 196.09149,537.32773 196.15629,537.48302 C 196.22232,537.63831 196.34582,537.89999 196.52557,538.26681 L 198.32303,541.93143 L 199.96031,537.96357 C 200.0349,537.78382 200.08992,537.63342 200.12783,537.51481 C 200.16573,537.39498 200.18407,537.29716 200.18407,537.22013 C 200.18407,537.01593 200.08748,536.87776 199.8955,536.80561 C 199.78178,536.76404 199.59348,536.73958 199.33181,536.73102 L 199.33181,536.54394 L 201.69785,536.54394 L 201.69785,536.73102 C 201.45452,536.76159 201.27478,536.82029 201.15862,536.90588 C 200.98254,537.04161 200.80891,537.30939 200.6365,537.71046 L 198.0797,543.63596 L 197.8865,543.63596 L 195.05214,537.85474 C 194.81248,537.36319 194.6205,537.05628 194.47622,536.93645 C 194.33193,536.81417 194.12284,536.74692 193.84527,536.73102 L 193.84527,536.54394 L 196.9193,536.54394 z"
       style="fill:#00529c;fill-opacity:1;fill-rule:nonzero;stroke:none"
       id="path2555" />
    <path
       d="M 202.27133,543.30215 C 202.73353,543.2728 203.03189,543.208 203.16884,543.11018 C 203.30579,543.01113 203.37426,542.7568 203.37426,542.34595 L 203.37426,537.68722 C 203.37426,537.29716 203.30579,537.04527 203.16884,536.934 C 203.03189,536.82151 202.73353,536.75426 202.27133,536.73102 L 202.27133,536.54394 L 205.64126,536.54394 L 205.64126,536.73102 C 205.17906,536.75426 204.87948,536.82151 204.74375,536.934 C 204.60681,537.04527 204.53833,537.29716 204.53833,537.68722 L 204.53833,542.34595 C 204.53833,542.7568 204.60681,543.01113 204.74375,543.11018 C 204.87948,543.208 205.17906,543.2728 205.64126,543.30215 L 205.64126,543.48923 L 202.27133,543.48923 L 202.27133,543.30215 z"
       style="fill:#00529c;fill-opacity:1;fill-rule:nonzero;stroke:none"
       id="path2557" />
    <path
       d="M 206.54733,543.30215 C 207.02543,543.25813 207.33112,543.15909 207.46685,543.00624 C 207.60257,542.85462 207.66982,542.50124 207.66982,541.94855 L 207.66982,537.31306 L 207.51209,537.14432 C 207.34212,536.96335 207.19906,536.85086 207.08045,536.80806 C 206.96185,536.76404 206.78454,536.73958 206.54733,536.73102 L 206.54733,536.54394 L 208.51353,536.54394 L 212.97295,541.60129 L 212.97295,538.08095 C 212.97295,537.50503 212.87879,537.12842 212.69171,536.95112 C 212.56821,536.83863 212.29431,536.76526 211.87124,536.73102 L 211.87124,536.54394 L 214.57476,536.54394 L 214.57476,536.73102 C 214.13335,536.7726 213.83988,536.87164 213.69315,537.02571 C 213.5452,537.181 213.47183,537.53438 213.47183,538.08585 L 213.47183,543.63596 L 213.27864,543.63596 L 208.16993,537.84374 L 208.16993,541.94733 C 208.16993,542.52325 208.26164,542.89741 208.44506,543.07105 C 208.56489,543.18476 208.83389,543.2618 209.25086,543.30215 L 209.25086,543.48923 L 206.54733,543.48923 L 206.54733,543.30215 z"
       style="fill:#00529c;fill-opacity:1;fill-rule:nonzero;stroke:none"
       id="path2559" />
    <path
       d="M 220.62622,536.6063 C 221.05785,536.71757 221.30607,536.7726 221.37088,536.7726 C 221.53595,536.7726 221.65334,536.74447 221.72303,536.687 C 221.79273,536.62954 221.85142,536.54761 221.90033,536.44001 L 222.14978,536.44001 L 222.23292,538.66543 L 221.9737,538.66543 C 221.73648,538.14943 221.49315,537.7667 221.24249,537.51604 C 220.78762,537.07584 220.19703,536.85575 219.4707,536.85575 C 218.73093,536.85575 218.08165,537.11008 217.52162,537.61753 C 216.96037,538.12375 216.68036,538.96134 216.68036,540.12908 C 216.68036,541.09017 216.95915,541.84217 217.51673,542.38508 C 218.07431,542.92798 218.76273,543.19821 219.58198,543.19821 C 219.72015,543.19821 219.88278,543.18721 220.06986,543.16275 C 220.25694,543.1383 220.43424,543.10162 220.60298,543.04904 C 220.87566,542.96834 221.04562,542.89864 221.11287,542.84117 C 221.18013,542.7837 221.21436,542.6981 221.21436,542.58439 L 221.21436,540.93244 C 221.21436,540.52159 221.15078,540.26481 221.02484,540.1621 C 220.89767,540.06061 220.62132,539.99825 220.19458,539.97501 L 220.19458,539.78793 L 223.14877,539.78793 L 223.14877,539.97501 C 222.8602,539.99458 222.66945,540.03737 222.5753,540.10585 C 222.41634,540.2159 222.33686,540.44211 222.33686,540.78693 L 222.33686,542.83016 C 222.33686,542.95366 222.00549,543.11873 221.34398,543.32416 C 220.68124,543.53203 220.04418,543.63596 219.4328,543.63596 C 218.30786,543.63596 217.35899,543.33761 216.58621,542.7409 C 215.73394,542.08183 215.30842,541.199 215.30842,540.09484 C 215.30842,539.1203 215.64835,538.28393 216.32821,537.58696 C 217.07654,536.82273 218.06942,536.44001 219.30685,536.44001 C 219.75316,536.44001 220.19336,536.49503 220.62622,536.6063"
       style="fill:#00529c;fill-opacity:1;fill-rule:nonzero;stroke:none"
       id="path2561" />
    <path
       d="M 227.43578,536.54394 L 233.96533,536.54394 L 234.0069,538.33284 L 233.73667,538.33284 C 233.60095,537.77037 233.42976,537.40477 233.22067,537.23603 C 233.0128,537.06606 232.57505,536.98047 231.9062,536.98047 L 231.28259,536.98047 L 231.28259,542.34595 C 231.28259,542.7568 231.35106,543.01113 231.48801,543.11018 C 231.62374,543.208 231.92332,543.2728 232.38552,543.30215 L 232.38552,543.48923 L 229.01559,543.48923 L 229.01559,543.30215 C 229.50836,543.26913 229.81527,543.19455 229.93633,543.08083 C 230.05738,542.96711 230.11852,542.68099 230.11852,542.22123 L 230.11852,536.98047 L 229.49491,536.98047 C 228.86152,536.98047 228.43111,537.06484 228.20123,537.23236 C 227.97257,537.4011 227.80016,537.7667 227.68522,538.33284 L 227.3942,538.33284 L 227.43578,536.54394 z"
       style="fill:#00529c;fill-opacity:1;fill-rule:nonzero;stroke:none"
       id="path2563" />
    <path
       d="M 234.86161,543.30215 C 235.31526,543.25691 235.59772,543.1811 235.71143,543.07227 C 235.82393,542.96467 235.88018,542.68099 235.88018,542.22123 L 235.88018,537.68722 C 235.88018,537.30817 235.81781,537.06239 235.69065,536.94745 C 235.5647,536.83374 235.28836,536.76159 234.86161,536.73102 L 234.86161,536.54394 L 238.06403,536.54394 L 238.06403,536.73102 C 237.63973,536.76159 237.36339,536.83374 237.23622,536.94745 C 237.10905,537.06239 237.04547,537.30817 237.04547,537.68722 L 237.04547,539.72557 L 240.5389,539.72557 L 240.5389,537.68722 C 240.5389,537.30817 240.47654,537.06239 240.35182,536.94745 C 240.2271,536.83374 239.94953,536.76159 239.52034,536.73102 L 239.52034,536.54394 L 242.72275,536.54394 L 242.72275,536.73102 C 242.29601,536.76159 242.01967,536.83374 241.89372,536.94745 C 241.76655,537.06239 241.70297,537.30817 241.70297,537.68722 L 241.70297,542.34595 C 241.70297,542.73356 241.76655,542.98056 241.89372,543.08939 C 242.01967,543.19699 242.29601,543.26913 242.72275,543.30215 L 242.72275,543.48923 L 239.52034,543.48923 L 239.52034,543.30215 C 239.97643,543.26058 240.26133,543.18476 240.3726,543.07472 C 240.48388,542.96589 240.5389,542.68099 240.5389,542.22123 L 240.5389,540.18288 L 237.04547,540.18288 L 237.04547,542.34595 C 237.04547,542.73356 237.10905,542.98179 237.23622,543.09183 C 237.36339,543.20311 237.63973,543.2728 238.06403,543.30215 L 238.06403,543.48923 L 234.86161,543.48923 L 234.86161,543.30215 z"
       style="fill:#00529c;fill-opacity:1;fill-rule:nonzero;stroke:none"
       id="path2565" />
    <path
       d="M 243.81835,543.30215 C 244.24387,543.26058 244.52144,543.19088 244.64738,543.09183 C 244.77455,542.99279 244.83691,542.74457 244.83691,542.34595 L 244.83691,537.68722 C 244.83691,537.30817 244.77455,537.06239 244.65105,536.94745 C 244.52633,536.83374 244.24876,536.76159 243.81835,536.73102 L 243.81835,536.54394 L 249.95295,536.54394 L 249.99452,538.02104 L 249.7035,538.02104 C 249.60568,537.55639 249.45895,537.25681 249.26453,537.12109 C 249.06889,536.98658 248.63236,536.91811 247.95618,536.91811 L 246.37637,536.91811 C 246.2064,536.91811 246.10125,536.94378 246.0609,536.9927 C 246.02177,537.04161 246.0022,537.13576 246.0022,537.27149 L 246.0022,539.64242 L 247.78988,539.64242 C 248.28265,539.64242 248.59568,539.57639 248.73141,539.44556 C 248.86713,539.31228 248.97596,539.04694 249.05911,538.64465 L 249.32934,538.64465 L 249.32934,541.05716 L 249.05911,541.05716 C 248.97229,540.65242 248.86102,540.38464 248.72652,540.2538 C 248.59079,540.12419 248.27899,540.05816 247.78988,540.05816 L 246.0022,540.05816 L 246.0022,542.68343 C 246.0022,542.89619 246.07435,543.02091 246.21985,543.05882 C 246.36414,543.09673 246.79944,543.11507 247.52332,543.11507 C 248.30589,543.11507 248.88548,543.03803 249.25842,542.8803 C 249.63136,542.72378 249.9664,542.34473 250.26108,541.74313 L 250.57656,541.74313 L 250.06177,543.48923 L 243.81835,543.48923 L 243.81835,543.30215 z"
       style="fill:#00529c;fill-opacity:1;fill-rule:nonzero;stroke:none"
       id="path2567" />
    <path
       d="M 255.33188,541.41054 C 255.52508,541.87763 255.75129,542.2518 256.01051,542.53181 C 256.46171,543.01847 257.02418,543.26058 257.69426,543.26058 C 258.05742,543.26058 258.37167,543.15542 258.63701,542.94143 C 258.90112,542.7299 259.0344,542.43277 259.0344,542.05249 C 259.0344,541.71011 258.89868,541.41298 258.62845,541.16109 C 258.45115,540.99847 258.07943,540.75758 257.51329,540.43844 L 256.52774,539.87841 C 256.23061,539.70601 255.99462,539.53237 255.81976,539.35874 C 255.49451,539.02737 255.33188,538.66054 255.33188,538.2607 C 255.33188,537.7288 255.52752,537.28616 255.91758,536.93033 C 256.30764,536.57573 256.82487,536.39843 257.46805,536.39843 C 257.73338,536.39843 258.05253,536.45346 258.42547,536.56473 C 258.79841,536.676 259.01239,536.73102 259.06497,536.73102 C 259.20926,536.73102 259.3083,536.70168 259.36333,536.64421 C 259.41835,536.58674 259.46115,536.50481 259.49172,536.39843 L 259.69959,536.39843 L 259.94903,538.62386 L 259.6788,538.62386 C 259.48927,537.95868 259.18725,537.49525 258.77029,537.23113 C 258.35333,536.96702 257.94125,536.83496 257.53407,536.83496 C 257.21738,536.83496 256.94103,536.92055 256.70504,537.08929 C 256.46905,537.25926 256.35166,537.49403 256.35166,537.79483 C 256.35166,538.06628 256.44093,538.29738 256.62189,538.49058 C 256.80164,538.68133 257.08165,538.88553 257.46193,539.09952 L 258.47805,539.67055 C 259.11388,540.02392 259.56019,540.34918 259.81819,540.64509 C 260.07131,540.94466 260.19847,541.29926 260.19847,541.70767 C 260.19847,542.25913 259.97226,542.71767 259.52106,543.0845 C 259.07109,543.45255 258.49394,543.63596 257.79208,543.63596 C 257.43992,543.63596 257.07065,543.57483 256.6867,543.45377 C 256.30275,543.33272 256.08266,543.27158 256.02641,543.27158 C 255.89313,543.27158 255.80264,543.31071 255.7574,543.38897 C 255.71094,543.46722 255.68037,543.54915 255.66447,543.63596 L 255.41503,543.63596 L 255.06165,541.41054 L 255.33188,541.41054 z"
       style="fill:#00529c;fill-opacity:1;fill-rule:nonzero;stroke:none"
       id="path2569" />
    <path
       d="M 260.75972,536.54394 L 267.28927,536.54394 L 267.33085,538.33284 L 267.06062,538.33284 C 266.92489,537.77037 266.7537,537.40477 266.54461,537.23603 C 266.33674,537.06606 265.89777,536.98047 265.23014,536.98047 L 264.60653,536.98047 L 264.60653,542.34595 C 264.60653,542.7568 264.67378,543.01113 264.81073,543.11018 C 264.94768,543.208 265.24726,543.2728 265.70824,543.30215 L 265.70824,543.48923 L 262.33953,543.48923 L 262.33953,543.30215 C 262.83108,543.26913 263.13799,543.19455 263.26027,543.08083 C 263.38132,542.96711 263.44246,542.68099 263.44246,542.22123 L 263.44246,536.98047 L 262.81763,536.98047 C 262.18424,536.98047 261.75383,537.06484 261.52517,537.23236 C 261.29651,537.4011 261.12411,537.7667 261.00917,538.33284 L 260.71815,538.33284 L 260.75972,536.54394 z"
       style="fill:#00529c;fill-opacity:1;fill-rule:nonzero;stroke:none"
       id="path2571" />
    <path
       d="M 269.18945,540.78693 L 270.49536,537.91466 L 271.80738,540.78693 L 269.18945,540.78693 z M 269.1332,543.48923 L 269.1332,543.30215 C 268.86419,543.28014 268.68078,543.25079 268.58296,543.21289 C 268.42522,543.14197 268.34696,543.01725 268.34696,542.84117 C 268.34696,542.75068 268.37631,542.63085 268.43378,542.48045 C 268.49247,542.33128 268.67833,541.91187 268.99136,541.22345 L 272.00669,541.22345 L 272.46767,542.23223 C 272.53492,542.3753 272.5875,542.51224 272.62541,542.64063 C 272.66331,542.77025 272.68166,542.86195 272.68166,542.91453 C 272.68166,543.0686 272.63274,543.1652 272.53492,543.20433 C 272.4371,543.24468 272.21823,543.27647 271.8783,543.30215 L 271.8783,543.48923 L 274.80437,543.48923 L 274.80437,543.30215 C 274.53903,543.26913 274.3495,543.20433 274.23701,543.11018 C 274.12451,543.01602 273.97411,542.76902 273.78581,542.36918 L 270.94044,536.44001 L 270.68855,536.44001 L 268.29072,541.58784 C 267.93245,542.35695 267.67689,542.82772 267.52527,543.00013 C 267.37242,543.17254 267.14376,543.27403 266.83807,543.30215 L 266.83807,543.48923 L 269.1332,543.48923 z"
       style="fill:#00529c;fill-opacity:1;fill-rule:nonzero;stroke:none"
       id="path2573" />
    <path
       d="M 274.22723,536.54394 L 280.75678,536.54394 L 280.79835,538.33284 L 280.52812,538.33284 C 280.39362,537.77037 280.22121,537.40477 280.01212,537.23603 C 279.80425,537.06606 279.3665,536.98047 278.69765,536.98047 L 278.07404,536.98047 L 278.07404,542.34595 C 278.07404,542.7568 278.14251,543.01113 278.27946,543.11018 C 278.41519,543.208 278.71476,543.2728 279.17575,543.30215 L 279.17575,543.48923 L 275.80704,543.48923 L 275.80704,543.30215 C 276.29981,543.26913 276.60672,543.19455 276.72778,543.08083 C 276.84883,542.96711 276.90997,542.68099 276.90997,542.22123 L 276.90997,536.98047 L 276.28514,536.98047 C 275.65297,536.98047 275.22256,537.06484 274.99268,537.23236 C 274.76402,537.4011 274.59161,537.7667 274.47667,538.33284 L 274.18565,538.33284 L 274.22723,536.54394 z"
       style="fill:#00529c;fill-opacity:1;fill-rule:nonzero;stroke:none"
       id="path2575" />
    <path
       d="M 281.47576,543.30215 C 281.90128,543.26058 282.17885,543.19088 282.30479,543.09183 C 282.43074,542.99279 282.49432,542.74457 282.49432,542.34595 L 282.49432,537.68722 C 282.49432,537.30817 282.43196,537.06239 282.30724,536.94745 C 282.18252,536.83374 281.90617,536.76159 281.47576,536.73102 L 281.47576,536.54394 L 287.61036,536.54394 L 287.65193,538.02104 L 287.36092,538.02104 C 287.2631,537.55639 287.11636,537.25681 286.92072,537.12109 C 286.7263,536.98658 286.28978,536.91811 285.61359,536.91811 L 284.03378,536.91811 C 283.86382,536.91811 283.75866,536.94378 283.71831,536.9927 C 283.67918,537.04161 283.65962,537.13576 283.65962,537.27149 L 283.65962,539.64242 L 285.44729,539.64242 C 285.94007,539.64242 286.25309,539.57639 286.38882,539.44556 C 286.52455,539.31228 286.63337,539.04694 286.71652,538.64465 L 286.98675,538.64465 L 286.98675,541.05716 L 286.71652,541.05716 C 286.62971,540.65242 286.51843,540.38464 286.38271,540.2538 C 286.2482,540.12419 285.9364,540.05816 285.44729,540.05816 L 283.65962,540.05816 L 283.65962,542.68343 C 283.65962,542.89619 283.73176,543.02091 283.87727,543.05882 C 284.02155,543.09673 284.45563,543.11507 285.17951,543.11507 C 285.9633,543.11507 286.54289,543.03803 286.91583,542.8803 C 287.28877,542.72378 287.62259,542.34473 287.9185,541.74313 L 288.23397,541.74313 L 287.71796,543.48923 L 281.47576,543.48923 L 281.47576,543.30215 z"
       style="fill:#00529c;fill-opacity:1;fill-rule:nonzero;stroke:none"
       id="path2577" />
    <path
       d="M 181.09431,551.05079 C 181.09431,549.94542 181.33275,549.12861 181.81085,548.60038 C 182.28772,548.07215 182.8722,547.80681 183.56062,547.80681 C 184.22825,547.80681 184.80417,548.06236 185.29205,548.57226 C 185.77871,549.08092 186.02204,549.90751 186.02204,551.05079 C 186.02204,552.18307 185.78238,553.00721 185.30061,553.522 C 184.81884,554.038 184.23925,554.29478 183.56062,554.29478 C 182.86731,554.29478 182.28283,554.03189 181.80718,553.50243 C 181.33152,552.9742 181.09431,552.15739 181.09431,551.05079 M 179.78351,551.05446 C 179.78351,552.12071 180.14544,552.99376 180.86932,553.6724 C 181.58219,554.33758 182.47847,554.67017 183.55817,554.67017 C 184.56695,554.67017 185.42778,554.36937 186.14065,553.769 C 186.93544,553.09648 187.33284,552.19163 187.33284,551.05446 C 187.33284,549.93564 186.94889,549.03935 186.17978,548.36683 C 185.47057,547.74445 184.5963,547.43264 183.55817,547.43264 C 182.52249,547.43264 181.65189,547.74322 180.94268,548.36194 C 180.1699,549.03813 179.78351,549.93564 179.78351,551.05446"
       style="fill:#00529c;fill-opacity:1;fill-rule:nonzero;stroke:none"
       id="path2579" />
    <path
       d="M 188.28537,554.33636 C 188.74269,554.29111 189.02637,554.2153 189.13764,554.10648 C 189.24891,553.99887 189.30516,553.71397 189.30516,553.25544 L 189.30516,548.72143 C 189.30516,548.34238 189.2428,548.0966 189.11807,547.98166 C 188.99335,547.86794 188.71579,547.7958 188.28537,547.76523 L 188.28537,547.57815 L 194.41997,547.57815 L 194.46155,549.05525 L 194.14974,549.05525 C 194.06904,548.5747 193.91864,548.27146 193.6961,548.14429 C 193.47478,548.01712 193.03703,547.95231 192.38285,547.95231 L 190.82505,547.95231 C 190.67343,547.95231 190.57561,547.97677 190.53281,548.02323 C 190.49001,548.07092 190.46923,548.16508 190.46923,548.30569 L 190.46923,550.67663 L 192.11262,550.67663 C 192.60417,550.67663 192.91842,550.6106 193.05415,550.47854 C 193.18865,550.34648 193.29748,550.08114 193.38062,549.67886 L 193.65085,549.67886 L 193.65085,552.09137 L 193.38062,552.09137 C 193.29381,551.68541 193.18376,551.41762 193.04803,551.28801 C 192.91231,551.1584 192.6005,551.09237 192.11262,551.09237 L 190.46923,551.09237 L 190.46923,553.38016 C 190.46923,553.76777 190.53403,554.01599 190.66365,554.12604 C 190.79326,554.23731 191.07449,554.30701 191.50857,554.33636 L 191.50857,554.52344 L 188.28537,554.52344 L 188.28537,554.33636 z"
       style="fill:#00529c;fill-opacity:1;fill-rule:nonzero;stroke:none"
       id="path2581" />
    <path
       d="M 198.58715,547.57815 L 205.1167,547.57815 L 205.15827,549.36705 L 204.88804,549.36705 C 204.75231,548.80458 204.58113,548.43897 204.37326,548.27023 C 204.16417,548.10027 203.72642,548.01468 203.05757,548.01468 L 202.43396,548.01468 L 202.43396,553.38016 C 202.43396,553.79101 202.50243,554.04412 202.63938,554.14316 C 202.77511,554.2422 203.07468,554.30701 203.53567,554.33636 L 203.53567,554.52344 L 200.16695,554.52344 L 200.16695,554.33636 C 200.65973,554.30334 200.96664,554.22875 201.08769,554.11504 C 201.20875,554.00132 201.26989,553.71397 201.26989,553.25544 L 201.26989,548.01468 L 200.64505,548.01468 C 200.01289,548.01468 199.58125,548.09905 199.3526,548.26656 C 199.12394,548.43408 198.95153,548.80091 198.83659,549.36705 L 198.54557,549.36705 L 198.58715,547.57815 z"
       style="fill:#00529c;fill-opacity:1;fill-rule:nonzero;stroke:none"
       id="path2583" />
    <path
       d="M 205.84057,554.33636 C 206.29299,554.29111 206.57545,554.2153 206.68917,554.10648 C 206.80166,553.99887 206.85913,553.71397 206.85913,553.25544 L 206.85913,548.72143 C 206.85913,548.34238 206.79555,548.0966 206.66961,547.98166 C 206.54244,547.86794 206.26609,547.7958 205.84057,547.76523 L 205.84057,547.57815 L 209.04299,547.57815 L 209.04299,547.76523 C 208.61869,547.7958 208.34234,547.86794 208.21518,547.98166 C 208.08679,548.0966 208.0232,548.34238 208.0232,548.72143 L 208.0232,550.75978 L 211.51786,550.75978 L 211.51786,548.72143 C 211.51786,548.34238 211.4555,548.0966 211.33078,547.98166 C 211.20605,547.86794 210.92849,547.7958 210.49807,547.76523 L 210.49807,547.57815 L 213.70049,547.57815 L 213.70049,547.76523 C 213.27374,547.7958 212.9974,547.86794 212.87146,547.98166 C 212.74551,548.0966 212.68193,548.34238 212.68193,548.72143 L 212.68193,553.38016 C 212.68193,553.76777 212.74551,554.01477 212.87146,554.1236 C 212.9974,554.2312 213.27374,554.30334 213.70049,554.33636 L 213.70049,554.52344 L 210.49807,554.52344 L 210.49807,554.33636 C 210.95539,554.29478 211.23907,554.21897 211.35034,554.10892 C 211.46161,554.0001 211.51786,553.71397 211.51786,553.25544 L 211.51786,551.21709 L 208.0232,551.21709 L 208.0232,553.38016 C 208.0232,553.76777 208.08679,554.01599 208.21518,554.12604 C 208.34234,554.23731 208.61869,554.30701 209.04299,554.33636 L 209.04299,554.52344 L 205.84057,554.52344 L 205.84057,554.33636 z"
       style="fill:#00529c;fill-opacity:1;fill-rule:nonzero;stroke:none"
       id="path2585" />
    <path
       d="M 214.85355,554.33636 C 215.2803,554.29478 215.55664,554.22509 215.68381,554.12604 C 215.80975,554.02822 215.87334,553.77878 215.87334,553.38016 L 215.87334,548.72143 C 215.87334,548.34238 215.81098,548.0966 215.68626,547.98166 C 215.56153,547.86794 215.28397,547.7958 214.85355,547.76523 L 214.85355,547.57815 L 220.98938,547.57815 L 221.03095,549.05525 L 220.73871,549.05525 C 220.64089,548.5906 220.49538,548.29102 220.29974,548.15529 C 220.1041,548.02079 219.66879,547.95231 218.9926,547.95231 L 217.4128,547.95231 C 217.24161,547.95231 217.13645,547.97799 217.09732,548.0269 C 217.05697,548.07581 217.03741,548.16874 217.03741,548.30569 L 217.03741,550.67663 L 218.82631,550.67663 C 219.31786,550.67663 219.63211,550.6106 219.76784,550.47854 C 219.90234,550.34648 220.01239,550.08114 220.09431,549.67886 L 220.36454,549.67886 L 220.36454,552.09137 L 220.09431,552.09137 C 220.00872,551.68541 219.89745,551.41762 219.76172,551.28801 C 219.62722,551.1584 219.31419,551.09237 218.82631,551.09237 L 217.03741,551.09237 L 217.03741,553.71764 C 217.03741,553.92918 217.10955,554.05512 217.25506,554.09303 C 217.40057,554.13093 217.83465,554.14927 218.55852,554.14927 C 219.34231,554.14927 219.92068,554.07224 220.29362,553.9145 C 220.66657,553.75799 221.0016,553.37893 221.29629,552.77734 L 221.61298,552.77734 L 221.09698,554.52344 L 214.85355,554.52344 L 214.85355,554.33636 z"
       style="fill:#00529c;fill-opacity:1;fill-rule:nonzero;stroke:none"
       id="path2587" />
    <path
       d="M 228.38464,547.57815 L 228.38464,547.76523 C 228.15476,547.77379 227.99214,547.79213 227.89431,547.8227 C 227.72191,547.88384 227.63631,547.99144 227.63631,548.14796 C 227.63631,548.21521 227.64609,548.28246 227.66688,548.34604 C 227.68767,548.41085 227.71824,548.49644 227.75981,548.60282 L 229.42277,552.56457 L 230.62352,549.6434 L 230.07205,548.33259 C 229.96812,548.09171 229.81405,547.92908 229.60863,547.84716 C 229.48635,547.79702 229.30049,547.77012 229.05227,547.76523 L 229.05227,547.57815 L 232.16787,547.57815 L 232.16787,547.76523 C 231.88419,547.77012 231.68977,547.78846 231.58217,547.8227 C 231.41098,547.88384 231.32661,548.00489 231.32661,548.18709 C 231.32661,548.24822 231.33272,548.30202 231.34862,548.34849 C 231.36329,548.39618 231.4012,548.49278 231.46111,548.63706 L 233.12407,552.58658 L 234.56326,549.01 C 234.64519,548.80947 234.70143,548.62973 234.73078,548.47077 C 234.75034,548.37906 234.76013,548.30692 234.76013,548.25434 C 234.76013,548.05747 234.65741,547.92052 234.45321,547.84471 C 234.3395,547.79947 234.16709,547.77379 233.93843,547.76523 L 233.93843,547.57815 L 236.24456,547.57815 L 236.24456,547.76523 C 236.03669,547.7958 235.87895,547.83982 235.77013,547.89729 C 235.57449,547.99756 235.42775,548.17119 235.32993,548.41941 L 234.12796,551.54724 L 233.65719,552.77122 L 232.9272,554.67017 L 232.7389,554.67017 L 232.2339,553.47064 L 230.91209,550.27189 L 229.14765,554.67017 L 228.97035,554.67017 L 228.11197,552.48999 L 227.14354,550.03223 C 226.74003,549.01 226.45635,548.3815 226.29127,548.14673 C 226.1262,547.91196 225.86942,547.7848 225.51971,547.76523 L 225.51971,547.57815 L 228.38464,547.57815 z"
       style="fill:#00529c;fill-opacity:1;fill-rule:nonzero;stroke:none"
       id="path2589" />
    <path
       d="M 237.72043,551.05079 C 237.72043,549.94542 237.96009,549.12861 238.43697,548.60038 C 238.91507,548.07215 239.49833,547.80681 240.18797,547.80681 C 240.8556,547.80681 241.43152,548.06236 241.9194,548.57226 C 242.40606,549.08092 242.64939,549.90751 242.64939,551.05079 C 242.64939,552.18307 242.4085,553.00721 241.92674,553.522 C 241.44619,554.038 240.8666,554.29478 240.18797,554.29478 C 239.49466,554.29478 238.91018,554.03189 238.43453,553.50243 C 237.95887,552.9742 237.72043,552.15739 237.72043,551.05079 M 236.41085,551.05446 C 236.41085,552.12071 236.77279,552.99376 237.49667,553.6724 C 238.20832,554.33758 239.10582,554.67017 240.18552,554.67017 C 241.1943,554.67017 242.05513,554.36937 242.76677,553.769 C 243.56157,553.09648 243.96019,552.19163 243.96019,551.05446 C 243.96019,549.93564 243.57502,549.03935 242.80712,548.36683 C 242.09792,547.74445 241.22365,547.43264 240.18552,547.43264 C 239.14984,547.43264 238.27801,547.74322 237.57003,548.36194 C 236.79725,549.03813 236.41085,549.93564 236.41085,551.05446"
       style="fill:#00529c;fill-opacity:1;fill-rule:nonzero;stroke:none"
       id="path2591" />
    <path
       d="M 247.19073,550.94686 L 247.19073,548.31914 C 247.19073,548.15896 247.22741,548.05747 247.302,548.0159 C 247.37536,547.9731 247.57712,547.95231 247.90727,547.95231 C 248.39637,547.95231 248.78888,548.01223 249.08479,548.13084 C 249.6387,548.36072 249.91504,548.78379 249.91504,549.40129 C 249.91504,550.04935 249.60202,550.48832 248.97474,550.7182 C 248.61769,550.84659 248.02221,550.9224 247.19073,550.94686 M 245.00687,554.52344 L 248.23252,554.52344 L 248.23252,554.33636 C 247.79722,554.30334 247.51476,554.23365 247.38515,554.12849 C 247.25553,554.02333 247.19073,553.77755 247.19073,553.39116 L 247.19073,551.32103 L 247.6725,551.30024 L 250.56311,554.52344 L 252.45227,554.52344 L 252.45227,554.33636 C 252.22239,554.31435 252.03409,554.26544 251.88736,554.19085 C 251.74063,554.11626 251.5939,553.99765 251.44716,553.83625 L 249.06278,551.17552 C 249.70962,551.08625 250.22073,550.90039 250.59734,550.62038 C 250.97395,550.33915 251.16348,549.93808 251.16348,549.41352 C 251.16348,548.63462 250.73918,548.10027 249.89303,547.80925 C 249.44672,547.65641 248.89037,547.57815 248.22152,547.57815 L 245.00687,547.57815 L 245.00687,547.76523 C 245.43606,547.7958 245.71241,547.86917 245.83835,547.98411 C 245.96307,548.10027 246.02666,548.34604 246.02666,548.72143 L 246.02666,553.25544 C 246.02666,553.69563 245.97041,553.97686 245.85792,554.09792 C 245.74665,554.22019 245.46296,554.29967 245.00687,554.33636 L 245.00687,554.52344 z"
       style="fill:#00529c;fill-opacity:1;fill-rule:nonzero;stroke:none"
       id="path2593" />
    <path
       d="M 253.12235,554.33636 C 253.54909,554.29478 253.82544,554.22509 253.95138,554.12604 C 254.07855,554.02822 254.14213,553.77878 254.14213,553.38016 L 254.14213,548.72143 C 254.14213,548.34238 254.07977,548.0966 253.95505,547.98166 C 253.83033,547.86794 253.55276,547.7958 253.12235,547.76523 L 253.12235,547.57815 L 256.36634,547.57815 L 256.36634,547.76523 C 255.94571,547.78846 255.66447,547.85205 255.52141,547.95721 C 255.37712,548.06236 255.3062,548.2898 255.3062,548.63828 L 255.3062,553.71764 C 255.3062,553.83625 255.32699,553.92795 255.37101,553.99643 C 255.4138,554.0649 255.50918,554.10648 255.65713,554.12115 C 255.74273,554.13338 255.83443,554.14072 255.93103,554.14438 C 256.02641,554.14805 256.20738,554.14927 256.47027,554.14927 C 257.49984,554.14927 258.19437,554.07224 258.5563,553.9145 C 258.91824,553.75799 259.26917,553.35815 259.60788,552.71497 L 259.90257,552.71497 L 259.33643,554.52344 L 253.12235,554.52344 L 253.12235,554.33636 z"
       style="fill:#00529c;fill-opacity:1;fill-rule:nonzero;stroke:none"
       id="path2595" />
    <path
       d="M 262.58531,553.73109 L 262.58531,548.37172 C 262.58531,548.19442 262.63055,548.0807 262.72226,548.02935 C 262.81396,547.97799 262.98882,547.95231 263.24804,547.95231 C 264.28495,547.95231 265.11765,548.18709 265.74737,548.6554 C 266.48103,549.19831 266.84786,550.01145 266.84786,551.09115 C 266.84786,552.3029 266.40277,553.16006 265.51138,553.66261 C 264.93056,553.98787 264.19202,554.14927 263.29329,554.14927 C 263.00349,554.14927 262.81396,554.12237 262.72226,554.06735 C 262.63055,554.01233 262.58531,553.90105 262.58531,553.73109 M 260.40145,554.52344 L 263.60142,554.52344 C 264.4598,554.52344 265.18245,554.42684 265.77182,554.2312 C 266.09341,554.12604 266.40522,553.96953 266.70479,553.76288 C 267.178,553.43885 267.53016,553.04145 267.76493,552.56947 C 267.9997,552.09748 268.11708,551.59981 268.11708,551.07647 C 268.11708,549.62016 267.46413,548.61138 266.15944,548.04647 C 265.43557,547.73466 264.55151,547.57815 263.50605,547.57815 L 260.40145,547.57815 L 260.40145,547.76523 C 260.83186,547.7958 261.10821,547.86672 261.23293,547.97677 C 261.35765,548.08682 261.42001,548.33504 261.42001,548.72143 L 261.42001,553.38016 C 261.42001,553.77878 261.35643,554.02822 261.22804,554.12604 C 261.09965,554.22509 260.82331,554.29478 260.40145,554.33636 L 260.40145,554.52344 z"
       style="fill:#00529c;fill-opacity:1;fill-rule:nonzero;stroke:none"
       id="path2597" />
    <path
       d="M 202.51466,432.13838 C 202.29212,431.51354 202.16739,430.8398 202.16739,430.13549 C 202.16739,427.16418 204.16906,424.49 207.79699,424.49 C 208.56122,424.49 209.24841,424.61472 209.86468,424.82993 C 210.52375,424.32003 211.19872,423.83093 211.88836,423.36139 C 210.68271,422.66686 209.28387,422.26702 207.79699,422.26702 C 203.36937,422.26702 199.70108,425.81058 199.70108,430.13549 C 199.70108,431.70307 200.14495,433.13493 200.91162,434.3369 C 201.09381,434.07034 201.27233,433.80256 201.46064,433.54088 C 201.80179,433.06401 202.15517,432.59813 202.51466,432.13838"
       style="fill:#5a5b5d;fill-opacity:1;fill-rule:nonzero;stroke:none"
       id="path2599" />
    <path
       d="M 213.26519,424.35549 C 212.62935,424.77735 212.00819,425.21632 211.39803,425.67119 C 212.72228,426.72888 213.42781,428.37838 213.42781,430.13549 C 213.42781,433.22786 211.1388,435.78099 207.79699,435.78099 C 205.90416,435.78099 204.35003,434.96051 203.35714,433.68639 C 203.16639,433.9395 202.97319,434.19139 202.78856,434.4494 C 202.5061,434.84313 202.2322,435.24175 201.96564,435.64404 C 203.43907,437.11502 205.50676,438.00519 207.79699,438.00519 C 212.26619,438.00519 215.89412,434.62181 215.89412,430.13549 C 215.89412,427.85748 214.87556,425.79713 213.26519,424.35549"
       style="fill:#5a5b5d;fill-opacity:1;fill-rule:nonzero;stroke:none"
       id="path2601" />
    <path
       d="M 198.9931,450.62043 C 198.9931,453.00115 197.63461,455.05661 195.48622,455.87953 C 195.47277,456.31239 195.46177,456.74525 195.46177,457.18055 C 195.46177,457.53026 195.46666,457.87875 195.47644,458.22723 C 198.92096,457.35174 201.46064,454.37309 201.46064,450.62043 C 201.46064,447.86799 199.97254,445.43225 197.74955,444.02485 C 197.48911,444.7475 197.25311,445.47749 197.03668,446.21359 C 198.31447,447.27373 198.9931,448.89511 198.9931,450.62043"
       style="fill:#5a5b5d;fill-opacity:1;fill-rule:nonzero;stroke:none"
       id="path2603" />
    <path
       d="M 193.8575,456.24269 C 193.69487,456.25492 193.53225,456.26592 193.36351,456.26592 C 190.0217,456.26592 187.73391,453.7128 187.73391,450.62043 C 187.73391,447.64912 189.73557,444.97494 193.36351,444.97494 C 194.19743,444.97494 194.94209,445.12167 195.59871,445.376 C 195.8127,444.67658 196.03891,443.98083 196.28958,443.29241 C 195.37984,442.94515 194.39185,442.75073 193.36351,442.75073 C 188.93588,442.75073 185.26637,446.29552 185.26637,450.62043 C 185.26637,455.10674 188.89431,458.49013 193.36351,458.49013 C 193.53102,458.49013 193.69732,458.48401 193.86239,458.47423 C 193.84894,458.04382 193.84038,457.61341 193.84038,457.18055 C 193.84038,456.86752 193.85139,456.55572 193.8575,456.24269"
       style="fill:#5a5b5d;fill-opacity:1;fill-rule:nonzero;stroke:none"
       id="path2605" />
    <path
       d="M 199.17529,465.55647 C 202.80445,465.55647 204.80489,468.22943 204.80489,471.20197 C 204.80489,473.804 203.17984,476.01843 200.6744,476.65671 C 201.06079,477.32434 201.47042,477.98096 201.89839,478.6278 C 205.02866,477.57256 207.27243,474.72841 207.27243,471.20197 C 207.27243,466.87583 203.60292,463.33227 199.17529,463.33227 C 198.07114,463.33227 197.01345,463.55236 196.04869,463.95098 C 196.17708,464.68953 196.3287,465.42319 196.49989,466.14951 C 197.258,465.77535 198.1494,465.55647 199.17529,465.55647"
       style="fill:#5a5b5d;fill-opacity:1;fill-rule:nonzero;stroke:none"
       id="path2607" />
    <path
       d="M 193.5457,471.20197 C 193.5457,469.67474 194.0776,468.22943 195.08393,467.18152 C 194.88095,466.38306 194.70488,465.57604 194.55081,464.7629 C 192.46111,466.18986 191.07938,468.54857 191.07938,471.20197 C 191.07938,475.68706 194.70732,479.07166 199.17529,479.07166 C 199.5299,479.07166 199.87838,479.04721 200.22076,479.00564 C 199.76467,478.29399 199.33181,477.57011 198.92341,476.83523 C 195.72099,476.70806 193.5457,474.21485 193.5457,471.20197"
       style="fill:#5a5b5d;fill-opacity:1;fill-rule:nonzero;stroke:none"
       id="path2609" />
    <path
       d="M 262.91056,488.66668 C 255.38813,494.79272 245.87504,498.16143 236.05625,498.16143 C 226.01248,498.16143 216.29641,494.63987 208.69572,488.24605 L 207.45095,489.65712 C 215.39768,496.34196 225.55639,500.0237 236.05625,500.0237 C 246.3299,500.0237 256.28319,496.49725 264.15044,490.08142 L 262.91056,488.66668 z"
       style="fill:#00529c;fill-opacity:1;fill-rule:nonzero;stroke:none"
       id="path2611" />
    <path
       d="M 238.48955,463.67709 L 238.48955,472.78544 C 238.48955,474.89349 237.79869,476.84746 235.09272,476.84746 C 232.38797,476.84746 231.69711,474.89349 231.69711,472.78544 L 231.69711,463.67709 L 229.21123,463.67709 L 229.21123,473.22197 C 229.21123,476.54544 231.32172,479.08878 235.09272,479.08878 C 238.86372,479.08878 240.9742,476.54544 240.9742,473.22197 L 240.9742,463.67709 L 238.48955,463.67709 z"
       style="fill:#5a5b5d;fill-opacity:1;fill-rule:nonzero;stroke:none"
       id="path2613" />
    <path
       d="M 240.47043,435.56211 L 247.25798,435.56211 L 247.25798,437.68116 L 238.00289,437.68116 L 238.00289,422.58249 L 240.47043,422.58249 L 240.47043,435.56211 z"
       style="fill:#5a5b5d;fill-opacity:1;fill-rule:nonzero;stroke:none"
       id="path2615" />
    <path
       d="M 156.90318,443.10411 L 165.74497,443.10411 L 165.74497,445.28796 L 159.37071,445.28796 L 159.37071,448.85354 L 165.56156,448.85354 L 165.56156,451.03739 L 159.37071,451.03739 L 159.37071,456.01893 L 165.74497,456.01893 L 165.74497,458.20278 L 156.90318,458.20278 L 156.90318,443.10411 z"
       style="fill:#5a5b5d;fill-opacity:1;fill-rule:nonzero;stroke:none"
       id="path2617" />
    <path
       d="M 206.60358,442.31787 L 216.98972,452.93879 L 216.98972,443.10411 L 219.45603,443.10411 L 219.45603,458.80316 L 209.06989,448.24827 L 209.06989,458.20278 L 206.60358,458.20278 L 206.60358,442.31787 z"
       style="fill:#5a5b5d;fill-opacity:1;fill-rule:nonzero;stroke:none"
       id="path2619" />
    <path
       d="M 271.00525,458.20278 L 268.53771,458.20278 L 268.53771,443.10411 L 271.00525,443.10411 L 271.00525,458.20278 z"
       style="fill:#5a5b5d;fill-opacity:1;fill-rule:nonzero;stroke:none"
       id="path2621" />
    <path
       d="M 181.21169,465.83771 L 181.21169,469.42285 L 186.58206,469.42285 L 186.58206,471.6067 L 181.21169,471.6067 L 181.21169,478.7513 L 178.74538,478.7513 L 178.74538,463.65385 L 186.7667,463.65385 L 186.7667,465.83771 L 181.21169,465.83771 z"
       style="fill:#5a5b5d;fill-opacity:1;fill-rule:nonzero;stroke:none"
       id="path2623" />
    <path
       d="M 191.20655,432.02221 L 191.2469,432.02221 L 193.65819,422.5776 L 196.11961,422.5776 L 191.88274,438.31699 L 186.57351,426.9502 L 181.26427,438.31699 L 177.0274,422.5776 L 179.4876,422.5776 L 181.90011,432.02221 L 181.94046,432.02221 L 186.57351,422.25723 L 191.20655,432.02221 z"
       style="fill:#5a5b5d;fill-opacity:1;fill-rule:nonzero;stroke:none"
       id="path2625" />
    <path
       d="M 248.93439,448.75816 L 248.89404,448.75816 L 246.48153,458.20278 L 244.02133,458.20278 L 248.2582,442.46338 L 253.56743,453.83018 L 258.87667,442.46338 L 263.11354,458.20278 L 260.65212,458.20278 L 258.24083,448.75816 L 258.19926,448.75816 L 253.56743,458.52314 L 248.93439,448.75816 z"
       style="fill:#5a5b5d;fill-opacity:1;fill-rule:nonzero;stroke:none"
       id="path2627" />
    <path
       d="M 250.28554,469.3238 L 250.24519,469.3238 L 247.83268,478.7672 L 245.37248,478.7672 L 249.60935,463.02902 L 254.91859,474.39582 L 260.2266,463.0278 L 264.46469,478.7672 L 262.00327,478.7672 L 259.59198,469.32258 L 259.55041,469.32258 L 254.91859,479.08756 L 250.28554,469.3238 z"
       style="fill:#5a5b5d;fill-opacity:1;fill-rule:nonzero;stroke:none"
       id="path2629" />
    <path
       d="M 215.07121,470.40962 L 216.22672,470.40962 C 218.19414,470.40962 220.52839,470.44508 220.52839,468.04112 C 220.52839,465.67875 218.03029,465.73377 216.124,465.73377 L 215.07121,465.73377 L 215.07121,470.40962 z M 216.69626,463.6563 C 218.07064,463.6563 219.68102,463.67586 220.91112,464.35694 C 222.20236,465.09794 222.9409,466.52001 222.9409,467.96165 C 222.9409,470.12349 221.46503,471.92584 219.22982,472.18629 L 224.10864,478.75497 L 221.29873,478.75497 L 216.74884,472.36726 L 215.07121,472.36726 L 215.07121,478.75497 L 212.60367,478.75497 L 212.60367,463.6563 L 216.69626,463.6563 z"
       style="fill:#5a5b5d;fill-opacity:1;fill-rule:nonzero;stroke:none"
       id="path2631" />
    <path
       d="M 223.54373,429.33214 L 224.69801,429.33214 C 226.66666,429.33214 229.00091,429.3676 229.00091,426.96487 C 229.00091,424.60249 226.50281,424.65752 224.59652,424.65752 L 223.54373,424.65752 L 223.54373,429.33214 z M 225.16878,422.58004 C 226.54194,422.58004 228.15354,422.59961 229.38364,423.28069 C 230.67488,424.02168 231.4122,425.44253 231.4122,426.88417 C 231.4122,429.04723 229.93633,430.84958 227.70234,431.11003 L 232.58116,437.67749 L 229.77125,437.67749 L 225.22013,431.28978 L 223.54373,431.28978 L 223.54373,437.67749 L 221.07619,437.67749 L 221.07619,422.58004 L 225.16878,422.58004 z"
       style="fill:#5a5b5d;fill-opacity:1;fill-rule:nonzero;stroke:none"
       id="path2633" />
    <path
       d="M 251.6587,422.58249 L 255.80142,422.58249 C 260.53718,422.58249 264.47203,424.91919 264.47203,430.05112 C 264.47203,435.28088 260.6191,437.68116 255.74028,437.68116 L 251.6587,437.68116 L 251.6587,422.58249 z M 254.12746,435.54988 L 255.57154,435.54988 C 258.87911,435.54988 262.00327,434.35402 262.00327,430.04134 C 262.00327,425.72866 258.87911,424.65752 255.57154,424.65752 L 254.12746,424.65752 L 254.12746,435.54988 z"
       style="fill:#5a5b5d;fill-opacity:1;fill-rule:nonzero;stroke:none"
       id="path2635" />
    <path
       d="M 287.52232,455.61052 C 286.72875,456.03604 285.80067,456.27937 284.77111,456.27937 C 281.43052,456.27937 279.14151,453.72625 279.14151,450.63388 C 279.14151,447.66134 281.14317,444.98839 284.77111,444.98839 C 285.83736,444.98839 286.76176,445.22071 287.537,445.62178 L 288.7891,443.8182 C 287.60058,443.14935 286.22742,442.76418 284.77111,442.76418 C 280.34348,442.76418 276.67397,446.30775 276.67397,450.63388 C 276.67397,455.11897 280.30191,458.50358 284.77111,458.50358 C 286.2482,458.50358 287.63115,458.13186 288.82456,457.47524 L 287.52232,455.61052 z"
       style="fill:#5a5b5d;fill-opacity:1;fill-rule:nonzero;stroke:none"
       id="path2637" />
    <path
       d="M 181.30707,455.61052 C 180.51472,456.03604 179.58542,456.27937 178.55585,456.27937 C 175.21527,456.27937 172.92625,453.72625 172.92625,450.63388 C 172.92625,447.66134 174.92792,444.98839 178.55585,444.98839 C 179.6221,444.98839 180.54651,445.22071 181.32174,445.62178 L 182.57385,443.8182 C 181.38532,443.14935 180.01216,442.76418 178.55585,442.76418 C 174.12823,442.76418 170.45872,446.30775 170.45872,450.63388 C 170.45872,455.11897 174.08788,458.50358 178.55585,458.50358 C 180.03295,458.50358 181.41712,458.13186 182.60931,457.47524 L 181.30707,455.61052 z"
       style="fill:#5a5b5d;fill-opacity:1;fill-rule:nonzero;stroke:none"
       id="path2639" />
    <path
       d="M 262.55596,488.26195 C 255.13257,494.30606 245.74542,497.62953 236.05625,497.62953 C 224.99637,497.62953 214.59922,493.422 206.77843,485.78218 C 198.95764,478.14236 194.65107,467.98488 194.65107,457.18055 C 194.65107,448.82786 197.23477,440.81021 202.1246,433.99453 C 206.90438,427.3317 213.52563,422.28047 221.27306,419.38619 L 220.97593,418.62563 C 213.07199,421.57738 206.31745,426.7301 201.44107,433.52743 C 196.45343,440.48128 193.81593,448.66034 193.81593,457.18055 C 193.81593,468.20253 198.21054,478.56422 206.18906,486.35811 C 214.16636,494.15199 224.77383,498.44389 236.05625,498.44389 C 245.94473,498.44389 255.52508,495.05195 263.10009,488.87944 L 262.55596,488.26195 z"
       style="fill:#00529c;fill-opacity:1;fill-rule:nonzero;stroke:none"
       id="path2641" />
    <path
       d="M 240.8287,450.63388 C 240.8287,455.11897 237.19954,458.50358 232.73156,458.50358 C 228.26237,458.50358 224.63443,455.11897 224.63443,450.63388 C 224.63443,446.30775 228.30394,442.76418 232.73156,442.76418 C 237.15919,442.76418 240.8287,446.30775 240.8287,450.63388 M 238.36116,450.63388 C 238.36116,447.66134 236.3595,444.98839 232.73156,444.98839 C 229.10363,444.98839 227.10196,447.66134 227.10196,450.63388 C 227.10196,453.72625 229.38975,456.27937 232.73156,456.27937 C 236.07215,456.27937 238.36116,453.72625 238.36116,450.63388"
       style="fill:#5a5b5d;fill-opacity:1;fill-rule:nonzero;stroke:none"
       id="path2643" />
  </g>
</svg>
