<svg id="Layer_1" data-name="Layer 1" xmlns="http://www.w3.org/2000/svg" viewBox="0 0 180 180"><defs><style>.cls-1{fill:#fff;}.cls-2{fill:#fdb913;}.cls-3{fill:#004b8d;}</style></defs><title>Untitled-1</title><path class="cls-1" d="M26.72,132.19c28.9,0,68.87,16.27,97.87,16.27,20.7,0,40.89-5.52,52.39-13.66A87.94,87.94,0,1,0,2.34,120.12a88.78,88.78,0,0,0,1.2,14.51A143.63,143.63,0,0,1,26.72,132.19Z"/><polygon class="cls-2" points="147.08 99.79 150.56 101.23 158.27 95.85 147.08 99.79"/><path class="cls-2" d="M17.52,93.78,8.38,90.57l.46-1.12,10.29,3.43,0,0,1.36-.77.54-.34L9.85,87l.47-1.17L35.38,95.93l.83-.34L11.36,83.48l.56-1.14L38.25,94.6l.36-.19L13.08,79.93l.53-1.08L50.47,98.9c.3-.56.94-1.57,1.26-2.12A328.53,328.53,0,0,0,24.19,73.71a327.62,327.62,0,0,0,31.08,18c.57-.71,1-1.27,1.63-1.95L25.45,62.05l.84-.87L51.68,82.82,28.16,59.27l.88-.91,26.4,25.52L30.87,56.59l.94-.85L54.53,80.07,33.79,53.95l.89-.81L61.26,85.48c.69-.59,1.26-1,2-1.59A327,327,0,0,0,46.41,52.34a327.45,327.45,0,0,0,22,28.16c.77-.43,1.55-.85,2.35-1.24l-.13-.09L52,42l1.1-.49L68.49,71.08l-13-30.64,1.16-.52L71.59,73.47,59,39l1.19-.43L72.16,69.6l-9.43-32,1.13-.41L76.28,76.87l0,.1h0c.82-.28,1.67-.52,2.51-.75A327.08,327.08,0,0,0,75,40.85,327.8,327.8,0,0,0,84.79,75c.87-.1,1.74-.2,2.63-.26l0,0h.11l-.06-.09L84.09,33.2l1.22,0,3.23,33.19L88,33.08l1.26,0,1.27,36.69L91.77,33l1.27,0-.56,33.28,3.23-33.19,1.21,0L93.58,74.64l-.07.09h.07c.86.06,1.72.14,2.57.24a328.07,328.07,0,0,0,9.73-34.13,329.87,329.87,0,0,0-3.76,35.27c.86.23,1.7.47,2.54.74L117,37.34l1.14.42-9.44,32,12-31.06,1.19.43L109.3,73.61l14.92-33.55,1.16.52-13,30.64,15.44-29.57,1.1.49-18.56,37h0c.76.37,1.51.77,2.25,1.18a328.24,328.24,0,0,0,21.84-28A329.72,329.72,0,0,0,117.77,83.7c.72.54,1.42,1.1,2.1,1.68l26.26-32,.89.81L126.3,80.33,149,56l.94.85L125.37,84.13l26.4-25.51.88.91L129.14,83.08l25.39-21.63.84.87L124.3,89.69l0,0c.54.6,1.06,1.23,1.58,1.86a327.91,327.91,0,0,0,30.84-17.85A328.3,328.3,0,0,0,129.4,96.59c.38.64,1,1.72,1.35,2.38l36.34-19.79.53,1.09-29,16.45,30.18-14,.55,1.14-28.1,13.69.54.19,28.6-11.57.48,1.17L144.26,98.62l.5.21,17.72-5.91,2.67-1.87.89.68,5.83-1.94.46,1.12-5,1.78,7.29,5.56,2.33,1.3a89.08,89.08,0,0,0-173.7,2.07l.33-.16L4.58,101l.66-.32Z"/><path class="cls-3" d="M2.68,136.55s13.14-2.63,24.1-2.63c28.9,0,68.86,16.27,97.87,16.27,21.28,0,42-5.84,53.33-14.35a89.56,89.56,0,0,0-1.1-36.29L164.8,92.8l-14.18,9.94L141.07,99c-3.23,1.64-23.16,15-23.16,15l-7.65-5.54-8.2-1.62-10.95-8-12.55,8.61s-14,8.13-14.49,8.13-16.9-13-16.9-13l-7.56-8c-1.28.81-6.43,3.17-6.43,3.17l-.27.07-5-1.54-6-3.21L3.52,101.46l-.33.16a89.67,89.67,0,0,0-.5,34.93Z"/></svg>