<?xml version="1.0" encoding="UTF-8" standalone="no"?>
<!DOCTYPE svg PUBLIC "-//W3C//DTD SVG 1.1//EN" "http://www.w3.org/Graphics/SVG/1.1/DTD/svg11.dtd">
<svg width="100%" height="100%" viewBox="0 0 292 205" version="1.1" xmlns="http://www.w3.org/2000/svg" xmlns:xlink="http://www.w3.org/1999/xlink" xml:space="preserve" xmlns:serif="http://www.serif.com/" style="fill-rule:evenodd;clip-rule:evenodd;stroke-linejoin:round;stroke-miterlimit:1.41421;">
    <g transform="matrix(1,0,0,1,-62.647,-63.5055)">
        <g transform="matrix(1,0,0,1,109.59,96.7797)">
            <path d="M0,129.539C44.702,129.539 106.539,154.709 151.407,154.709C183.425,154.709 214.668,146.164 232.451,133.582C233.693,126.193 234.351,118.607 234.351,110.865C234.351,35.735 173.444,-25.17 98.314,-25.17C23.184,-25.17 -37.722,35.735 -37.722,110.865C-37.722,118.518 -37.08,126.018 -35.865,133.326C-30.962,132.418 -14.291,129.539 0,129.539" style="fill:white;fill-rule:nonzero;"/>
        </g>
        <g transform="matrix(1,0,0,1,295.886,172.31)">
            <path d="M0,3.86L5.379,6.09L17.308,-2.23L0,3.86Z" style="fill:rgb(227,168,43);fill-rule:nonzero;"/>
        </g>
        <g transform="matrix(1,0,0,1,95.4546,82.2982)">
            <path d="M0,84.581L-14.139,79.606L-13.43,77.874L2.493,83.183L2.562,83.144L4.663,81.953L5.501,81.428L-11.862,74.042L-11.128,72.226L27.626,87.9L28.904,87.37L-9.531,68.64L-8.674,66.88L32.056,85.836L32.619,85.55L-6.873,63.15L-6.062,61.468L50.967,92.499C51.434,91.636 52.412,90.063 52.914,89.217C31.232,68.831 10.309,53.525 10.309,53.525C10.309,53.525 31.826,67.935 58.382,81.332C59.259,80.237 59.979,79.358 60.916,78.319L12.264,35.487L13.57,34.146L52.837,67.613L16.458,31.182L17.82,29.772L58.664,69.245L20.644,27.046L22.098,25.735L57.238,63.363L25.165,22.951L26.546,21.695L67.658,71.727C68.721,70.81 69.604,70.12 70.716,69.268C58.28,42.356 44.699,20.464 44.699,20.464C44.699,20.464 59.154,41.742 78.657,64.026C79.848,63.355 81.056,62.712 82.29,62.107L82.083,61.973L53.271,4.472L54.984,3.719L78.855,49.457L58.772,2.05L60.563,1.255L83.646,53.153L64.201,-0.216L66.041,-0.887L84.527,47.166L69.927,-2.319L71.68,-2.965L90.9,58.411L90.863,58.573L90.911,58.554C92.189,58.125 93.489,57.747 94.796,57.391C93.333,27.911 88.972,2.693 88.972,2.693C88.972,2.693 94.372,27.689 104.054,55.56C105.402,55.394 106.759,55.253 108.127,55.161L108.084,55.097L108.252,55.097L108.156,54.956L102.982,-9.15L104.852,-9.209L109.85,42.143L108.991,-9.335L110.947,-9.401L112.909,47.365L114.869,-9.402L116.829,-9.335L115.968,42.143L120.967,-9.208L122.836,-9.15L117.662,54.956L117.565,55.097L117.593,55.097L117.579,55.117L117.664,55.117C119.002,55.201 120.329,55.335 121.646,55.493C131.315,27.649 136.706,2.693 136.706,2.693C136.706,2.693 132.358,27.835 130.888,57.261C132.208,57.61 133.514,57.993 134.801,58.415L153.953,-2.748L155.708,-2.101L141.106,47.384L159.594,-0.669L161.432,0.003L141.986,53.371L165.069,1.472L166.862,2.268L146.778,49.676L170.65,3.937L172.362,4.69L143.652,61.985L143.701,62.005C144.884,62.581 146.042,63.196 147.188,63.832C166.607,41.619 180.979,20.464 180.979,20.464C180.979,20.464 167.491,42.206 155.091,68.987C156.199,69.823 157.283,70.687 158.335,71.586L198.964,22.098L200.35,23.355L168.273,63.767L203.416,26.139L204.867,27.451L166.846,69.648L207.69,30.175L209.053,31.585L172.674,68.017L211.941,34.552L213.247,35.89L165.189,78.239L165.217,78.268C166.056,79.203 166.864,80.168 167.657,81.148C194.045,67.805 215.369,53.525 215.369,53.525C215.369,53.525 194.649,68.682 173.08,88.922C173.671,89.908 174.625,91.592 175.17,92.608L231.391,61.997L232.204,63.682L187.325,89.135L234.003,67.412L234.859,69.172L191.381,90.358L192.215,90.649L236.456,72.755L237.191,74.572L196.069,92.063L196.838,92.382L224.24,83.247L228.37,80.364L229.741,81.411L238.758,78.405L239.467,80.135L231.666,82.88L242.937,91.481L246.549,93.495C232.058,32.917 177.566,-12.12 112.548,-12.12C46.388,-12.12 -8.873,34.514 -22.179,96.701C-22.008,96.618 -21.843,96.541 -21.672,96.457L-20.021,95.709L-19.008,95.236L0,84.581Z" style="fill:rgb(227,168,43);fill-rule:nonzero;"/>
        </g>
        <g transform="matrix(1,0,0,1,72.4966,186.474)">
            <path d="M0,46.548C0,46.548 20.325,42.489 37.291,42.489C81.993,42.489 143.83,67.66 188.698,67.66C221.612,67.66 253.714,58.631 271.209,45.467C272.576,37.679 273.292,29.669 273.292,21.489C273.292,10.411 271.977,-0.358 269.507,-10.681L250.802,-21.112L228.855,-5.721L214.091,-11.47C209.093,-8.944 178.257,11.677 178.257,11.677L166.422,3.11L153.724,0.595L136.792,-11.732L117.37,1.602C117.37,1.602 95.701,14.184 94.957,14.184C94.209,14.184 68.813,-5.949 68.813,-5.949L57.112,-18.276C55.119,-17.018 47.16,-13.366 47.16,-13.366L46.751,-13.258L39.049,-15.64L29.696,-20.601L1.286,-7.719C1.115,-7.635 0.95,-7.557 0.779,-7.474C-1.22,1.865 -2.28,11.553 -2.28,21.489C-2.28,30.047 -1.494,38.422 0,46.548" style="fill:rgb(35,64,117);fill-rule:nonzero;"/>
        </g>
    </g>
</svg>
