<?xml version="1.0" encoding="UTF-8" standalone="no"?>
<!DOCTYPE svg PUBLIC "-//W3C//DTD SVG 1.1//EN" "http://www.w3.org/Graphics/SVG/1.1/DTD/svg11.dtd">
<svg width="100%" height="100%" viewBox="0 0 825 205" version="1.1" xmlns="http://www.w3.org/2000/svg" xmlns:xlink="http://www.w3.org/1999/xlink" xml:space="preserve" xmlns:serif="http://www.serif.com/" style="fill-rule:evenodd;clip-rule:evenodd;stroke-linejoin:round;stroke-miterlimit:1.41421;">
    <g id="BC-ID" serif:id="BC ID" transform="matrix(1,0,0,1,-62.647,-63.5055)">
        <g>
            <g transform="matrix(1,0,0,1,876.173,195.048)">
                <path d="M0,25.363C-0.545,25.363 -1.191,27.429 -1.426,27.963C-4.064,34.695 -8.336,34.849 -15.02,34.849C-21.154,34.849 -24.57,34.771 -24.57,27.734L-24.57,14.427C-24.57,11.83 -23.797,11.83 -20.687,11.83C-18.357,11.83 -14.32,11.83 -11.293,12.517C-9.582,12.9 -8.959,15.191 -8.57,17.412C-8.494,17.869 -8.262,18.711 -7.561,18.711C-7.174,18.711 -6.629,18.836 -6.707,17.336C-6.785,14.888 -6.941,12.592 -7.096,10.146C-6.941,8.004 -6.785,5.711 -6.707,3.568C-6.707,2.957 -7.174,2.804 -7.561,2.804C-8.262,2.804 -8.494,3.646 -8.57,4.103C-8.959,6.324 -9.348,9.15 -11.293,9.383C-14.32,9.761 -18.357,9.685 -20.687,9.685C-23.871,9.685 -24.57,9.685 -24.57,6.092L-24.57,-5.43C-24.57,-6.731 -24.805,-8.414 -23.328,-8.948C-22.084,-9.407 -18.668,-9.407 -17.426,-9.407C-14.785,-9.407 -11.445,-9.407 -8.883,-8.641C-6.32,-7.875 -5.232,-6.5 -4.064,-4.129L-2.902,-1.989C-2.67,-1.451 -2.357,-0.459 -1.658,-0.459C-0.881,-0.459 -0.959,-0.815 -0.959,-2.067L-0.959,-8.641C-0.959,-9.637 -0.572,-11.473 -2.049,-11.473C-8.65,-11.473 -15.172,-11.164 -21.855,-11.164C-25.994,-11.164 -34.414,-11.45 -34.414,-11.45C-35.338,-11.477 -36.313,-11.51 -37.383,-11.549C-37.863,-11.332 -38.025,-10.032 -37.543,-9.744L-35.539,-9.6C-35.16,-9.571 -34.496,-9.537 -34.496,-9.537C-30.463,-9.282 -30.707,-7.463 -30.707,-3.135L-30.707,28.426C-30.707,32.884 -30.465,34.547 -34.479,34.804C-34.479,34.804 -35.191,34.849 -35.604,34.892L-37.607,35.109C-38.09,35.539 -37.926,36.695 -37.447,36.912C-36.379,36.873 -34.723,36.773 -34.584,36.759C-33.73,36.683 -32.418,36.607 -31.641,36.607L-1.271,36.607C-0.648,36.607 -0.494,36.683 -0.416,36.146L0.748,28.041C0.898,27.277 0.916,26.996 1.059,26.207C1.197,25.449 0.543,25.363 0,25.363" style="fill:rgb(35,64,117);fill-rule:nonzero;"/>
            </g>
            <g transform="matrix(1,0,0,1,381.606,189.813)">
                <path d="M0,27.879C0,30.924 0.189,35.229 1.971,37.088C3.754,39.031 6.566,39.453 9.379,39.453C17.727,39.453 24.104,36.076 24.104,27.627C24.104,20.953 20.352,13.178 5.441,13.178C0.377,13.178 0,13.684 0,15.373L0,27.879ZM0,8.277C0,10.645 0.096,10.813 4.879,10.645C14.443,10.307 19.602,7.77 19.602,-0.172C19.602,-8.451 12.756,-11.578 5.629,-11.578C3.564,-11.578 2.158,-11.408 1.314,-11.068C0.377,-10.816 0,-10.392 0,-8.873L0,8.277ZM-7.689,-2.957C-7.689,-9.211 -8.064,-10.816 -12.285,-11.154L-15.285,-11.408C-16.035,-11.916 -15.941,-13.182 -15.191,-13.519C-10.127,-13.941 -3.75,-14.193 4.971,-14.193C10.881,-14.193 16.506,-13.773 20.727,-11.83C24.76,-10.055 27.854,-6.678 27.854,-1.271C27.854,4.815 23.914,7.942 18.289,10.307C18.289,11.15 19.039,11.402 20.07,11.572C25.135,12.418 32.639,16.643 32.639,25.682C32.639,35.484 24.572,42.072 7.691,42.072C4.971,42.072 0.377,41.818 -3.563,41.818C-7.689,41.818 -10.877,41.992 -14.348,42.072C-14.91,41.818 -15.098,40.471 -14.535,39.963L-12.848,39.707C-7.875,38.947 -7.689,38.018 -7.689,29.147L-7.689,-2.957Z" style="fill:rgb(35,64,117);fill-rule:nonzero;"/>
            </g>
            <g transform="matrix(1,0,0,1,772.603,215.183)">
                <path d="M0,-5.625C0,-17.404 -5.398,-30.109 -19.529,-30.109C-27.223,-30.109 -37.211,-25.043 -37.211,-9.408C-37.211,1.158 -31.883,14.863 -17.311,14.863C-8.434,14.863 0,8.439 0,-5.625M7.396,-7.836C7.396,3.941 -0.148,13.006 -10.504,16.006C-10.652,16.361 -10.363,16.656 -9.912,17.076C-6.004,20.711 -5.693,21.35 -0.867,23.207C1.809,24.234 5.695,24.082 7.395,24.082C8.135,24.082 9.91,23.867 10.945,23.439C11.389,23.512 11.539,24.152 11.316,24.51C8.947,25.797 4.285,26.699 1.697,26.699C-1.705,26.699 -6.611,25.977 -10.688,23.725C-12.047,22.975 -13.006,22.389 -16.57,19.502C-18.967,17.562 -19.455,17.219 -21.529,16.861C-23.451,16.578 -26.111,16.148 -28.775,15.146C-38.613,11.58 -44.607,3.086 -44.607,-7.123C-44.607,-21.4 -33.512,-32.324 -18.271,-32.324C-1.182,-32.324 7.396,-20.402 7.396,-7.836" style="fill:rgb(35,64,117);fill-rule:nonzero;"/>
            </g>
            <g transform="matrix(1,0,0,1,564.303,201.907)">
                <path d="M0,10.367L-9.373,10.367C-9.701,10.367 -12.307,10.672 -12.307,9.906C-12.307,9.678 -12.145,9.219 -12.064,8.988L-6.439,-4.936C-6.277,-5.321 -5.705,-7.233 -5.053,-7.233C-4.564,-7.233 -3.914,-5.244 -3.75,-4.936L1.791,8.07C1.791,8.222 2.361,9.449 2.361,9.754C2.361,10.596 0.49,10.367 0,10.367M20.77,28.013C20.367,27.971 20.014,27.922 19.678,27.869C16.559,27.17 15.338,23.41 14.188,20.732L-1.875,-17.278C-2.033,-17.733 -2.352,-18.719 -2.988,-18.719C-3.863,-18.719 -4.102,-17.658 -4.338,-17.053L-19.684,20.887C-20.242,22.322 -21.672,25.808 -22.707,26.869C-23.498,27.679 -24.529,27.834 -25.627,27.945C-25.627,27.945 -26.494,28.029 -26.908,28.072L-28.795,28.267C-29.275,28.699 -29.115,29.853 -28.633,30.07C-27.562,30.031 -25.664,29.963 -25.664,29.963C-23.566,29.933 -21.465,29.67 -19.365,29.67C-17.598,29.67 -15.832,29.857 -14.064,29.937C-14.064,29.937 -12.168,30.002 -11.098,30.043C-10.617,29.826 -10.453,28.67 -10.936,28.238L-12.941,28.023C-13.336,27.978 -14.025,27.914 -14.025,27.914C-15.871,27.713 -18.174,27.381 -18.174,25.351C-18.174,23.988 -17.537,22.4 -17.061,21.187L-14.676,15.51C-13.482,12.783 -13.961,12.48 -10.779,12.48L0.033,12.48C3.852,12.48 3.293,12.48 4.965,16.342L7.51,22.096C7.904,23.08 8.619,24.748 8.619,25.808C8.619,27.713 6.543,27.836 4.604,28C4.604,28 3.957,28.056 3.4,28.097L1.473,28.238C0.992,28.67 1.154,29.824 1.633,30.043C2.703,30.002 4.604,29.928 4.604,29.928C6.863,29.844 9.139,29.67 11.324,29.67C14.109,29.67 16.893,29.859 19.68,29.937L19.68,29.933C20.592,29.961 19.818,29.996 20.875,30.033C21.355,29.818 21.52,28.66 21.037,28.23L20.77,28.013ZM158.334,-16.225L160.336,-16.371C160.816,-16.66 160.656,-17.959 160.176,-18.176C156.172,-18.033 153.447,-17.959 150.242,-17.959C146.877,-17.959 144.152,-18.033 140.148,-18.176C139.668,-17.959 139.506,-16.66 139.986,-16.371L141.99,-16.225C146.719,-15.865 146.877,-14.639 146.877,-6.99L146.877,18.703C146.877,26.353 146.719,27.363 141.99,27.869L139.986,28.084C139.506,28.517 139.668,29.67 140.148,29.888C144.152,29.744 146.877,29.67 150.242,29.67C153.447,29.67 156.172,29.744 160.176,29.888C160.656,29.67 160.816,28.375 160.336,28.084L158.334,27.869C153.607,27.363 153.447,26.353 153.447,18.703L153.447,-6.99C153.447,-14.639 153.607,-15.865 158.334,-16.225M77.846,-18.076C76.822,-18.041 74.922,-17.93 74.922,-17.93C73.381,-17.838 71.367,-17.735 69.756,-17.735C68.066,-17.735 66.297,-17.885 64.652,-17.975L64.418,-18C63.496,-18.028 62.916,-18.063 61.846,-18.1C61.365,-17.883 61.203,-16.584 61.686,-16.293L63.688,-16.151C64.094,-16.119 64.799,-16.029 64.799,-16.029C68.85,-15.598 68.592,-13.955 68.592,-9.502L68.592,19.674L41.963,-15.328C41.033,-16.57 40.41,-17.658 38.779,-18.045L28.365,-18.045L28.205,-18.051C27.281,-18.08 26.43,-18.113 25.359,-18.153C24.881,-17.93 24.721,-16.582 25.201,-16.279L27.203,-16.133C27.617,-16.1 27.629,-16.096 28.129,-16.047L28.447,-16.018C32.541,-15.617 32.107,-13.975 32.107,-9.502L32.107,21.615C32.107,25.988 32.445,27.541 28.41,27.9C28.41,27.9 27.697,27.978 27.283,28.023L25.281,28.24C24.801,28.674 24.961,29.828 25.441,30.045C26.512,30.006 28.41,29.937 28.41,29.937C30.027,29.847 31.35,29.828 33.629,29.693C35.293,29.596 36.881,29.719 38.502,29.84C38.502,29.84 40.379,29.976 41.439,30.012C41.92,29.795 42.082,28.64 41.6,28.211L39.596,27.994C39.184,27.951 38.816,27.933 38.471,27.875C34.475,27.59 34.793,25.98 34.793,21.615L34.793,-12.844L67.416,28.916C67.803,29.537 68.936,30.779 69.789,30.779C70.488,30.779 71.201,29.693 71.201,29.303L71.201,-9.502C71.201,-13.862 70.951,-15.58 74.877,-16.008L74.877,-16.006C75.223,-16.053 75.59,-16.096 76.004,-16.127L78.008,-16.272C78.486,-16.561 78.326,-17.86 77.846,-18.076M270.264,-18.131C267.508,-17.987 265.441,-17.914 262.229,-17.914C259.246,-17.914 256.414,-17.987 253.508,-18.131C253.047,-17.842 252.896,-16.904 253.355,-16.399L255.266,-16.254C257.18,-16.11 258.557,-15.606 259.092,-14.738C260.393,-12.574 260.547,-5.141 260.547,-0.666L260.547,7.635C260.547,18.601 256.34,26.83 245.248,26.83C233.545,26.83 229.717,19.178 229.717,7.56L229.717,-8.028C229.717,-15.531 229.873,-15.893 234.305,-16.254L236.143,-16.399C236.602,-16.688 236.451,-17.914 235.992,-18.131C232.244,-17.987 229.717,-17.914 226.58,-17.914C223.523,-17.914 220.922,-17.987 217.096,-18.131C216.637,-17.914 216.484,-16.688 216.943,-16.399L218.855,-16.254C223.291,-15.893 223.445,-15.531 223.445,-8.028L223.445,9.004C223.445,17.592 225.357,22.863 229.412,26.037C233.16,29.068 238.437,30.006 243.717,30.006C249.377,30.006 255.037,28.131 258.326,24.738C262.611,20.408 263.684,13.767 263.684,7.488L263.684,-0.666C263.684,-4.707 263.684,-12.141 264.756,-14.522C265.213,-15.459 266.666,-16.11 268.578,-16.254L270.414,-16.399C270.799,-16.83 270.875,-17.768 270.264,-18.131M-126.193,4.572C-127.645,4.572 -130.553,5.115 -130.553,3.181L-130.553,-10.662C-130.553,-16.074 -130.383,-16.846 -123.881,-16.846C-116.27,-16.846 -111.566,-12.981 -111.566,-5.867C-111.566,-2.774 -112.68,0.086 -115.5,2.021C-118.752,4.263 -122.258,4.572 -126.193,4.572M-98.998,28.113C-99.404,28.07 -99.764,28.017 -100.105,27.965C-103.037,27.445 -104.211,24.836 -105.59,22.414L-112.516,10.349C-113.715,8.338 -114.994,5.633 -117.734,5.248C-110.635,4.396 -104.221,0.299 -104.221,-6.738C-104.221,-14.862 -112.258,-18.494 -120.387,-18.494C-125.26,-18.494 -130.049,-18.184 -135.01,-18.184C-137.746,-18.184 -140.654,-18.494 -143.391,-18.494C-144.91,-18.494 -144.932,-18.184 -144.932,-17.334C-144.932,-16.078 -144.406,-16.404 -142.793,-16.404C-136.807,-16.404 -137.234,-14.936 -137.234,-9.988L-137.234,21.64C-137.234,26.168 -136.842,27.519 -141.594,27.945C-141.594,27.945 -142.322,28.017 -142.734,28.064L-144.748,28.269C-145.23,28.703 -145.066,29.857 -144.588,30.074C-143.518,30.037 -141.619,29.961 -141.619,29.961C-138.988,29.883 -136.357,29.681 -133.725,29.681C-131.082,29.681 -128.549,29.885 -125.949,29.961L-125.949,29.963C-125.023,29.992 -124.051,30.023 -122.98,30.064C-122.5,29.847 -122.34,28.691 -122.818,28.26L-124.848,28.068C-125.26,28.023 -125.971,27.961 -125.971,27.961C-130.771,27.635 -130.477,26.281 -130.477,21.64L-130.477,9.732C-130.477,9.037 -130.562,7.181 -130.049,6.638C-129.621,6.172 -128.854,6.25 -128.168,6.25C-121.668,6.25 -121.754,6.871 -118.674,12.283L-110.295,27.363C-109.609,28.521 -109.096,29.992 -107.385,29.992L-100.105,29.992C-99.186,30.019 -98.221,30.051 -97.158,30.09C-96.676,29.873 -96.516,28.719 -96.994,28.287L-98.998,28.113ZM-38.715,-15.721L-33.389,-15.721C-29.258,-15.721 -26.408,-15.145 -24.68,-13.916C-23.553,-13.123 -23.029,-10.453 -22.803,-8.647C-22.43,-8.215 -21.152,-8.215 -20.854,-8.793C-21.078,-10.959 -20.553,-16.803 -19.729,-19.764C-19.877,-20.049 -20.701,-20.121 -21.078,-19.981C-22.205,-18.104 -22.881,-17.959 -26.934,-17.959L-57.33,-17.959C-60.783,-17.959 -63.258,-17.885 -63.709,-20.195C-63.934,-20.412 -64.91,-20.34 -65.137,-20.195C-65.662,-17.309 -66.787,-12.69 -67.986,-9.444C-67.686,-8.865 -66.635,-8.506 -66.035,-8.94C-65.211,-10.742 -64.459,-12.33 -62.658,-13.916C-60.783,-15.578 -56.652,-15.721 -53.428,-15.721L-49.301,-15.721C-47.049,-15.721 -47.049,-15.649 -47.049,-13.414L-47.049,18.849C-47.049,26.426 -47.422,27.508 -51.701,27.869L-54.402,28.084C-55.002,28.447 -54.854,29.67 -54.402,29.888C-49.6,29.744 -46.973,29.67 -43.969,29.67C-40.967,29.67 -38.416,29.744 -34.139,29.888C-33.686,29.67 -33.539,28.375 -33.988,28.084L-36.391,27.869C-40.744,27.508 -40.895,26.426 -40.895,18.849L-40.895,-13.268C-40.895,-15.649 -40.967,-15.721 -38.715,-15.721M-73.881,-16.229L-71.877,-16.373C-71.395,-16.662 -71.557,-17.961 -72.037,-18.18C-76.043,-18.035 -78.766,-17.961 -81.969,-17.961C-85.334,-17.961 -88.057,-18.035 -92.064,-18.18C-92.543,-17.961 -92.705,-16.662 -92.225,-16.373L-90.223,-16.229C-85.494,-15.867 -85.334,-14.643 -85.334,-6.992L-85.334,18.701C-85.334,26.347 -85.494,27.359 -90.223,27.865L-92.225,28.082C-92.705,28.513 -92.543,29.668 -92.064,29.885C-88.057,29.74 -85.334,29.668 -81.969,29.668C-78.766,29.668 -76.043,29.74 -72.037,29.885C-71.557,29.668 -71.395,28.369 -71.877,28.082L-73.881,27.865C-78.607,27.359 -78.766,26.347 -78.766,18.701L-78.766,-6.992C-78.766,-14.643 -78.607,-15.867 -73.881,-16.229" style="fill:rgb(35,64,117);fill-rule:nonzero;"/>
            </g>
            <g transform="matrix(1,0,0,1,699.543,232.509)">
                <path d="M0,-48.779C-1.021,-48.742 -2.924,-48.631 -2.924,-48.631C-4.461,-48.539 -6.475,-48.439 -8.086,-48.439C-9.775,-48.439 -11.545,-48.586 -13.191,-48.675L-13.428,-48.701C-14.348,-48.732 -14.926,-48.763 -15.996,-48.8C-16.479,-48.586 -16.639,-47.287 -16.158,-46.998L-14.154,-46.853C-13.75,-46.822 -13.047,-46.73 -13.047,-46.73C-8.996,-46.299 -9.25,-44.656 -9.25,-40.205L-9.25,-11.031L-35.881,-46.031C-36.813,-47.273 -37.432,-48.359 -39.064,-48.748L-49.479,-48.748L-49.639,-48.752C-50.561,-48.783 -51.412,-48.82 -52.48,-48.855C-52.963,-48.631 -53.123,-47.283 -52.643,-46.984L-50.639,-46.836C-50.227,-46.8 -50.215,-46.799 -49.715,-46.75L-49.398,-46.72C-45.299,-46.318 -45.736,-44.679 -45.736,-40.205L-45.736,-9.088C-45.736,-4.715 -45.398,-3.164 -49.434,-2.802C-49.434,-2.802 -50.146,-2.722 -50.557,-2.675L-52.563,-2.463C-53.045,-2.031 -52.881,-0.875 -52.4,-0.66C-51.33,-0.697 -49.434,-0.763 -49.434,-0.763C-47.816,-0.855 -46.496,-0.877 -44.215,-1.009C-42.553,-1.109 -40.965,-0.984 -39.34,-0.861C-39.34,-0.861 -37.463,-0.728 -36.404,-0.689C-35.924,-0.906 -35.762,-2.062 -36.242,-2.494L-38.246,-2.711C-38.658,-2.756 -39.027,-2.771 -39.373,-2.828C-43.367,-3.113 -43.049,-4.722 -43.049,-9.088L-43.049,-43.545L-10.426,-1.787C-10.041,-1.166 -8.904,0.076 -8.055,0.076C-7.355,0.076 -6.643,-1.009 -6.643,-1.4L-6.643,-40.205C-6.643,-44.562 -6.893,-46.281 -2.967,-46.709C-2.621,-46.756 -2.252,-46.799 -1.842,-46.83L0.164,-46.972C0.645,-47.263 0.482,-48.562 0,-48.779" style="fill:rgb(35,64,117);fill-rule:nonzero;"/>
            </g>
            <g transform="matrix(1,0,0,1,740.213,152.401)">
                <path d="M0,-25.691C0,-33.341 -0.158,-34.568 -4.885,-34.929L-6.889,-35.072C-7.371,-35.361 -7.209,-36.66 -6.729,-36.877C-2.723,-36.734 0,-36.66 3.365,-36.66C6.568,-36.66 9.295,-36.734 13.297,-36.877C13.779,-36.66 13.939,-35.361 13.459,-35.072L11.455,-34.929C6.729,-34.568 6.568,-33.341 6.568,-25.691L6.568,0C6.568,7.649 6.729,8.661 11.455,9.166L13.459,9.381C13.939,9.67 13.779,10.971 13.297,11.186C9.295,11.041 6.568,10.971 3.365,10.971C0,10.971 -2.723,11.041 -6.729,11.186C-7.209,10.971 -7.371,9.815 -6.889,9.381L-4.885,9.166C-0.158,8.661 0,7.649 0,0L0,-25.691Z" style="fill:rgb(35,64,117);fill-rule:nonzero;"/>
            </g>
            <g transform="matrix(1,0,0,1,422.489,157.048)">
                <path d="M0,-45.483C6.383,-50.448 14.516,-52.889 23.607,-52.889C28.328,-52.889 34.975,-51.93 39.084,-50.797C40.135,-50.538 40.744,-50.362 41.531,-50.448C41.619,-48.446 42.057,-42.956 42.758,-37.641C42.318,-37.032 41.008,-36.944 40.396,-37.467C39.084,-43.391 35.148,-50.19 22.471,-50.19C9.094,-50.19 -2.273,-41.739 -2.273,-23.7C-2.273,-5.403 9.357,4.705 23.695,4.705C34.975,4.705 39.959,-2.616 41.969,-7.754C42.582,-8.188 43.895,-8.018 44.244,-7.407C43.631,-2.876 41.359,2.872 40.047,4.531C38.998,4.705 37.947,5.054 36.988,5.4C35.063,6.101 28.768,7.406 23.172,7.406C15.303,7.406 7.783,5.837 1.398,1.566C-5.598,-3.225 -11.02,-11.153 -11.02,-22.391C-11.02,-32.065 -6.646,-40.342 0,-45.483" style="fill:rgb(35,64,117);fill-rule:nonzero;"/>
            </g>
            <g transform="matrix(1,0,0,1,515.203,137.464)">
                <path d="M0,4.039C0,-7.867 -5.531,-20.715 -20.006,-20.715C-27.885,-20.715 -38.115,-15.59 -38.115,0.217C-38.115,10.894 -32.658,24.752 -17.73,24.752C-8.641,24.752 0,18.258 0,4.039M-45.693,2.523C-45.693,-11.91 -34.326,-22.951 -18.717,-22.951C-1.213,-22.951 7.578,-10.899 7.578,1.803C7.578,16.381 -4.092,26.99 -18.717,26.99C-35.539,26.99 -45.693,15.514 -45.693,2.523" style="fill:rgb(35,64,117);fill-rule:nonzero;"/>
            </g>
            <g transform="matrix(1,0,0,1,531.513,152.541)">
                <path d="M0,-25.976C0,-33.554 -0.158,-34.71 -5.158,-35.072L-7.145,-35.214C-7.621,-35.503 -7.459,-36.8 -6.986,-37.021C-2.539,-36.874 0.16,-36.802 3.336,-36.802C6.432,-36.802 9.131,-36.874 13.1,-37.017C13.576,-36.8 13.736,-35.503 13.26,-35.214L11.354,-35.072C6.67,-34.71 6.512,-33.554 6.512,-25.976L6.512,-0.861C6.512,3.686 6.75,5.561 8.178,6.932C9.049,7.727 10.559,8.59 16.832,8.59C23.578,8.59 25.246,8.305 26.516,7.655C28.104,6.788 30.168,4.192 31.754,0.508C32.232,0.151 33.74,0.436 33.74,0.944C33.74,1.737 31.516,9.098 30.406,11.045C26.357,10.901 18.814,10.831 10.639,10.831L3.336,10.831C0,10.831 -2.539,10.901 -6.986,11.045C-7.459,10.831 -7.621,9.674 -7.145,9.241L-4.762,9.026C-0.158,8.59 0,7.581 0,0.004L0,-25.976Z" style="fill:rgb(35,64,117);fill-rule:nonzero;"/>
            </g>
            <g transform="matrix(1,0,0,1,701.523,127.312)">
                <path d="M0,24.039C0,26.66 0.166,30.373 1.756,31.978C3.348,33.654 5.859,34.018 8.371,34.018C15.822,34.018 21.514,31.105 21.514,23.822C21.514,18.066 18.166,11.367 4.854,11.367C0.334,11.367 0,11.801 0,13.256L0,24.039ZM0,7.139C0,9.178 0.082,9.326 4.352,9.178C12.891,8.889 17.496,6.703 17.496,-0.145C17.496,-7.283 11.385,-9.979 5.021,-9.979C3.18,-9.979 1.924,-9.832 1.17,-9.543C0.334,-9.32 0,-8.959 0,-7.647L0,7.139ZM-6.865,-2.547C-6.865,-7.938 -7.199,-9.32 -10.969,-9.611L-13.648,-9.832C-14.314,-10.27 -14.232,-11.363 -13.564,-11.654C-9.041,-12.018 -3.35,-12.236 4.436,-12.236C9.709,-12.236 14.732,-11.871 18.5,-10.197C22.1,-8.666 24.861,-5.754 24.861,-1.092C24.861,4.152 21.348,6.848 16.324,8.889C16.324,9.617 16.99,9.834 17.914,9.98C22.436,10.709 29.131,14.351 29.131,22.144C29.131,30.592 21.932,36.275 6.863,36.275C4.436,36.275 0.334,36.057 -3.182,36.057C-6.865,36.057 -9.713,36.199 -12.809,36.275C-13.313,36.057 -13.48,34.891 -12.979,34.455L-11.471,34.238C-7.031,33.582 -6.865,32.779 -6.865,25.135L-6.865,-2.547Z" style="fill:rgb(35,64,117);fill-rule:nonzero;"/>
            </g>
            <g transform="matrix(1,0,0,1,796.913,127.108)">
                <path d="M0,24.93C-0.932,24.93 -1.479,26.996 -1.709,27.532C-4.35,34.26 -8.621,34.416 -15.303,34.416C-21.437,34.416 -24.854,34.338 -24.854,27.303L-24.854,13.994C-24.854,11.395 -24.08,11.395 -20.973,11.395C-18.643,11.395 -14.602,11.395 -11.574,12.084C-9.863,12.467 -9.242,14.76 -8.854,16.979C-8.777,17.438 -8.543,18.278 -7.846,18.278C-7.457,18.278 -6.99,18.123 -6.99,16.903C-7.07,14.455 -7.225,12.159 -7.379,9.711C-7.225,7.573 -7.07,5.278 -6.99,3.135C-6.99,2.524 -7.457,2.373 -7.846,2.373C-8.543,2.373 -8.777,3.213 -8.854,3.67C-9.242,5.891 -9.631,8.719 -11.574,8.95C-14.602,9.328 -18.643,9.254 -20.973,9.254C-24.154,9.254 -24.854,9.254 -24.854,5.659L-24.854,-5.427C-24.854,-6.732 -25.088,-8.412 -23.611,-8.947C-22.371,-9.404 -18.953,-9.404 -17.709,-9.404C-15.068,-9.404 -11.729,-9.404 -9.168,-8.642C-6.604,-7.877 -5.514,-6.5 -4.35,-4.131L-3.186,-1.988C-2.953,-1.453 -2.641,-0.459 -1.941,-0.459C-1.164,-0.459 -1.244,-1.605 -1.244,-2.064L-1.244,-8.642C-1.244,-9.636 -0.855,-11.472 -2.332,-11.472C-8.934,-11.472 -15.455,-11.166 -22.137,-11.166C-26.277,-11.166 -34.697,-11.449 -34.697,-11.449C-35.621,-11.478 -36.598,-11.511 -37.668,-11.549C-38.145,-11.334 -38.307,-10.033 -37.826,-9.744L-35.824,-9.599C-35.443,-9.57 -34.781,-9.537 -34.781,-9.537C-30.746,-9.283 -30.99,-7.463 -30.99,-3.134L-30.99,27.993C-30.99,32.453 -30.748,34.114 -34.764,34.371C-34.764,34.371 -35.475,34.416 -35.889,34.459L-37.891,34.674C-38.373,35.108 -38.211,36.264 -37.73,36.479C-36.66,36.44 -35.008,36.34 -34.867,36.326C-34.014,36.25 -32.699,36.174 -31.924,36.174L-1.555,36.174C-0.932,36.174 -0.779,36.25 -0.701,35.715L0.467,27.608C0.621,26.996 0.775,26.385 0.775,25.774C0.775,25.237 0.543,24.93 0,24.93" style="fill:rgb(35,64,117);fill-rule:nonzero;"/>
            </g>
            <g transform="matrix(1,0,0,1,681.193,117.559)">
                <path d="M0,44.061C-0.4,44.018 -1.148,43.957 -1.148,43.957C-1.969,43.875 -2.703,43.756 -3.289,43.122C-4.299,42.045 -4.215,38.985 -4.215,37.758L-4.215,6.137C-4.215,4.756 -4.551,1.772 -3.541,0.698C-3.035,0.133 -1.982,0.04 -1.045,-0.015L-1.045,-0.019C-0.477,-0.064 -0.463,-0.064 0.037,-0.087L2.041,-0.23C2.52,-0.519 2.359,-1.818 1.879,-2.035C0.809,-2 -0.166,-2.013 -1.09,-1.986L-1.09,-1.98L-9.605,-1.98C-10.533,-1.98 -11.375,-1.98 -11.879,-0.986L-29.23,35.159L-44.559,0.243C-45.066,-0.986 -45.146,-1.98 -46.748,-1.98L-55.613,-1.98C-56.535,-2.007 -57.553,-2 -58.625,-2.035C-59.104,-1.818 -59.268,-0.519 -58.785,-0.23L-56.781,-0.087C-56.369,-0.054 -55.619,-0.003 -55.619,-0.003C-52.297,0.209 -52.09,0.954 -52.393,4.452L-55.002,38.374C-55.23,41.778 -55.418,43.575 -58.984,43.909C-58.984,43.909 -59.74,44.002 -60.152,44.045L-62.156,44.262C-62.635,44.696 -62.477,45.85 -61.994,46.067C-60.939,46.028 -59.063,45.971 -59.063,45.971C-57.254,45.883 -55.412,45.723 -53.57,45.723C-51.584,45.723 -49.594,45.909 -47.604,45.991L-47.604,45.993C-46.68,46.022 -45.705,46.055 -44.637,46.092C-44.154,45.875 -43.996,44.721 -44.475,44.288L-46.479,44.073C-47.004,44.03 -47.594,43.971 -47.594,43.971C-52.744,43.622 -52.627,39.985 -52.307,35.541L-49.863,3.995L-49.275,3.995L-32.684,42.815C-32.516,43.35 -32.262,44.268 -31.42,44.268C-30.66,44.268 -30.408,43.426 -30.156,42.889L-11.461,3.073L-10.869,3.073L-10.869,37.758C-10.869,39.137 -10.701,41.969 -12.131,43.041C-12.881,43.6 -15.313,43.934 -15.313,43.934C-15.648,43.987 -16,44.034 -16.398,44.077L-18.402,44.293C-18.883,44.725 -18.723,45.879 -18.24,46.096C-17.186,46.057 -15.313,46 -15.313,46C-12.6,45.924 -9.84,45.723 -7.08,45.723C-5.096,45.723 -1.209,45.911 -1.209,45.911C-0.283,45.94 0.773,46.041 1.844,46.081C2.324,45.864 2.484,44.709 2.002,44.278L0,44.061Z" style="fill:rgb(35,64,117);fill-rule:nonzero;"/>
            </g>
            <g transform="matrix(1,0,0,1,611.863,137.245)">
                <path d="M0,4.041C0,-7.867 -5.533,-20.713 -20.006,-20.713C-27.885,-20.713 -38.113,-15.588 -38.113,0.217C-38.113,10.896 -32.658,24.754 -17.73,24.754C-8.637,24.754 0,18.258 0,4.041M-45.693,2.527C-45.693,-11.908 -34.328,-22.949 -18.717,-22.949C-1.213,-22.949 7.578,-10.898 7.578,1.803C7.578,16.383 -4.09,26.99 -18.717,26.99C-35.537,26.99 -45.693,15.516 -45.693,2.527" style="fill:rgb(35,64,117);fill-rule:nonzero;"/>
            </g>
            <g transform="matrix(1,0,0,1,820.643,140.699)">
                <path d="M0,-2.747C8.551,-2.747 9.766,-3.058 10.574,-3.122C11.016,-3.184 11.074,-2.995 10.639,-2.497C9.516,-1.311 6.705,-0.249 4.148,0.062C0.965,0.374 -2.559,0.437 -6.803,0.437C-12.295,0.437 -14.418,0.374 -15.104,0.062C-15.539,-0.124 -15.539,-0.311 -15.354,-0.561C-14.979,-1.061 -12.67,-2.809 -12.109,-3.058C-9.549,-2.809 -5.555,-2.747 -0.061,-2.747L0,-2.747Z" style="fill:rgb(35,64,117);fill-rule:nonzero;"/>
            </g>
        </g>
        <g transform="matrix(-1.3439,0,0,0.996068,1396.53,183.062)">
            <rect x="415.397" y="70.22" width="314.664" height="3.815" style="fill:rgb(227,168,43);"/>
        </g>
        <g>
            <g transform="matrix(1,0,0,1,109.59,96.7797)">
                <path d="M0,129.539C44.702,129.539 106.539,154.709 151.407,154.709C183.425,154.709 214.668,146.164 232.451,133.582C233.693,126.193 234.351,118.607 234.351,110.865C234.351,35.735 173.444,-25.17 98.314,-25.17C23.184,-25.17 -37.722,35.735 -37.722,110.865C-37.722,118.518 -37.08,126.018 -35.865,133.326C-30.962,132.418 -14.291,129.539 0,129.539" style="fill:white;fill-rule:nonzero;"/>
            </g>
            <g transform="matrix(1,0,0,1,295.886,172.31)">
                <path d="M0,3.86L5.379,6.09L17.308,-2.23L0,3.86Z" style="fill:rgb(227,168,43);fill-rule:nonzero;"/>
            </g>
            <g transform="matrix(1,0,0,1,95.4546,82.2982)">
                <path d="M0,84.581L-14.139,79.606L-13.43,77.874L2.493,83.183L2.562,83.144L4.663,81.953L5.501,81.428L-11.862,74.042L-11.128,72.226L27.626,87.9L28.904,87.37L-9.531,68.64L-8.674,66.88L32.056,85.836L32.619,85.55L-6.873,63.15L-6.062,61.468L50.967,92.499C51.434,91.636 52.412,90.063 52.914,89.217C31.232,68.831 10.309,53.525 10.309,53.525C10.309,53.525 31.826,67.935 58.382,81.332C59.259,80.237 59.979,79.358 60.916,78.319L12.264,35.487L13.57,34.146L52.837,67.613L16.458,31.182L17.82,29.772L58.664,69.245L20.644,27.046L22.098,25.735L57.238,63.363L25.165,22.951L26.546,21.695L67.658,71.727C68.721,70.81 69.604,70.12 70.716,69.268C58.28,42.356 44.699,20.464 44.699,20.464C44.699,20.464 59.154,41.742 78.657,64.026C79.848,63.355 81.056,62.712 82.29,62.107L82.083,61.973L53.271,4.472L54.984,3.719L78.855,49.457L58.772,2.05L60.563,1.255L83.646,53.153L64.201,-0.216L66.041,-0.887L84.527,47.166L69.927,-2.319L71.68,-2.965L90.9,58.411L90.863,58.573L90.911,58.554C92.189,58.125 93.489,57.747 94.796,57.391C93.333,27.911 88.972,2.693 88.972,2.693C88.972,2.693 94.372,27.689 104.054,55.56C105.402,55.394 106.759,55.253 108.127,55.161L108.084,55.097L108.252,55.097L108.156,54.956L102.982,-9.15L104.852,-9.209L109.85,42.143L108.991,-9.335L110.947,-9.401L112.909,47.365L114.869,-9.402L116.829,-9.335L115.968,42.143L120.967,-9.208L122.836,-9.15L117.662,54.956L117.565,55.097L117.593,55.097L117.579,55.117L117.664,55.117C119.002,55.201 120.329,55.335 121.646,55.493C131.315,27.649 136.706,2.693 136.706,2.693C136.706,2.693 132.358,27.835 130.888,57.261C132.208,57.61 133.514,57.993 134.801,58.415L153.953,-2.748L155.708,-2.101L141.106,47.384L159.594,-0.669L161.432,0.003L141.986,53.371L165.069,1.472L166.862,2.268L146.778,49.676L170.65,3.937L172.362,4.69L143.652,61.985L143.701,62.005C144.884,62.581 146.042,63.196 147.188,63.832C166.607,41.619 180.979,20.464 180.979,20.464C180.979,20.464 167.491,42.206 155.091,68.987C156.199,69.823 157.283,70.687 158.335,71.586L198.964,22.098L200.35,23.355L168.273,63.767L203.416,26.139L204.867,27.451L166.846,69.648L207.69,30.175L209.053,31.585L172.674,68.017L211.941,34.552L213.247,35.89L165.189,78.239L165.217,78.268C166.056,79.203 166.864,80.168 167.657,81.148C194.045,67.805 215.369,53.525 215.369,53.525C215.369,53.525 194.649,68.682 173.08,88.922C173.671,89.908 174.625,91.592 175.17,92.608L231.391,61.997L232.204,63.682L187.325,89.135L234.003,67.412L234.859,69.172L191.381,90.358L192.215,90.649L236.456,72.755L237.191,74.572L196.069,92.063L196.838,92.382L224.24,83.247L228.37,80.364L229.741,81.411L238.758,78.405L239.467,80.135L231.666,82.88L242.937,91.481L246.549,93.495C232.058,32.917 177.566,-12.12 112.548,-12.12C46.388,-12.12 -8.873,34.514 -22.179,96.701C-22.008,96.618 -21.843,96.541 -21.672,96.457L-20.021,95.709L-19.008,95.236L0,84.581Z" style="fill:rgb(227,168,43);fill-rule:nonzero;"/>
            </g>
            <g transform="matrix(1,0,0,1,72.4966,186.474)">
                <path d="M0,46.548C0,46.548 20.325,42.489 37.291,42.489C81.993,42.489 143.83,67.66 188.698,67.66C221.612,67.66 253.714,58.631 271.209,45.467C272.576,37.679 273.292,29.669 273.292,21.489C273.292,10.411 271.977,-0.358 269.507,-10.681L250.802,-21.112L228.855,-5.721L214.091,-11.47C209.093,-8.944 178.257,11.677 178.257,11.677L166.422,3.11L153.724,0.595L136.792,-11.732L117.37,1.602C117.37,1.602 95.701,14.184 94.957,14.184C94.209,14.184 68.813,-5.949 68.813,-5.949L57.112,-18.276C55.119,-17.018 47.16,-13.366 47.16,-13.366L46.751,-13.258L39.049,-15.64L29.696,-20.601L1.286,-7.719C1.115,-7.635 0.95,-7.557 0.779,-7.474C-1.22,1.865 -2.28,11.553 -2.28,21.489C-2.28,30.047 -1.494,38.422 0,46.548" style="fill:rgb(35,64,117);fill-rule:nonzero;"/>
            </g>
        </g>
    </g>
</svg>
