<?xml version="1.0" encoding="UTF-8" standalone="no"?>
<!DOCTYPE svg PUBLIC "-//W3C//DTD SVG 1.1//EN" "http://www.w3.org/Graphics/SVG/1.1/DTD/svg11.dtd">
<svg width="100%" height="100%" viewBox="0 0 825 205" version="1.1" xmlns="http://www.w3.org/2000/svg" xmlns:xlink="http://www.w3.org/1999/xlink" xml:space="preserve" xmlns:serif="http://www.serif.com/" style="fill-rule:evenodd;clip-rule:evenodd;stroke-linejoin:round;stroke-miterlimit:1.41421;">
    <g id="BC-ID" serif:id="BC ID" transform="matrix(1,0,0,1,-62.647,-63.5055)">
        <g transform="matrix(-1,0,0,1,1145.46,182.756)">
            <rect x="415.397" y="70.22" width="314.664" height="3.815" style="fill:rgb(227,168,43);"/>
        </g>
        <g>
            <g transform="matrix(1,0,0,1,431.322,119.662)">
                <path d="M0,28.483C0,31.591 0.191,35.992 2.012,37.892C3.833,39.877 6.708,40.308 9.582,40.308C18.108,40.308 24.623,36.857 24.623,28.225C24.623,21.406 20.791,13.464 5.558,13.464C0.384,13.464 0,13.982 0,15.708L0,28.483ZM0,8.457C0,10.876 0.096,11.047 4.982,10.876C14.754,10.529 20.025,7.939 20.025,-0.174C20.025,-8.633 13.029,-11.827 5.75,-11.827C3.641,-11.827 2.203,-11.654 1.342,-11.309C0.384,-11.05 0,-10.617 0,-9.066L0,8.457ZM-7.856,-3.022C-7.856,-9.409 -8.307,-11.101 -12.618,-11.448L-15.617,-11.654C-16.105,-12.042 -15.967,-13.772 -15.521,-13.812C-10.35,-14.273 -3.832,-14.502 5.078,-14.502C11.114,-14.502 16.863,-14.071 21.176,-12.086C25.295,-10.273 28.457,-6.821 28.457,-1.297C28.457,4.919 24.432,8.113 18.684,10.529C18.684,11.392 19.451,11.652 20.504,11.823C25.678,12.688 33.342,17.003 33.342,26.239C33.342,36.252 25.104,42.985 7.856,42.985C5.078,42.985 0.384,42.725 -3.641,42.725C-7.856,42.725 -11.113,42.9 -14.659,42.985C-15.234,42.725 -15.426,41.345 -14.851,40.826L-13.125,40.567C-8.049,39.79 -7.856,38.841 -7.856,29.778L-7.856,-3.022Z" style="fill:rgb(35,64,117);fill-rule:nonzero;"/>
            </g>
            <g transform="matrix(1,0,0,1,531.258,151.384)">
                <path d="M0,-26.248C0,-34.063 -0.164,-35.316 -4.992,-35.684L-7.039,-35.832C-7.531,-36.127 -7.365,-37.455 -6.875,-37.676C-2.783,-37.529 0,-37.455 3.436,-37.455C6.711,-37.455 9.492,-37.529 13.584,-37.676C14.076,-37.455 14.238,-36.127 13.748,-35.832L11.703,-35.684C6.873,-35.316 6.711,-34.063 6.711,-26.248L6.711,0.001C6.711,7.815 6.873,8.848 11.703,9.365L13.748,9.585C14.238,9.88 14.076,11.206 13.584,11.428C9.492,11.28 6.711,11.206 3.436,11.206C0,11.206 -2.783,11.28 -6.875,11.428C-7.365,11.206 -7.531,10.027 -7.039,9.585L-4.992,9.365C-0.164,8.848 0,7.815 0,0.001L0,-26.248Z" style="fill:rgb(35,64,117);fill-rule:nonzero;"/>
            </g>
            <g transform="matrix(1,0,0,1,576.66,122.703)">
                <path d="M0,28.829C0,36.57 0.152,37.676 4.602,38.045L7.055,38.266C7.514,38.56 7.361,39.886 6.902,40.109C2.531,39.961 -0.076,39.886 -3.145,39.886C-6.211,39.886 -8.895,39.961 -13.801,40.109C-14.262,39.886 -14.416,38.635 -13.801,38.266L-11.041,38.045C-6.67,37.676 -6.289,36.57 -6.289,28.829L-6.289,-4.13C-6.289,-6.415 -6.289,-6.487 -8.588,-6.487L-12.805,-6.487C-16.102,-6.487 -20.318,-6.34 -22.236,-4.645C-24.076,-3.023 -24.844,-1.4 -25.686,0.442C-26.301,0.885 -27.373,0.516 -27.68,-0.074C-26.455,-3.391 -25.303,-8.11 -24.768,-11.059C-24.535,-11.206 -23.539,-11.28 -23.311,-11.059C-22.85,-8.701 -20.318,-8.774 -16.791,-8.774L14.262,-8.774C18.402,-8.774 19.092,-8.921 20.242,-10.838C20.627,-10.985 21.471,-10.911 21.623,-10.618C20.779,-7.593 20.242,-1.622 20.473,0.59C20.166,1.18 18.863,1.18 18.48,0.738C18.25,-1.107 17.713,-3.834 16.562,-4.645C14.799,-5.9 11.887,-6.487 7.668,-6.487L2.225,-6.487C-0.076,-6.487 0,-6.415 0,-3.982L0,28.829Z" style="fill:rgb(35,64,117);fill-rule:nonzero;"/>
            </g>
            <g transform="matrix(1,0,0,1,609.525,151.384)">
                <path d="M0,-26.248C0,-34.063 -0.164,-35.316 -4.992,-35.684L-7.039,-35.832C-7.529,-36.127 -7.365,-37.455 -6.875,-37.676C-2.783,-37.529 0,-37.455 3.438,-37.455C6.711,-37.455 9.492,-37.529 13.584,-37.676C14.076,-37.455 14.24,-36.127 13.75,-35.832L11.701,-35.684C6.873,-35.316 6.711,-34.063 6.711,-26.248L6.711,0.001C6.711,7.815 6.873,8.848 11.701,9.365L13.75,9.585C14.24,9.88 14.076,11.206 13.584,11.428C9.492,11.28 6.711,11.206 3.438,11.206C0,11.206 -2.783,11.28 -6.875,11.428C-7.365,11.206 -7.529,10.027 -7.039,9.585L-4.992,9.365C-0.164,8.848 0,7.815 0,0.001L0,-26.248Z" style="fill:rgb(35,64,117);fill-rule:nonzero;"/>
            </g>
            <g transform="matrix(1,0,0,1,646.199,112.546)">
                <path d="M0,51.021C-7.309,51.021 -11.92,49.104 -13.572,48.294C-14.617,46.671 -15.748,41.437 -15.922,37.971C-15.486,37.455 -14.182,37.308 -13.834,37.75C-12.527,41.51 -8.961,48.734 1.131,48.734C8.439,48.734 12.006,44.68 12.006,40.256C12.006,37.013 11.223,33.4 4.871,29.934L-3.393,25.362C-7.742,22.93 -12.789,18.727 -12.789,12.682C-12.789,5.677 -6.352,0 4.959,0C7.654,0 10.787,0.442 13.049,0.958C14.18,1.253 15.398,1.4 16.094,1.4C16.877,3.172 17.662,7.3 17.662,10.396C17.312,10.839 15.92,11.059 15.486,10.617C14.355,7.079 12.006,2.286 3.654,2.286C-4.873,2.286 -6.699,7.079 -6.699,10.469C-6.699,14.746 -2.523,17.844 0.695,19.539L7.654,23.225C13.137,26.1 18.531,30.376 18.531,37.381C18.531,45.491 11.311,51.021 0,51.021" style="fill:rgb(35,64,117);fill-rule:nonzero;"/>
            </g>
            <g transform="matrix(1,0,0,1,689.988,137.744)">
                <path d="M0,1.032C-3.807,1.032 -3.965,1.179 -3.965,3.391L-3.965,13.788C-3.965,21.529 -3.568,22.562 0.875,23.005L3.174,23.225C3.65,23.52 3.492,24.845 3.016,25.068C-1.268,24.92 -3.965,24.845 -7.061,24.845C-10.473,24.845 -13.17,24.993 -16.264,25.068C-16.738,24.845 -16.898,23.667 -16.422,23.225L-15.074,23.005C-10.629,22.267 -10.473,21.529 -10.473,13.788L-10.473,-12.755C-10.473,-20.497 -11.025,-21.749 -15.152,-22.044L-17.215,-22.192C-17.691,-22.487 -17.533,-23.815 -17.057,-24.036C-13.17,-23.962 -10.473,-23.815 -7.061,-23.815C-3.965,-23.815 -1.268,-23.889 2.143,-24.036C2.619,-23.815 2.777,-22.487 2.303,-22.192L0.793,-22.044C-3.807,-21.602 -3.965,-20.497 -3.965,-12.755L-3.965,-4.277C-3.965,-1.992 -3.807,-1.917 0,-1.917L22.691,-1.917C26.5,-1.917 26.658,-1.992 26.658,-4.277L26.658,-12.755C26.658,-20.497 26.5,-21.602 21.82,-22.044L20.312,-22.192C19.836,-22.487 19.994,-23.815 20.471,-24.036C24.121,-23.889 26.818,-23.815 30.07,-23.815C33.164,-23.815 35.861,-23.889 39.432,-24.036C39.908,-23.815 40.066,-22.487 39.59,-22.192L37.926,-22.044C33.324,-21.602 33.164,-20.497 33.164,-12.755L33.164,13.788C33.164,21.529 33.324,22.488 37.926,23.005L39.83,23.225C40.305,23.52 40.146,24.845 39.672,25.068C35.861,24.92 33.164,24.845 30.07,24.845C26.818,24.845 23.961,24.92 20.471,25.068C19.994,24.845 19.836,23.667 20.312,23.225L21.82,23.005C26.658,22.267 26.658,21.529 26.658,13.788L26.658,3.391C26.658,1.179 26.5,1.032 22.691,1.032L0,1.032Z" style="fill:rgb(35,64,117);fill-rule:nonzero;"/>
            </g>
            <g transform="matrix(1,0,0,1,378.059,225.481)">
                <path d="M0,-46.469C6.521,-51.542 14.829,-54.034 24.12,-54.034C28.943,-54.034 35.731,-53.056 39.931,-51.898C41.003,-51.631 41.628,-51.452 42.432,-51.542C42.521,-49.494 42.968,-43.888 43.682,-38.457C43.236,-37.834 41.896,-37.744 41.271,-38.278C39.931,-44.331 35.911,-51.276 22.958,-51.276C9.29,-51.276 -2.323,-42.64 -2.323,-24.214C-2.323,-5.521 9.558,4.806 24.208,4.806C35.731,4.806 40.824,-2.672 42.878,-7.925C43.504,-8.368 44.845,-8.192 45.201,-7.568C44.577,-2.939 42.253,2.935 40.913,4.628C39.841,4.806 38.77,5.162 37.787,5.516C35.821,6.231 29.39,7.565 23.672,7.565C15.633,7.565 7.951,5.964 1.429,1.6C-5.718,-3.296 -11.256,-11.394 -11.256,-22.877C-11.256,-32.76 -6.789,-41.216 0,-46.469" style="fill:rgb(35,64,117);fill-rule:nonzero;"/>
            </g>
            <g transform="matrix(1,0,0,1,473.596,205.226)">
                <path d="M0,4.129C0,-8.037 -5.65,-21.161 -20.437,-21.161C-28.488,-21.161 -38.938,-15.926 -38.938,0.222C-38.938,11.133 -33.365,25.29 -18.115,25.29C-8.824,25.29 0,18.654 0,4.129M-46.681,2.58C-46.681,-12.166 -35.068,-23.446 -19.12,-23.446C-1.238,-23.446 7.742,-11.134 7.742,1.843C7.742,16.737 -4.18,27.575 -19.12,27.575C-36.306,27.575 -46.681,15.851 -46.681,2.58" style="fill:rgb(35,64,117);fill-rule:nonzero;"/>
            </g>
            <g transform="matrix(1,0,0,1,568.678,214.072)">
                <path d="M0,-12.606C0,-17.177 -0.156,-25.658 -1.486,-27.868C-2.033,-28.753 -3.439,-29.27 -5.393,-29.418L-7.346,-29.565C-7.814,-30.081 -7.66,-31.039 -7.191,-31.335C-4.221,-31.188 -1.328,-31.113 1.719,-31.113C5.002,-31.113 7.113,-31.188 9.926,-31.333C10.551,-30.964 10.473,-30.007 10.082,-29.565L8.205,-29.418C6.252,-29.27 4.766,-28.606 4.299,-27.647C3.205,-25.215 3.205,-16.735 3.205,-12.606L3.205,-4.275C3.205,2.141 2.109,8.923 -2.266,13.346C-5.627,16.812 -11.41,18.729 -17.193,18.729C-22.586,18.729 -27.979,17.77 -31.809,14.674C-35.951,11.431 -37.904,6.048 -37.904,-2.725L-37.904,-20.127C-37.904,-27.794 -38.061,-29.048 -42.592,-29.418L-44.547,-29.565C-45.016,-29.86 -44.861,-31.112 -44.393,-31.335C-40.482,-31.188 -37.826,-31.113 -34.699,-31.113C-31.496,-31.113 -28.916,-31.188 -25.088,-31.333C-24.619,-31.112 -24.461,-29.86 -24.93,-29.565L-26.807,-29.418C-31.34,-29.048 -31.496,-27.794 -31.496,-20.127L-31.496,-4.201C-31.496,7.669 -27.588,15.486 -15.631,15.486C-4.299,15.486 0,7.079 0,-4.126L0,-12.606Z" style="fill:rgb(35,64,117);fill-rule:nonzero;"/>
            </g>
            <g transform="matrix(1,0,0,1,666.6,194.862)">
                <path d="M0,24.575C0,27.256 0.172,31.053 1.812,32.692C3.455,34.405 6.047,34.777 8.637,34.777C16.326,34.777 22.199,31.798 22.199,24.351C22.199,18.468 18.744,11.619 5.01,11.619C0.344,11.619 0,12.063 0,13.554L0,24.575ZM0,7.297C0,9.384 0.086,9.532 4.49,9.384C13.303,9.086 18.053,6.852 18.053,-0.149C18.053,-7.447 11.748,-10.203 5.182,-10.203C3.281,-10.203 1.986,-10.054 1.209,-9.755C0.344,-9.532 0,-9.16 0,-7.82L0,7.297ZM-7.084,-2.606C-7.084,-8.117 -7.43,-9.532 -11.316,-9.829L-14.082,-10.098C-14.396,-10.382 -14.564,-11.874 -13.996,-11.916C-9.33,-12.265 -3.457,-12.51 4.578,-12.51C10.02,-12.51 15.201,-12.138 19.09,-10.427C22.805,-8.862 25.654,-5.883 25.654,-1.116C25.654,4.244 22.025,7.001 16.844,9.086C16.844,9.831 17.533,10.054 18.484,10.203C23.15,10.947 30.061,14.672 30.061,22.638C30.061,31.276 22.631,37.085 7.082,37.085C4.578,37.085 0.344,36.862 -3.283,36.862C-7.084,36.862 -10.021,37.01 -13.217,37.085C-13.736,36.862 -13.91,35.671 -13.391,35.225L-11.836,35.001C-7.256,34.331 -7.084,33.511 -7.084,25.693L-7.084,-2.606Z" style="fill:rgb(35,64,117);fill-rule:nonzero;"/>
            </g>
            <g transform="matrix(1,0,0,1,488.92,139.247)">
                <path d="M0,-2.505C-1.486,-2.505 -4.457,-1.952 -4.457,-3.925L-4.457,-18.068C-4.457,-23.597 -4.281,-24.388 2.359,-24.388C10.135,-24.388 14.941,-20.439 14.941,-13.171C14.941,-10.01 13.805,-7.087 10.922,-5.112C7.602,-2.82 4.018,-2.505 0,-2.505M29.828,21.723L27.781,21.546C27.367,21.502 27,21.45 26.65,21.392C23.656,20.862 22.457,18.196 21.047,15.722L13.971,3.397C12.748,1.343 11.438,-1.422 8.641,-1.816C15.893,-2.686 22.447,-6.872 22.447,-14.061C22.447,-22.358 14.232,-26.07 5.932,-26.07C0.951,-26.07 -3.588,-25.935 -8.656,-25.935C-11.451,-25.935 -14.777,-26.07 -17.572,-26.07C-19.125,-26.07 -19.145,-25.754 -19.145,-24.885C-19.145,-23.603 -18.604,-23.962 -16.959,-23.869C-11.055,-23.537 -11.281,-22.436 -11.281,-17.38L-11.281,14.933C-11.281,19.557 -10.881,20.938 -15.736,21.373C-15.736,21.373 -16.48,21.45 -16.902,21.495L-18.959,21.706C-19.451,22.147 -19.285,23.327 -18.795,23.548C-17.701,23.508 -15.762,23.432 -15.762,23.432C-13.074,23.352 -10.387,23.147 -7.699,23.147C-4.996,23.147 -2.41,23.355 0.248,23.433L0.248,23.435C1.191,23.465 2.188,23.498 3.279,23.537C3.771,23.316 3.936,22.137 3.443,21.695L1.373,21.499C0.951,21.454 0.225,21.389 0.225,21.389C-4.678,21.057 -4.377,19.674 -4.377,14.933L-4.377,2.766C-4.377,2.055 -4.467,0.16 -3.941,-0.394C-3.504,-0.87 -2.719,-0.79 -2.02,-0.79C4.623,-0.79 4.533,-0.157 7.68,5.373L16.242,20.778C16.941,21.964 17.465,23.464 19.215,23.464L26.652,23.464C27.59,23.494 28.576,23.525 29.664,23.565C30.154,23.344 30.318,22.164 29.828,21.723" style="fill:rgb(35,64,117);fill-rule:nonzero;"/>
            </g>
            <g transform="matrix(1,0,0,1,490.523,220.737)">
                <path d="M0,-26.541C0,-34.282 -0.162,-35.464 -5.27,-35.832L-7.299,-35.979C-7.785,-36.274 -7.623,-37.6 -7.137,-37.823C-2.594,-37.675 0.162,-37.602 3.406,-37.602C6.57,-37.602 9.326,-37.675 13.383,-37.82C13.869,-37.6 14.031,-36.274 13.545,-35.979L11.598,-35.832C6.814,-35.464 6.65,-34.282 6.65,-26.541L6.65,-0.882C6.65,3.763 6.895,5.68 8.354,7.08C9.246,7.89 10.787,8.776 17.193,8.776C24.088,8.776 25.791,8.48 27.09,7.818C28.711,6.932 30.82,4.279 32.441,0.518C32.93,0.151 34.469,0.443 34.469,0.96C34.469,1.772 32.197,9.293 31.062,11.282C26.928,11.135 19.221,11.061 10.867,11.061L3.406,11.061C0,11.061 -2.594,11.135 -7.137,11.282C-7.623,11.061 -7.785,9.881 -7.299,9.439L-4.865,9.219C-0.162,8.776 0,7.743 0,0.003L0,-26.541Z" style="fill:rgb(35,64,117);fill-rule:nonzero;"/>
            </g>
            <g transform="matrix(1,0,0,1,707.787,220.59)">
                <path d="M0,-26.248C0,-34.062 -0.158,-35.317 -4.855,-35.686L-6.848,-35.832C-7.324,-36.128 -7.166,-37.453 -6.686,-37.677C-2.707,-37.528 0,-37.455 3.346,-37.455C6.531,-37.455 9.238,-37.528 13.221,-37.674C13.697,-37.453 13.857,-36.128 13.379,-35.832L11.387,-35.686C6.689,-35.317 6.531,-34.062 6.531,-26.248L6.531,0.002C6.531,7.817 6.689,8.849 11.387,9.365L13.379,9.586C13.857,9.881 13.697,11.207 13.221,11.429C9.238,11.281 6.531,11.207 3.346,11.207C0,11.207 -2.707,11.281 -6.686,11.429C-7.166,11.207 -7.324,10.027 -6.848,9.586L-4.855,9.365C-0.158,8.849 0,7.817 0,0.002L0,-26.248Z" style="fill:rgb(35,64,117);fill-rule:nonzero;"/>
            </g>
            <g transform="matrix(1,0,0,1,644.158,184.926)">
                <path d="M0,45.012C-0.408,44.968 -1.172,44.908 -1.172,44.908C-2.01,44.824 -2.764,44.703 -3.359,44.053C-4.393,42.955 -4.307,39.827 -4.307,38.575L-4.307,6.268C-4.307,4.859 -4.65,1.809 -3.617,0.712C-3.1,0.135 -2.025,0.038 -1.068,-0.016L-1.068,-0.02C-0.486,-0.064 -0.473,-0.066 0.037,-0.091L2.084,-0.237C2.574,-0.533 2.41,-1.859 1.92,-2.081C0.826,-2.043 -0.168,-2.057 -1.113,-2.028L-1.113,-2.024L-9.813,-2.024C-10.76,-2.024 -11.621,-2.024 -12.137,-1.007L-29.863,35.916L-45.521,0.245C-46.039,-1.007 -46.123,-2.024 -47.76,-2.024L-56.814,-2.024C-57.758,-2.053 -58.799,-2.043 -59.893,-2.081C-60.383,-1.859 -60.549,-0.533 -60.057,-0.237L-58.01,-0.091C-57.588,-0.057 -56.824,-0.005 -56.824,-0.005C-53.428,0.213 -53.217,0.972 -53.525,4.547L-56.193,39.2C-56.426,42.68 -56.617,44.519 -60.262,44.858C-60.262,44.858 -61.031,44.954 -61.455,44.999L-63.5,45.221C-63.992,45.661 -63.828,46.841 -63.336,47.062C-62.258,47.022 -60.34,46.966 -60.34,46.966C-58.492,46.875 -56.611,46.711 -54.729,46.711C-52.699,46.711 -50.666,46.903 -48.633,46.984L-48.633,46.988C-47.691,47.017 -46.695,47.05 -45.602,47.088C-45.109,46.867 -44.945,45.688 -45.438,45.246L-47.482,45.025C-48.021,44.983 -48.625,44.923 -48.625,44.923C-53.885,44.563 -53.768,40.85 -53.439,36.308L-50.943,4.079L-50.34,4.079L-33.389,43.739C-33.219,44.286 -32.961,45.225 -32.1,45.225C-31.324,45.225 -31.066,44.366 -30.809,43.816L-11.707,3.137L-11.104,3.137L-11.104,38.575C-11.104,39.983 -10.932,42.878 -12.395,43.972C-13.158,44.541 -15.645,44.883 -15.645,44.883C-15.986,44.937 -16.346,44.987 -16.754,45.03L-18.799,45.25C-19.291,45.692 -19.127,46.871 -18.635,47.093C-17.557,47.054 -15.645,46.994 -15.645,46.994C-12.871,46.917 -10.053,46.711 -7.232,46.711C-5.205,46.711 -1.234,46.904 -1.234,46.904C-0.289,46.933 0.789,47.036 1.883,47.075C2.375,46.854 2.539,45.675 2.047,45.234L0,45.012Z" style="fill:rgb(35,64,117);fill-rule:nonzero;"/>
            </g>
            <g transform="matrix(1,0,0,1,755.639,202.306)">
                <path d="M0,9.582L-9.574,9.582C-9.908,9.582 -12.572,9.895 -12.572,9.114C-12.572,8.879 -12.406,8.41 -12.322,8.177L-6.576,-6.051C-6.41,-6.442 -5.828,-8.397 -5.162,-8.397C-4.662,-8.397 -3.996,-6.364 -3.83,-6.051L1.832,7.237C1.832,7.394 2.414,8.645 2.414,8.958C2.414,9.818 0.5,9.582 0,9.582M21.494,27.832L21.219,27.611C20.811,27.568 20.447,27.519 20.105,27.462C16.916,26.75 15.674,22.91 14.496,20.174L-1.912,-18.66C-2.076,-19.126 -2.4,-20.131 -3.051,-20.131C-3.945,-20.131 -4.187,-19.048 -4.432,-18.431L-20.107,20.329C-20.678,21.799 -22.139,25.36 -23.195,26.44C-24.004,27.269 -25.059,27.428 -26.182,27.544C-26.182,27.544 -27.066,27.628 -27.488,27.674L-29.416,27.87C-29.906,28.311 -29.742,29.491 -29.252,29.713C-28.158,29.674 -26.219,29.603 -26.219,29.603C-24.074,29.574 -21.93,29.303 -19.783,29.303C-17.977,29.303 -16.172,29.495 -14.369,29.575C-14.369,29.575 -12.43,29.644 -11.336,29.686C-10.846,29.463 -10.682,28.283 -11.172,27.842L-13.219,27.62C-13.625,27.578 -14.328,27.512 -14.328,27.512C-16.215,27.303 -18.564,26.966 -18.564,24.892C-18.564,23.5 -17.914,21.875 -17.428,20.637L-14.992,14.837C-13.771,12.053 -14.26,11.741 -11.012,11.741L0.037,11.741C3.936,11.741 3.365,11.741 5.074,15.689L7.672,21.565C8.078,22.573 8.809,24.274 8.809,25.36C8.809,27.303 6.686,27.431 4.703,27.599C4.703,27.599 4.045,27.654 3.475,27.698L1.506,27.841C1.016,28.282 1.18,29.462 1.672,29.684C2.764,29.644 4.703,29.565 4.703,29.565C7.014,29.481 9.34,29.303 11.57,29.303C14.416,29.303 17.262,29.496 20.105,29.577L20.105,29.574C21.039,29.603 20.25,29.636 21.33,29.675C21.82,29.453 21.984,28.273 21.494,27.832" style="fill:rgb(35,64,117);fill-rule:nonzero;"/>
            </g>
        </g>
        <g>
            <g transform="matrix(1,0,0,1,109.59,96.7797)">
                <path d="M0,129.539C44.702,129.539 106.539,154.709 151.407,154.709C183.425,154.709 214.668,146.164 232.451,133.582C233.693,126.193 234.351,118.607 234.351,110.865C234.351,35.735 173.444,-25.17 98.314,-25.17C23.184,-25.17 -37.722,35.735 -37.722,110.865C-37.722,118.518 -37.08,126.018 -35.865,133.326C-30.962,132.418 -14.291,129.539 0,129.539" style="fill:white;fill-rule:nonzero;"/>
            </g>
            <g transform="matrix(1,0,0,1,295.886,172.31)">
                <path d="M0,3.86L5.379,6.09L17.308,-2.23L0,3.86Z" style="fill:rgb(227,168,43);fill-rule:nonzero;"/>
            </g>
            <g transform="matrix(1,0,0,1,95.4546,82.2982)">
                <path d="M0,84.581L-14.139,79.606L-13.43,77.874L2.493,83.183L2.562,83.144L4.663,81.953L5.501,81.428L-11.862,74.042L-11.128,72.226L27.626,87.9L28.904,87.37L-9.531,68.64L-8.674,66.88L32.056,85.836L32.619,85.55L-6.873,63.15L-6.062,61.468L50.967,92.499C51.434,91.636 52.412,90.063 52.914,89.217C31.232,68.831 10.309,53.525 10.309,53.525C10.309,53.525 31.826,67.935 58.382,81.332C59.259,80.237 59.979,79.358 60.916,78.319L12.264,35.487L13.57,34.146L52.837,67.613L16.458,31.182L17.82,29.772L58.664,69.245L20.644,27.046L22.098,25.735L57.238,63.363L25.165,22.951L26.546,21.695L67.658,71.727C68.721,70.81 69.604,70.12 70.716,69.268C58.28,42.356 44.699,20.464 44.699,20.464C44.699,20.464 59.154,41.742 78.657,64.026C79.848,63.355 81.056,62.712 82.29,62.107L82.083,61.973L53.271,4.472L54.984,3.719L78.855,49.457L58.772,2.05L60.563,1.255L83.646,53.153L64.201,-0.216L66.041,-0.887L84.527,47.166L69.927,-2.319L71.68,-2.965L90.9,58.411L90.863,58.573L90.911,58.554C92.189,58.125 93.489,57.747 94.796,57.391C93.333,27.911 88.972,2.693 88.972,2.693C88.972,2.693 94.372,27.689 104.054,55.56C105.402,55.394 106.759,55.253 108.127,55.161L108.084,55.097L108.252,55.097L108.156,54.956L102.982,-9.15L104.852,-9.209L109.85,42.143L108.991,-9.335L110.947,-9.401L112.909,47.365L114.869,-9.402L116.829,-9.335L115.968,42.143L120.967,-9.208L122.836,-9.15L117.662,54.956L117.565,55.097L117.593,55.097L117.579,55.117L117.664,55.117C119.002,55.201 120.329,55.335 121.646,55.493C131.315,27.649 136.706,2.693 136.706,2.693C136.706,2.693 132.358,27.835 130.888,57.261C132.208,57.61 133.514,57.993 134.801,58.415L153.953,-2.748L155.708,-2.101L141.106,47.384L159.594,-0.669L161.432,0.003L141.986,53.371L165.069,1.472L166.862,2.268L146.778,49.676L170.65,3.937L172.362,4.69L143.652,61.985L143.701,62.005C144.884,62.581 146.042,63.196 147.188,63.832C166.607,41.619 180.979,20.464 180.979,20.464C180.979,20.464 167.491,42.206 155.091,68.987C156.199,69.823 157.283,70.687 158.335,71.586L198.964,22.098L200.35,23.355L168.273,63.767L203.416,26.139L204.867,27.451L166.846,69.648L207.69,30.175L209.053,31.585L172.674,68.017L211.941,34.552L213.247,35.89L165.189,78.239L165.217,78.268C166.056,79.203 166.864,80.168 167.657,81.148C194.045,67.805 215.369,53.525 215.369,53.525C215.369,53.525 194.649,68.682 173.08,88.922C173.671,89.908 174.625,91.592 175.17,92.608L231.391,61.997L232.204,63.682L187.325,89.135L234.003,67.412L234.859,69.172L191.381,90.358L192.215,90.649L236.456,72.755L237.191,74.572L196.069,92.063L196.838,92.382L224.24,83.247L228.37,80.364L229.741,81.411L238.758,78.405L239.467,80.135L231.666,82.88L242.937,91.481L246.549,93.495C232.058,32.917 177.566,-12.12 112.548,-12.12C46.388,-12.12 -8.873,34.514 -22.179,96.701C-22.008,96.618 -21.843,96.541 -21.672,96.457L-20.021,95.709L-19.008,95.236L0,84.581Z" style="fill:rgb(227,168,43);fill-rule:nonzero;"/>
            </g>
            <g transform="matrix(1,0,0,1,72.4966,186.474)">
                <path d="M0,46.548C0,46.548 20.325,42.489 37.291,42.489C81.993,42.489 143.83,67.66 188.698,67.66C221.612,67.66 253.714,58.631 271.209,45.467C272.576,37.679 273.292,29.669 273.292,21.489C273.292,10.411 271.977,-0.358 269.507,-10.681L250.802,-21.112L228.855,-5.721L214.091,-11.47C209.093,-8.944 178.257,11.677 178.257,11.677L166.422,3.11L153.724,0.595L136.792,-11.732L117.37,1.602C117.37,1.602 95.701,14.184 94.957,14.184C94.209,14.184 68.813,-5.949 68.813,-5.949L57.112,-18.276C55.119,-17.018 47.16,-13.366 47.16,-13.366L46.751,-13.258L39.049,-15.64L29.696,-20.601L1.286,-7.719C1.115,-7.635 0.95,-7.557 0.779,-7.474C-1.22,1.865 -2.28,11.553 -2.28,21.489C-2.28,30.047 -1.494,38.422 0,46.548" style="fill:rgb(35,64,117);fill-rule:nonzero;"/>
            </g>
        </g>
    </g>
</svg>
