<?xml version="1.0" encoding="utf-8"?>
<!-- Generator: Adobe Illustrator 22.0.1, SVG Export Plug-In . SVG Version: 6.00 Build 0)  -->
<svg version="1.1" id="Layer_1" xmlns="http://www.w3.org/2000/svg" xmlns:xlink="http://www.w3.org/1999/xlink" x="0px" y="0px"
	 viewBox="0 0 5512.2 2839.1" style="enable-background:new 0 0 5512.2 2839.1;" xml:space="preserve">
<style type="text/css">
	.st0{fill:#384261;}
	.st1{fill:#FFB287;}
	.st2{fill:#F58D6C;}
	.st3{fill:#FFC69B;}
	.st4{fill-rule:evenodd;clip-rule:evenodd;fill:#DCE1E4;}
	.st5{fill-rule:evenodd;clip-rule:evenodd;fill:#B3BDC8;}
	.st6{fill-rule:evenodd;clip-rule:evenodd;fill:#384261;}
	.st7{fill:#1C283E;}
	.st8{fill-rule:evenodd;clip-rule:evenodd;fill:#1C283E;}
	.st9{fill-rule:evenodd;clip-rule:evenodd;fill:#628E9D;}
	.st10{fill-rule:evenodd;clip-rule:evenodd;fill:#6C98A7;}
	.st11{fill-rule:evenodd;clip-rule:evenodd;fill:#8AB6C5;}
	.st12{fill:#FFFFFF;}
	.st13{fill:#DCE1E4;}
	.st14{fill-rule:evenodd;clip-rule:evenodd;fill:#7E8E9E;}
	.st15{fill-rule:evenodd;clip-rule:evenodd;fill:#8E6134;}
	.st16{fill:#D2E4D4;}
	.st17{fill:#8BA382;}
	.st18{fill:#5E796C;}
	.st19{fill:none;stroke:#0E6057;stroke-width:11.88;stroke-linecap:round;stroke-miterlimit:10;}
	.st20{fill:#B4C6B6;}
	.st21{fill:#AABCAC;}
	.st22{fill:#4A6558;}
	.st23{fill-rule:evenodd;clip-rule:evenodd;fill:#FFB287;}
	.st24{fill:#FFA87D;}
	.st25{fill-rule:evenodd;clip-rule:evenodd;fill:#FFC69B;}
	.st26{fill-rule:evenodd;clip-rule:evenodd;fill:#FFDCBC;}
	.st27{fill-rule:evenodd;clip-rule:evenodd;fill:#F58D6C;}
	.st28{fill-rule:evenodd;clip-rule:evenodd;fill:#FDDAB5;}
	.st29{fill-rule:evenodd;clip-rule:evenodd;fill:#FDDFC0;}
	.st30{fill:#9ECAD9;}
	.st31{fill:none;stroke:#384261;stroke-width:15.6816;stroke-miterlimit:10;}
	.st32{fill:#7E8E9E;}
	.st33{font-family:'Colt-Bold';}
	.st34{font-size:85.536px;}
	.st35{fill:#EF6667;}
	.st36{fill:#242E4D;}
	.st37{fill:#DB5253;}
	.st38{fill:#8E6134;}
	.st39{fill-rule:evenodd;clip-rule:evenodd;fill:#B47943;}
	.st40{fill:none;stroke:#1C283E;stroke-width:11.88;stroke-linecap:round;stroke-miterlimit:10;}
	.st41{fill:#B3BDC8;}
	.st42{fill:#D2D7DA;}
	.st43{fill:#D6BB67;}
	.st44{fill:#EACF7B;}
	.st45{fill:#6C98A7;}
	.st46{fill:#4E7A89;}
	.st47{fill:#6A7493;}
	.st48{fill:#171728;stroke:#4C4C65;stroke-width:0;stroke-linecap:round;stroke-linejoin:round;}
	.st49{fill:#6A6A8D;}
	.st50{fill:#628E9D;}
	.st51{fill:#171728;}
	.st52{fill:#E0A865;}
	.st53{clip-path:url(#SVGID_2_);}
	.st54{fill:#54291C;}
	.st55{fill:#693629;}
	.st56{fill:#F49D73;}
	.st57{fill:#EA9369;}
	.st58{fill:#F9B086;}
	.st59{fill:none;stroke:#422B27;stroke-width:19.6875;stroke-linecap:round;stroke-miterlimit:10;}
	.st60{fill:none;stroke:#F38486;stroke-width:24.0975;stroke-linecap:round;stroke-miterlimit:10;}
	.st61{fill:none;stroke:#E1775A;stroke-width:13.7812;stroke-linecap:round;stroke-miterlimit:10;}
	.st62{fill:#422B27;}
	.st63{fill:#F49369;}
	.st64{fill:#8AB6C5;}
	.st65{fill:#FEE38F;}
</style>
<g>
	<g>
		<path class="st0" d="M3740.9,2302h606.6c188.6,0,342-153.4,342-342V997.3h-36V1960c0,168.7-137.3,306-306,306h-606.6V2302z"/>
	</g>
	<g>
		<polygon class="st0" points="3502.9,2284 3768.2,2167.8 3768.2,2258.9 3768.2,2309.3 3768.2,2400.3 		"/>
	</g>
</g>
<g>
	<g>
		<path class="st0" d="M1827.2,2302h-666.6c-188.6,0-342-153.4-342-342V997.3h36V1960c0,168.7,137.3,306,306,306h666.6V2302z"/>
	</g>
	<g>
		<polygon class="st0" points="2065.2,2284 1799.8,2167.8 1799.8,2258.9 1799.8,2309.3 1799.8,2400.3 		"/>
	</g>
</g>
<g>
	<path class="st1" d="M3490.4,607.4l94.2-180.1l-84-138.7c3.2-3.1,6.5-6.1,9.7-9.2c-1.5-20.1-2.5-24.3-2.6-24.2
		c-49.8-30.8-58.6-94.2-58.2-94.6c-0.5,0.5-9.1-79.8,28-110c36.1-29.3,46,18.2,46.3,18c5.3,66.3,44.8,95.6,44.5,96
		c42.2,49.8,64.1,81.4,75.3,101.5c0,0,28.5,42.6,36.6,88.2l0,0c0.6,2.5,1.1,5.3,1.5,8.3l0-0.1c0,0,7.7,47.1,20.2,52.2l36.5,20.6
		L3490.4,607.4z"/>
	<path class="st2" d="M3528.6,287.8c-63.2,2.8,101.4,31.7,144.5,39.1c-11.5-33.9-29.5-60.8-29.5-60.8
		c-11.2-20.1-33.2-51.7-75.3-101.5c0.1-0.1-2.2-1.9-5.8-5.6c24.3,44.2,41.6,94.1,41.6,94.1S3601,284.5,3528.6,287.8z"/>
	<path class="st3" d="M3505.7,109.6c5.3,6.6,19.1,11.7,31.4,11.8c-6.3-13.9-11.6-31.5-13.3-52.8c-0.1,0.1-2.1-8.9-7.2-16.6
		C3505.8,66.2,3499.6,94.5,3505.7,109.6z"/>
	<path class="st1" d="M3328.2,274.5c-22.8,11.3-38.9,67.5,6.6,107.9l0,0c-10.2,20.4-22.7,63.1,22.8,103.5c0,0.1,0,0.2,0.1,0.4
		c-1.9,4.1-29.8,67.1,19.5,95.7c0,0.1,0,0.1,0,0.2c-0.4,3.4-10.5,95.3,77.2,95.8l24-1.8c81.4-4.5,84.4-1.6,166.4-9.1
		c24.4-2.4,47.8-18.4,68.1-39.9l0,0c0,0,9-8.3,19.7-10.7l0,0l106.2-3.9l-10.2-281.8l-92.1,5.7l0.3-0.4c-8.6-1.1-18.4-9-22.2-12.2
		c-0.5-0.4-0.9-0.9-1.5-1.3c0,0-0.2-0.2-0.2-0.2l0,0c-23.2-19.3-61.9-33.9-84.7-35c-81.9-3.2-228.8-13.6-230.1-13.5
		C3387.4,274.2,3345.3,270.3,3328.2,274.5z"/>
	<path class="st2" d="M3454.4,677.9l24-1.8c81.4-4.5,84.4-1.6,166.4-9.1c24.4-2.4,47.8-18.4,68.1-39.9l0,0c0,0,9-8.3,19.7-10.6
		l68.2,1.4l1.9-34.1c-72.8-10.3-132.7,30.9-157.8,45.9c-25.1,15-147.6,12.1-164.9,12.6c-14.3,0.4-65.7-0.3-97.8-12.9
		C3390.3,653.4,3409.5,677.6,3454.4,677.9z"/>
	<polygon class="st4" points="3779.5,665.8 3822.5,293.3 4016.9,315.8 3973.8,688.3 3779.5,665.8 	"/>
	<polygon class="st5" points="3779.5,665.8 3787.3,598.2 3981.7,620.6 3973.8,688.3 3779.5,665.8 	"/>
	<polygon class="st6" points="3896.8,717.9 3948.5,269.3 4715.2,361.1 4699.1,667.9 4601.6,799.3 3896.8,717.9 	"/>
	<polygon class="st7" points="4244.3,304.7 4244.3,758.2 4461.7,783.3 4461.7,330.7 	"/>
	<polygon class="st8" points="3896.8,717.9 3909,612.3 4674.8,700.7 4601.6,799.3 3896.8,717.9 	"/>
	<path class="st9" d="M3824.1,635.9c1.3-11,11.3-19,22.4-17.8c11,1.3,19,11.3,17.7,22.4c-1.3,11-11.3,19-22.4,17.7
		C3830.8,657,3822.8,647,3824.1,635.9L3824.1,635.9z"/>
</g>
<g>
	<g>
		<rect x="4463.9" y="244.7" class="st7" width="56.6" height="41.1"/>
		<rect x="4653" y="244.7" class="st7" width="56.6" height="41.1"/>
	</g>
	<rect x="4286.7" y="298.6" class="st6" width="600.2" height="1105"/>
	<polygon class="st8" points="4886.8,298.6 4886.8,291.7 4886.8,330.6 4286.7,330.6 4286.7,298.6 	"/>
	<rect x="4276.4" y="278.5" class="st6" width="620.8" height="37.7"/>
	<g>
		<g>
			<rect x="4661.5" y="381.9" class="st8" width="59.9" height="960.6"/>
			<rect x="4670.2" y="381.9" class="st10" width="51.2" height="960.6"/>
			<rect x="4680.3" y="399.4" class="st11" width="41.1" height="943"/>
		</g>
		<g>
			<rect x="4766.2" y="381.9" class="st8" width="59.9" height="960.6"/>
			<rect x="4774.9" y="381.9" class="st10" width="51.2" height="960.6"/>
			<rect x="4785" y="399.4" class="st11" width="41.1" height="943"/>
		</g>
		<g>
			<rect x="4556.8" y="381.9" class="st8" width="59.9" height="960.6"/>
			<rect x="4565.5" y="381.9" class="st10" width="51.2" height="960.6"/>
			<rect x="4575.6" y="399.4" class="st11" width="41.1" height="943"/>
		</g>
		<g>
			<rect x="4452.1" y="381.9" class="st8" width="59.9" height="960.6"/>
			<rect x="4460.8" y="381.9" class="st10" width="51.2" height="960.6"/>
			<rect x="4470.9" y="399.4" class="st11" width="41.1" height="943"/>
		</g>
		<g>
			<rect x="4347.4" y="381.9" class="st8" width="59.9" height="960.6"/>
			<rect x="4356.1" y="381.9" class="st10" width="51.2" height="960.6"/>
			<rect x="4366.2" y="399.4" class="st11" width="41.1" height="943"/>
		</g>
	</g>
	<g>
		<rect x="4325" y="118.8" class="st6" width="523.5" height="135.1"/>
		<g>
			<g>
				<path class="st7" d="M4423,205.1c0,10.4-8.9,18.7-22.5,18.7c-15.6,0-23.8-9.4-23.8-9.4l8-8.6c0,0,6.9,7,16.5,7
					c4.7,0,7.9-2.7,7.9-6.1c0-4-3-6.9-14.2-11.3c-8.6-3.4-14.9-8.9-14.9-17.9c0-10.2,8.6-17.7,21.7-17.7c13.5,0,21.1,8,21.1,8
					l-8,8.6c0,0-5.2-5.6-12.9-5.6c-5.3,0-7.9,2.9-7.9,5.6c0,3.7,2.5,5.9,11.2,9.3C4414.5,189.3,4423,195,4423,205.1z"/>
				<path class="st7" d="M4434.1,222.9v-62.4h45.9v11.9h-32.3v12.9h27.8v11.1h-27.8v14.8h33.1v11.8H4434.1z"/>
				<path class="st7" d="M4492.1,160.6h27.9c13.4,0,22.5,8.3,22.5,20.2c0,8.9-5.1,15.9-13.1,18.8l15.8,23.3h-15.8l-14-21.5h-9.6
					v21.5h-13.6V160.6z M4505.7,172.1V191h12.6c6.7,0,10.6-3.9,10.6-9.4c0-5.5-3.9-9.4-10.6-9.4H4505.7z"/>
				<path class="st7" d="M4545.5,160.6h15.3l16.7,44.8l16.7-44.8h14.6l-24.9,62.4h-13.5L4545.5,160.6z"/>
				<path class="st7" d="M4616.3,160.6h14v62.4h-14V160.6z"/>
				<path class="st7" d="M4674.9,159.7c16.5,0,24,10.1,24,10.1l-10,8.7c0,0-4.5-6.2-14.2-6.2c-11.1,0-19.2,8.5-19.2,19.5
					c0,11.1,8.1,19.6,19.2,19.6c10.2,0,15.1-7.2,15.1-7.2l9.6,8.6c0,0-7.8,11.1-25,11.1c-18.6,0-32.5-13.8-32.5-31.8
					C4641.9,174,4656.3,159.7,4674.9,159.7z"/>
				<path class="st7" d="M4708.7,222.9v-62.4h45.9v11.9h-32.3v12.9h27.8v11.1h-27.8v14.8h33.1v11.8H4708.7z"/>
				<path class="st7" d="M4807.6,205.1c0,10.4-8.9,18.7-22.5,18.7c-15.6,0-23.8-9.4-23.8-9.4l8-8.6c0,0,6.9,7,16.5,7
					c4.7,0,7.9-2.7,7.9-6.1c0-4-3-6.9-14.2-11.3c-8.6-3.4-14.9-8.9-14.9-17.9c0-10.2,8.6-17.7,21.7-17.7c13.5,0,21.1,8,21.1,8
					l-8,8.6c0,0-5.2-5.6-12.9-5.6c-5.3,0-7.9,2.9-7.9,5.6c0,3.7,2.5,5.9,11.2,9.3C4799.2,189.3,4807.6,195,4807.6,205.1z"/>
			</g>
			<g>
				<path class="st12" d="M4417.6,199.7c0,10.4-8.9,18.7-22.5,18.7c-15.6,0-23.8-9.4-23.8-9.4l8-8.6c0,0,6.9,7,16.5,7
					c4.7,0,7.9-2.7,7.9-6.1c0-4-3-6.9-14.2-11.3c-8.6-3.4-14.9-8.9-14.9-17.9c0-10.2,8.6-17.7,21.7-17.7c13.5,0,21.1,8,21.1,8
					l-8,8.6c0,0-5.2-5.6-12.9-5.6c-5.3,0-7.9,2.9-7.9,5.6c0,3.7,2.5,5.9,11.2,9.3C4409.1,183.9,4417.6,189.6,4417.6,199.7z"/>
				<path class="st12" d="M4428.7,217.5v-62.4h45.9V167h-32.3v12.9h27.8V191h-27.8v14.8h33.1v11.8H4428.7z"/>
				<path class="st12" d="M4486.6,155.2h27.9c13.4,0,22.5,8.3,22.5,20.2c0,8.9-5.1,15.9-13.1,18.8l15.8,23.3h-15.8l-14-21.5h-9.6
					v21.5h-13.6V155.2z M4500.3,166.7v18.9h12.6c6.7,0,10.6-3.9,10.6-9.4c0-5.5-3.9-9.4-10.6-9.4H4500.3z"/>
				<path class="st12" d="M4540.1,155.2h15.3l16.7,44.8l16.7-44.8h14.6l-24.9,62.4H4565L4540.1,155.2z"/>
				<path class="st12" d="M4610.9,155.2h14v62.4h-14V155.2z"/>
				<path class="st12" d="M4669.5,154.3c16.5,0,24,10.1,24,10.1l-10,8.7c0,0-4.5-6.2-14.2-6.2c-11.1,0-19.2,8.5-19.2,19.5
					c0,11.1,8.1,19.6,19.2,19.6c10.2,0,15.1-7.2,15.1-7.2l9.6,8.6c0,0-7.8,11.1-25,11.1c-18.6,0-32.5-13.8-32.5-31.8
					C4636.5,168.6,4650.9,154.3,4669.5,154.3z"/>
				<path class="st12" d="M4703.3,217.5v-62.4h45.9V167H4717v12.9h27.8V191H4717v14.8h33.1v11.8H4703.3z"/>
				<path class="st12" d="M4802.2,199.7c0,10.4-8.9,18.7-22.5,18.7c-15.6,0-23.8-9.4-23.8-9.4l8-8.6c0,0,6.9,7,16.5,7
					c4.7,0,7.9-2.7,7.9-6.1c0-4-3-6.9-14.2-11.3c-8.6-3.4-14.9-8.9-14.9-17.9c0-10.2,8.6-17.7,21.7-17.7c13.5,0,21.1,8,21.1,8
					l-8,8.6c0,0-5.2-5.6-12.9-5.6c-5.3,0-7.9,2.9-7.9,5.6c0,3.7,2.5,5.9,11.2,9.3C4793.8,183.9,4802.2,189.6,4802.2,199.7z"/>
			</g>
		</g>
	</g>
</g>
<g>
	<rect x="4690.3" y="655.6" class="st13" width="670.6" height="140.7"/>
	<g>
		<path class="st0" d="M4749.4,736.7V759H4736v-66.2h20c13.7,0,23,9.4,23,21.8c0,12.7-9.4,22-23.3,22H4749.4z M4749.4,704.3v21.3
			h5.6c6.5,0,10.8-4.4,10.8-10.6s-4.2-10.7-10.7-10.7H4749.4z"/>
		<path class="st0" d="M4816.8,692.8h13.2V738c0,13.4-9.2,21.9-21.8,21.9c-12.8,0-21.6-8.2-21.6-21.6v-45.5h13.5v45.6
			c0,6.1,3.2,9.6,8.3,9.6c5.2,0,8.4-3.5,8.4-9.6V692.8z"/>
		<path class="st0" d="M4840.9,692.8h23.7c11.6,0,18.8,7.1,18.8,16.8c0,6.5-3.3,11.8-8.9,14.7c6.4,2.8,10.3,8.8,10.3,16.1
			c0,10.5-8.1,18.5-20.4,18.5h-23.5V692.8z M4854.3,720.1h7.2c5.3,0,8.6-3.6,8.6-8.5c0-5-3.2-8.4-8.4-8.4h-7.4V720.1z M4854.3,748.6
			h7.8c5.8,0,9.5-4.1,9.5-9.5c0-5.4-3.6-9.3-9.4-9.3h-7.8V748.6z"/>
		<path class="st0" d="M4894.3,692.8h13.4v54h21.1V759h-34.5V692.8z"/>
		<path class="st0" d="M4936.4,692.8h13.8V759h-13.8V692.8z"/>
		<path class="st0" d="M4991.2,734.6h12.9v3.4c0,13.4-9,21.9-21.5,21.9c-12.8,0-21.6-8.2-21.6-21.6v-24.6c0-13.4,9.3-21.8,21.9-21.8
			c12.5,0,21.2,8.1,21.2,21.5v2.7h-12.9v-2.8c0-6-3.2-9.6-8.4-9.6c-5.1,0-8.3,3.6-8.3,9.6v25c0,6.1,3.2,9.6,8.3,9.6
			c5.2,0,8.4-3.5,8.4-9.6V734.6z"/>
		<path class="st0" d="M5036.7,709.5c0-10.5,8.7-17.6,19.5-17.6c16.5,0,20.1,14.4,20.1,14.4l-10.9,4.3c0,0-2.3-7.6-9-7.6
			c-3.6,0-6.4,2.3-6.4,5.8c0,4.5,3.5,7.4,10.1,11.3c8.4,5.1,15.4,11.4,15.4,21c0,11.9-9,18.8-20.4,18.8c-17.1,0-21.5-16.4-21.5-16.4
			l10.9-4.3c0,0,3.4,9.6,10.6,9.6c4.3,0,7.2-2.7,7.2-6.8c0-5-4-7.9-11.2-12.3C5042.9,724.7,5036.7,718.1,5036.7,709.5z"/>
		<path class="st0" d="M5130.9,759h-14l-3.9-14.1h-18.2L5091,759h-13.2l20.3-66.2h12.7L5130.9,759z M5097.3,734.9h13.2l-6.6-23.8
			L5097.3,734.9z"/>
		<path class="st0" d="M5150,733.8V759h-13.4v-66.2h35.4v11.8h-22v17.7h18.2v11.4H5150z"/>
		<path class="st0" d="M5179.6,759v-66.2h35.9v11.8H5193v14.7h18.7v11.1H5193v16.7h23V759H5179.6z"/>
		<path class="st0" d="M5247.1,704.9V759h-13.4v-54.1h-13.9v-12.1h41.1v12.1H5247.1z"/>
		<path class="st0" d="M5282.8,734.4l-19.1-41.6h14.9l11.2,28.2l11.2-28.2h14.2l-19.1,41.6V759h-13.3V734.4z"/>
	</g>
</g>
<g>
	<rect x="4609.3" y="837" class="st4" width="832.7" height="863.4"/>
	<rect x="4582.3" y="785.7" class="st4" width="886.7" height="51.3"/>
	<rect x="4609.3" y="837" class="st14" width="832.7" height="18.5"/>
	<g>
		<g>
			<rect x="4656.8" y="890" class="st14" width="102.6" height="158.2"/>
			<rect x="4664.9" y="890" class="st8" width="102.6" height="158.2"/>
			<rect x="4673.1" y="898.1" class="st0" width="94.5" height="150.1"/>
		</g>
		<g>
			<rect x="4813.6" y="890" class="st14" width="102.6" height="158.2"/>
			<rect x="4821.7" y="890" class="st8" width="102.6" height="158.2"/>
			<rect x="4829.8" y="898.1" class="st0" width="94.5" height="150.1"/>
		</g>
		<g>
			<rect x="4970.3" y="890" class="st14" width="102.6" height="158.2"/>
			<rect x="4978.4" y="890" class="st8" width="102.6" height="158.2"/>
			<rect x="4986.5" y="898.1" class="st0" width="94.5" height="150.1"/>
		</g>
		<g>
			<rect x="5127" y="890" class="st14" width="102.6" height="158.2"/>
			<rect x="5135.1" y="890" class="st8" width="102.6" height="158.2"/>
			<rect x="5143.2" y="898.1" class="st0" width="94.5" height="150.1"/>
		</g>
		<g>
			<rect x="5283.7" y="890" class="st14" width="102.6" height="158.2"/>
			<rect x="5291.8" y="890" class="st8" width="102.6" height="158.2"/>
			<rect x="5300" y="898.1" class="st0" width="94.5" height="150.1"/>
		</g>
	</g>
	<g>
		<g>
			<rect x="4656.8" y="1084.5" class="st14" width="102.6" height="158.2"/>
			<rect x="4664.9" y="1084.5" class="st8" width="102.6" height="158.2"/>
			<rect x="4673.1" y="1092.6" class="st0" width="94.5" height="150.1"/>
		</g>
		<g>
			<rect x="4813.6" y="1084.5" class="st14" width="102.6" height="158.2"/>
			<rect x="4821.7" y="1084.5" class="st8" width="102.6" height="158.2"/>
			<rect x="4829.8" y="1092.6" class="st0" width="94.5" height="150.1"/>
		</g>
		<g>
			<rect x="4970.3" y="1084.5" class="st14" width="102.6" height="158.2"/>
			<rect x="4978.4" y="1084.5" class="st8" width="102.6" height="158.2"/>
			<rect x="4986.5" y="1092.6" class="st0" width="94.5" height="150.1"/>
		</g>
		<g>
			<rect x="5127" y="1084.5" class="st14" width="102.6" height="158.2"/>
			<rect x="5135.1" y="1084.5" class="st8" width="102.6" height="158.2"/>
			<rect x="5143.2" y="1092.6" class="st0" width="94.5" height="150.1"/>
		</g>
		<g>
			<rect x="5283.7" y="1084.5" class="st14" width="102.6" height="158.2"/>
			<rect x="5291.8" y="1084.5" class="st8" width="102.6" height="158.2"/>
			<rect x="5300" y="1092.6" class="st0" width="94.5" height="150.1"/>
		</g>
	</g>
	<g>
		<g>
			<rect x="4656.8" y="1279.1" class="st15" width="102.6" height="158.2"/>
			<rect x="4664.9" y="1279.1" class="st8" width="102.6" height="158.2"/>
			<rect x="4673.1" y="1287.2" class="st0" width="94.5" height="150.1"/>
		</g>
		<g>
			<rect x="4813.6" y="1279.1" class="st14" width="102.6" height="158.2"/>
			<rect x="4821.7" y="1279.1" class="st8" width="102.6" height="158.2"/>
			<rect x="4829.8" y="1287.2" class="st0" width="94.5" height="150.1"/>
		</g>
		<g>
			<rect x="4970.3" y="1279.1" class="st14" width="102.6" height="158.2"/>
			<rect x="4978.4" y="1279.1" class="st8" width="102.6" height="158.2"/>
			<rect x="4986.5" y="1287.2" class="st0" width="94.5" height="150.1"/>
		</g>
		<g>
			<rect x="5127" y="1279.1" class="st14" width="102.6" height="158.2"/>
			<rect x="5135.1" y="1279.1" class="st8" width="102.6" height="158.2"/>
			<rect x="5143.2" y="1287.2" class="st0" width="94.5" height="150.1"/>
		</g>
		<g>
			<rect x="5283.7" y="1279.1" class="st14" width="102.6" height="158.2"/>
			<rect x="5291.8" y="1279.1" class="st8" width="102.6" height="158.2"/>
			<rect x="5300" y="1287.2" class="st0" width="94.5" height="150.1"/>
		</g>
	</g>
	<g>
		<g>
			<rect x="4656.8" y="1473.6" class="st15" width="102.6" height="158.2"/>
			<rect x="4664.9" y="1473.6" class="st8" width="102.6" height="158.2"/>
			<rect x="4673.1" y="1481.7" class="st0" width="94.5" height="150.1"/>
		</g>
		<g>
			<rect x="4813.6" y="1473.6" class="st14" width="102.6" height="158.2"/>
			<rect x="4821.7" y="1473.6" class="st8" width="102.6" height="158.2"/>
			<rect x="4829.8" y="1481.7" class="st0" width="94.5" height="150.1"/>
		</g>
		<g>
			<rect x="4958.3" y="1503.7" class="st14" width="126.6" height="212.3"/>
			<rect x="4966.4" y="1503.7" class="st8" width="126.6" height="212.3"/>
			<rect x="4974.5" y="1511.8" class="st0" width="118.5" height="204.2"/>
		</g>
		<g>
			<rect x="5127" y="1473.6" class="st14" width="102.6" height="158.2"/>
			<rect x="5135.1" y="1473.6" class="st8" width="102.6" height="158.2"/>
			<rect x="5143.2" y="1481.7" class="st0" width="94.5" height="150.1"/>
		</g>
		<g>
			<rect x="5283.7" y="1473.6" class="st14" width="102.6" height="158.2"/>
			<rect x="5291.8" y="1473.6" class="st8" width="102.6" height="158.2"/>
			<rect x="5300" y="1481.7" class="st0" width="94.5" height="150.1"/>
		</g>
	</g>
</g>
<rect x="4145.5" y="1310.6" class="st16" width="579.9" height="406.4"/>
<g>
	<path class="st17" d="M4575.7,1383.9c0-7-5.7-12.7-12.7-12.7H4524c-7,0-12.7,5.7-12.7,12.7c0,6,4.2,11,9.8,12.3v199.5h-5.7v47.4
		h56.3v-47.4h-5.7v-199.5C4571.6,1394.9,4575.7,1389.8,4575.7,1383.9z"/>
	<path class="st17" d="M4683.8,1383.9c0-7-5.7-12.7-12.7-12.7H4632c-7,0-12.7,5.7-12.7,12.7c0,6,4.2,11,9.8,12.3v199.5h-5.7v47.4
		h56.3v-47.4h-5.7v-199.5C4679.6,1394.9,4683.8,1389.8,4683.8,1383.9z"/>
	<path class="st17" d="M4467.7,1383.9c0-7-5.7-12.7-12.7-12.7h-39.1c-7,0-12.7,5.7-12.7,12.7c0,6,4.2,11,9.8,12.3v199.5h-5.7v47.4
		h56.3v-47.4h-5.7v-199.5C4463.5,1394.9,4467.7,1389.8,4467.7,1383.9z"/>
	<path class="st17" d="M4359.6,1383.9c0-7-5.7-12.7-12.7-12.7h-39.1c-7,0-12.7,5.7-12.7,12.7c0,6,4.2,11,9.8,12.3v199.5h-5.7v47.4
		h56.3v-47.4h-5.7v-199.5C4355.4,1394.9,4359.6,1389.8,4359.6,1383.9z"/>
	<path class="st17" d="M4251.5,1383.9c0-7-5.7-12.7-12.7-12.7h-39.1c-7,0-12.7,5.7-12.7,12.7c0,6,4.2,11,9.8,12.3v199.5h-5.7v47.4
		h56.3v-47.4h-5.7v-199.5C4247.3,1394.9,4251.5,1389.8,4251.5,1383.9z"/>
</g>
<rect x="4171.1" y="1628.1" class="st18" width="528.6" height="63.2"/>
<rect x="4145.5" y="1660.5" class="st18" width="579.9" height="63.2"/>
<path class="st19" d="M4637.5,1137.7"/>
<rect x="4082.2" y="1692.8" class="st0" width="1430" height="241.4"/>
<g>
	<path class="st12" d="M4457.4,1753.5l29.3,87.5h0.7l29.2-87.5h27.4l-42.1,120.1h-29.7l-41.9-120.1H4457.4z"/>
	<path class="st12" d="M4641.3,1775.1h-56v26.8h51.5v21.6h-51.5v28.4h57.4v21.6H4560v-120.1h81.4V1775.1z"/>
	<path class="st12" d="M4660.2,1753.5h44.3c20.3,0,30.6,3.1,37.6,10.8c5.9,6.7,8.8,16,8.8,29.7c0,12.8-2.3,21.4-7.6,27.9
		c-2.9,3.4-6.5,6.1-10.8,8.1l22.3,43.6h-28.1l-19.6-39.2h-21.4v39.2h-25.6V1753.5z M4685.4,1812.5h15.3c9.2,0,18.2,0,21.2-2.2
		c3.2-2.2,3.8-6.7,3.8-16.4c0-9.7-0.5-14.2-3.8-16.6c-2.9-2.2-12.2-2.2-21.2-2.2h-15.3V1812.5z"/>
	<path class="st12" d="M4799.9,1873.5h-25.6v-120.1h25.6V1873.5z"/>
	<path class="st12" d="M4903.9,1775.1h-54v29.2h50.4v21.6h-50.4v47.7h-25.6v-120.1h79.6V1775.1z"/>
	<path class="st12" d="M4944.8,1873.5h-25.6v-120.1h25.6V1873.5z"/>
	<path class="st12" d="M5050.6,1775.1h-56v26.8h51.5v21.6h-51.5v28.4h57.4v21.6h-82.8v-120.1h81.4V1775.1z"/>
	<path class="st12" d="M5069.5,1753.5h44.3c20.3,0,30.6,3.1,37.6,10.8c5.9,6.7,8.8,16,8.8,29.7c0,12.8-2.3,21.4-7.6,27.9
		c-2.9,3.4-6.5,6.1-10.8,8.1l22.3,43.6h-28.1l-19.6-39.2h-21.4v39.2h-25.6V1753.5z M5094.7,1812.5h15.3c9.2,0,18.2,0,21.2-2.2
		c3.2-2.2,3.8-6.7,3.8-16.4c0-9.7-0.5-14.2-3.8-16.6c-2.9-2.2-12.2-2.2-21.2-2.2h-15.3V1812.5z"/>
</g>
<polygon class="st18" points="4435.4,1051.4 4145.5,1235 4145.5,1287.4 4145.5,1373.9 4725.4,1373.9 4725.4,1287.4 4725.4,1235 "/>
<polygon class="st20" points="4435.4,1092.9 4183.7,1252.3 4687.1,1252.3 "/>
<polygon class="st21" points="4435.4,1092.9 4183.7,1252.3 4216.2,1252.3 4451.6,1103.2 "/>
<g>
	<path class="st22" d="M4309.1,1295.1v16.2l-6.2,6.2l6.2,6.2v17.2l-9.6,9.6h-89v-12.7h14v-39.4h-14v-12.7h89L4309.1,1295.1z
		 M4240.1,1311.1h53.5v-12.9h-53.5V1311.1z M4293.6,1323.7h-53.5v13.9h53.5V1323.7z"/>
	<path class="st22" d="M4435.3,1337.6v12.7H4391v-12.4h13.8l-4.9-6.9h-45.4l-4.9,6.9h13.9v12.4h-43.9v-12.7h12.1l30-39.8h-16.6
		v-12.2h39.4l39,52.1H4435.3z M4391.3,1319.1l-14.2-19.8l-14.3,19.8H4391.3z"/>
	<path class="st22" d="M4560.4,1298.2h-14.1v52.2h-16.2v-0.1l-0.1,0.1l-59-47.9v35.3h15.6v12.6h-44.8v-12.6h14v-39.5h-14v-12.6h30.8
		l58.5,47.5v-34.9h-15.6v-12.6h44.8V1298.2z"/>
	<path class="st22" d="M4676.5,1337.6v12.7h-48v-12.2h15.7l-25.8-18.5l-19.3,8.5v9.5h12.7v12.7h-42.3v-12.7h14v-39.4h-14v-12.7h42.3
		v12.7h-12.7v20.2l46.7-20.8h-14.7v-12.2h43.6v12.7h-9.4l-34.5,16.6l34.7,22.8H4676.5z"/>
</g>
<g>
	<path class="st12" d="M4301,1289.7v16.2l-6.2,6.2l6.2,6.2v17.2l-9.6,9.6h-89v-12.7h14v-39.4h-14v-12.7h89L4301,1289.7z
		 M4232,1305.7h53.5v-12.9H4232V1305.7z M4285.5,1318.3H4232v13.9h53.5V1318.3z"/>
	<path class="st12" d="M4427.2,1332.2v12.7h-44.3v-12.4h13.8l-4.9-6.9h-45.4l-4.9,6.9h13.9v12.4h-43.9v-12.7h12.1l30-39.8h-16.6
		v-12.2h39.4l39,52.1H4427.2z M4383.2,1313.7l-14.2-19.8l-14.3,19.8H4383.2z"/>
	<path class="st12" d="M4552.3,1292.8h-14.1v52.2H4522v-0.1l-0.1,0.1l-59-47.9v35.3h15.6v12.6h-44.8v-12.6h14v-39.5h-14v-12.6h30.8
		l58.5,47.5v-34.9h-15.6v-12.6h44.8V1292.8z"/>
	<path class="st12" d="M4668.4,1332.2v12.7h-48v-12.2h15.7l-25.8-18.5l-19.3,8.5v9.5h12.7v12.7h-42.3v-12.7h14v-39.4h-14v-12.7h42.3
		v12.7H4591v20.2l46.7-20.8h-14.7v-12.2h43.6v12.7h-9.4l-34.5,16.6l34.7,22.8H4668.4z"/>
</g>
<g>
	<path class="st23" d="M1239.3,400.2l15.9-49.4l73.6-140.8c3.9-6.6,9.4-11.7,15.7-15c2.9-1.6,6.1-2.9,9.4-3.8l205.8-53.5
		c12.9,49.3-7.2,84.9-54,97.1l-17.8,4.6l0,0l-98.1,25.5l-115.5,196.7L1239.3,400.2L1239.3,400.2z"/>
	<path class="st24" d="M1487.8,239.4L1487.8,239.4l17.8-4.6c25.4-6.6,43-20.2,51.6-39.1l-121.8-0.9c-3.5,0-6.9,0.4-10.1,1.2
		c-7,1.6-13.6,5.1-19,10.5l-116.1,118.8l-19.5,41.8l17.8,68.3l2.5-2.5l98.7-168L1487.8,239.4z"/>
	<path class="st25" d="M1490.1,155.8l60-15.6c-1.2,18.5-12.8,31.6-33.4,37l-19.7,5.1L1490.1,155.8L1490.1,155.8z"/>
	<path class="st26" d="M1490.1,155.8l60-15.6c0,0.2,0,0.4,0,0.5c-6.5,11.1-18,19.1-33.9,23.3l-22.4,5.8L1490.1,155.8L1490.1,155.8z"
		/>
	<path class="st27" d="M1389.7,264.9l-121.2,206.3l-25.4-14.9l114.9-195.7l0,0l21.4-9.9l142.7-45.8c29.9-10.1,38.9-39.4,37.5-67
		c12.7,49.2-7.4,84.6-54.1,96.8l-17.8,4.6l0,0L1389.7,264.9L1389.7,264.9z"/>
	<path class="st23" d="M1271.7,376.1l-3.5-43.9l139.2-116.7c5.4-5.4,12.1-8.8,19-10.5c3.2-0.8,6.6-1.2,10.1-1.2l212.6,1.6
		c-0.3,51-29,80.2-77.3,79.8l-18.4-0.1l0,0l-101.3-0.8l-162.5,160.1L1271.7,376.1L1271.7,376.1z"/>
	<path class="st25" d="M1577.2,204.9l62,0.5c-5.9,17.6-20.6,27.2-41.8,27.1l-20.4-0.2L1577.2,204.9L1577.2,204.9z"/>
	<path class="st26" d="M1577.2,204.9l62,0.5c-0.1,0.2-0.1,0.3-0.2,0.5c-9.1,9-22.3,13.8-38.8,13.7l-23.1-0.2L1577.2,204.9
		L1577.2,204.9z"/>
	<path class="st27" d="M1452,284.3l-170.5,167.9l4.5-118l149.2-74.6l160.2,1.2c31.5-2,47.8-28,53.6-55
		c-0.5,50.8-29.1,79.8-77.3,79.4l-18.4-0.1l0,0L1452,284.3L1452,284.3z"/>
	<path class="st23" d="M823.9,542.4l353.4-55.4l81.1-142.3c5-9.9,14.1-17.7,25.7-20.8l222.3-55.4c7.4-1.9,14.9-1.6,21.7,0.5
		c3.2,0.9,6.3,2.2,9.3,4l183.3,107.7c-25.8,44-65.2,54.9-106.9,30.4l-15.8-9.3l0,0l-87.4-51.3l-102.4,26.6l-25.8,194.4
		c-4.6,34.9-66.3,82.7-109.1,98l-390,101.4L823.9,542.4L823.9,542.4z"/>
	<path class="st28" d="M1666.4,349.3l53.4,31.4c-13.9,12.3-31.4,13.3-49.7,2.6l-17.6-10.3L1666.4,349.3L1666.4,349.3z"/>
	<path class="st29" d="M1666.4,349.3l53.4,31.4c-0.1,0.1-0.3,0.2-0.4,0.3c-12.4,3.3-26.2,0.8-40.4-7.6l-19.9-11.7L1666.4,349.3
		L1666.4,349.3z"/>
	<path class="st27" d="M1510.6,350.5l-102.4,26.6l-24.2,181.8l-29-11.7l52.7-200.4l83.5-21.7l0,0l17.2-4.5l138.2,81.1
		c28.3,14,55.4-0.4,73.9-20.8c-25.8,43.7-65.1,54.6-106.7,30.1l-15.8-9.3l0,0L1510.6,350.5L1510.6,350.5z"/>
	
		<rect x="1472.7" y="121.6" transform="matrix(1 -6.300346e-03 6.300346e-03 1 -2.3602 11.7855)" class="st30" width="793.3" height="517.8"/>
	<g>
		<line class="st31" x1="1545.3" y1="307.3" x2="2168" y2="303.4"/>
		<line class="st31" x1="1545.5" y1="346.5" x2="2030.9" y2="343.5"/>
		<line class="st31" x1="1546.3" y1="471.4" x2="1835.5" y2="469.5"/>
		<g>
			<path class="st32" d="M1788.4,532.3c-10.6,0.1-20.9-1-30.8-4.6c-8.6,9.1-24.1,11.3-38.6,11.4c-8.5,0.1-16.7-0.6-22.8-1
				c-1.4-0.1-4-0.6-4-2.3c0-0.7,0.2-1.4,0.2-2c0-4.5-5.8-6.1-14.2-6c-19.8,0.1-54.1,9.2-60.9,9.2c-8.6,0.1-9.6-7.9-9.7-14.7
				c-12.9,3.7-36.2,9.4-49.9,9.5c-6.5,0-10.8-1.2-10.8-4.5c0-3,2.9-7.5,10.3-7.5c2.2,0,3.9,0.5,3.9,1.8c0,0.5-0.6,1.1-0.6,1.7
				c0,0.5,1.3,0.5,3.1,0.5c7.2,0,24.7-2.4,26-2.8c7.3-2,14.6-3.9,21.7-6.7c0.7-0.3,3.3-1,5.5-1c1.8,0,3.4,0.4,3.4,1.9
				c0.1,9.8,5.6,12.7,12.6,12.7c9.1-0.1,21.1-5,29.1-6.9c8.4-2,16.8-3.2,25.4-3.3c2,0,4.2,0.1,6.2,0.2c2.9,0.2,10.5,2.1,11.6,5.8
				c1.8,6.3,8.6,8.6,16.4,8.6c11.8-0.1,25.9-5.6,28.3-10.7c1.1-2.3,4.8-3.6,7.8-3.7c1.2,0,2.4,0.2,3.1,0.6c10.1,5,21.2,6.5,32.5,6.5
				c15.4-0.1,31.3-3.2,45.9-4.6c0.5,0,0.9-0.1,1.3-0.1c2.7,0,3.8,0.9,3.8,2.2c0,2-2.9,4.8-6.7,5.2
				C1821.8,529.2,1804.9,532.2,1788.4,532.3z"/>
		</g>
		<text transform="matrix(1 -6.300001e-03 6.300001e-03 1 1520.9755 249.0589)" class="st0 st33 st34">PERMIT</text>
		<polygon class="st35" points="2106.3,398.2 2124,415.6 2147.4,407.3 2155.8,430.7 2180.4,433.3 2177.9,458 2198.9,471.1 
			2185.9,492.3 2199.2,513.2 2178.3,526.6 2181.2,551.2 2156.6,554.2 2148.5,577.7 2125,569.7 2107.5,587.3 2089.8,569.9 
			2066.4,578.2 2058,554.9 2033.3,552.2 2035.9,527.5 2014.9,514.4 2027.9,493.3 2014.6,472.3 2035.5,458.9 2032.6,434.3 
			2057.2,431.3 2065.3,407.8 2088.8,415.8 		"/>
	</g>
	<path class="st23" d="M1633.3,498.2L1391,570.6l-65-19.6l-8.3-7l46.8-75.4l18.7-4.9l226-58.7c25.6-6.7,52.1,8.9,58.7,34.5l0,0
		C1674.5,465.1,1658.9,491.5,1633.3,498.2L1633.3,498.2z"/>
	<path class="st27" d="M876,742.6l399.1-103.7c37-9.6,70.5-51.3,101.1-83.4c11.6-12.2,24.5-18.2,49.2-24.7l240.5-62.5
		c-4.5,17.4-18,32-36.6,36.8l-189.6,57.3c-60.3,16.1-82.4,90.6-164.4,106.5l-392,101.9L876,742.6L876,742.6z"/>
	<path class="st25" d="M1658.2,442L1658.2,442c-5.2-19.9-26.5-34.4-45.5-26.7l-21.1,8.4c-45.9,18.4-31.7,72.9,17.3,66.7l22.5-2.9
		C1651.8,484.9,1663.3,461.8,1658.2,442L1658.2,442z"/>
	<path class="st1" d="M1608.9,490.4l22.5-2.9c10.1-1.3,18-7.6,22.8-16.1l-66.9,17.4C1593.5,490.7,1600.7,491.4,1608.9,490.4z"/>
	<polygon class="st4" points="1234.1,755.6 1139.8,392.6 950.4,441.9 1044.8,804.8 1234.1,755.6 	"/>
	<polygon class="st4" points="1234.1,755.6 1217,689.6 1027.6,738.8 1044.8,804.8 1234.1,755.6 	"/>
	<polygon class="st6" points="1125.2,823.4 1011.7,386.4 265.1,583.8 323.7,885.3 438.5,1001.9 1125.2,823.4 	"/>
	<polygon class="st36" points="438.5,1001.9 872.8,889 872.8,423.1 272.6,581.8 272.6,622 323.7,885.3 	"/>
	<polygon class="st8" points="1125.2,823.4 1098.4,720.5 352.4,914.4 438.5,1001.9 1125.2,823.4 	"/>
	<path class="st9" d="M1185.8,732.1c-2.8-10.8-13.9-17.3-24.6-14.5c-10.8,2.8-17.3,13.9-14.5,24.6c2.8,10.8,13.9,17.3,24.6,14.5
		C1182.1,754,1188.6,742.9,1185.8,732.1L1185.8,732.1z"/>
</g>
<g>
	<rect x="200.5" y="286.3" class="st6" width="600.2" height="1186.1"/>
	<g>
		<polygon class="st0" points="235.1,472.7 242.5,510.9 242.5,470.7 		"/>
		<polygon class="st0" points="408.5,890.8 293.7,774.2 242.5,510.9 242.5,1472.4 842.7,1472.4 842.7,777.9 		"/>
	</g>
	<polygon class="st8" points="800.7,286.3 800.7,279.4 800.7,318.3 200.5,318.3 200.5,286.3 	"/>
	<rect x="190.2" y="266.2" class="st6" width="620.8" height="37.7"/>
	<g>
		<g>
			<g>
				<path class="st0" d="M346.7,383.8l-1.9-30.5c-0.2-0.7-1.5-0.7-1.5,0c-0.1,6.6-11.7,1.1-15.8,0.1c-35.8-8.2-59.9,20.6-59.9,44.5
					c0,30.9,20.5,47.8,46.8,47.8c21,0,31.6-13.4,35-27.9c0.4-1.8-1.6-1.4-2.1,0c-6.3,20.2-22.1,25.3-29.9,25.2
					c-16.9-0.2-32.7-13.9-33.3-45.1c-0.7-39.7,44.1-65.7,61.2-14.6C345.6,384.4,346.4,384.7,346.7,383.8"/>
				<path class="st0" d="M369.6,442.9c7.7,1,14.5-6,14.5-12.8v-16.6C351.3,425.6,361.5,442.4,369.6,442.9 M361.3,388.7
					c9.3-3.9,34.4-2.7,34.4,8.8v35.2c0,9.6,9.5,12.9,12.2,6.5c0.9-0.9,2.3-0.2,1.6,1.2c-1.7,6.8-18.5,7.9-24.4-1.2
					c-32.3,23.5-52.9-22.8-14.3-23.5c12.1-1.8,13.4-8.8,13.4-13.6c0-12.1-6.3-13.2-10.1-13.2c-4,0-7.3,1.2-9.5,7.4
					C361.2,408.7,342.5,397.6,361.3,388.7z"/>
			</g>
			<path class="st0" d="M426.5,387.5l-15.7,2.1c-1,0.2-1,0.7,0.9,1.2c3.4,0.1,5.6,2.4,5.6,7.4v36.7c0,4.4-6.2,8.2-7.4,8.8
				c-2.9,1.2,1.5,1,1.5,1H437c0.9,0,3.5,0.2,0.1-1.3c-3.9-1.5-8.2-4.6-8.2-8.4c0-3.8,0-27.5,0-27.5c0-11.6,7.6-17.9,15-17.9
				c7.8,0,14.3,1.7,14.3,17.8v27.7c0,4-5.2,7.7-8,8.7c-1.8,0.5-2.6,1.1-1,1.1h27.4c1.5,0.1,2.1-0.4,0.7-0.7c-6.6-2.6-7.4-7.4-7.4-9
				v-32.2c0-18.4-17.7-16-23.9-16c-7.8,0.1-16.1,5-16.9,7.2C428.8,388,428.1,387.4,426.5,387.5"/>
			<g>
				<path class="st0" d="M564.2,442.9c9.7,0,16.2-3.8,16.2-26.4c0-21.6-6.5-26.8-16.2-26.8s-17.6,12.6-17.6,27
					C546.6,431.2,554.5,442.9,564.2,442.9 M580,440.1c-2.7,4.6-9.3,5.7-17.4,5.7c-15.5,0-28.1-11.9-28.1-28.3
					c0-14.5,8.2-30.8,29-30.8c18.8,0,18.6,12.5,18.6,2.1v-18.4c0-9.5-3.8-12.3-6.7-13.2c-4.3-1.5-9.8-1.7-1-1.7l16.3-0.4
					c-1,0.2,1.1,0.2,1.1,1.7v71.9c0,5,1.8,12.7,9.9,14.9c0.7,0.1,1.6,0.6,0.7,0.9l-17.8,1.9c-2.6,0.2-3.7-1-4.7-6"/>
				<path class="st0" d="M498.3,442.9c7.7,1,14.5-6,14.5-12.8v-16.6C480,425.6,490.2,442.4,498.3,442.9 M490,388.6
					c9.3-3.9,34.4-2.7,34.4,8.8v35.2c0,9.6,9.5,12.9,12.2,6.5c0.9-0.9,2.3-0.2,1.6,1.2c-1.7,6.8-18.5,7.9-24.4-1.2
					c-32.3,23.5-52.9-22.8-14.3-23.5c12.1-1.8,13.4-8.8,13.4-13.6c0-12.1-6.3-13.2-10.1-13.2c-4,0-7.3,1.2-9.5,7.4
					C489.9,408.6,471.2,397.5,490,388.6z"/>
				<path class="st0" d="M622.1,443c7.7,1,14.5-6,14.5-12.8v-16.6C603.8,425.7,614,442.5,622.1,443 M613.8,388.8
					c9.3-3.9,34.4-2.7,34.4,8.8v35.2c0,9.6,9.5,12.9,12.2,6.5c0.9-0.9,2.3-0.2,1.6,1.2c-1.7,6.8-18.5,7.9-24.4-1.2
					c-32.3,23.5-52.9-22.8-14.3-23.5c12.1-1.8,13.4-8.8,13.4-13.7c0-12.1-6.3-13.2-10.1-13.2c-4,0-7.3,1.2-9.5,7.4
					C613.7,408.7,595,397.7,613.8,388.8z"/>
			</g>
			<rect x="599.5" y="355.2" class="st0" width="13.4" height="27.3"/>
			<rect x="642.7" y="355.2" class="st0" width="13.4" height="27.3"/>
			<path class="st0" d="M625.9,360.9l1.9-3.9l1.9,3.8c0.2,0.4,0.4,0.4,0.8,0.2l1.6-0.8l-1.1,5.2c-0.2,1,0.4,1.3,1,0.6l2.3-2.5
				l0.6,1.4c0.2,0.4,0.5,0.4,0.9,0.3l2.4-0.5l-0.8,3l0,0.1c-0.1,0.4-0.3,0.7,0.2,0.9l0.9,0.4l-5,4.2c-0.5,0.5-0.3,0.7-0.1,1.3
				l0.5,1.4l-4.6-0.8c-0.6-0.1-1-0.1-1,0.3l0.2,5.3h-1.4l0.2-5.3c0-0.5-0.4-0.5-1.3-0.3l-4.3,0.8l0.6-1.4c0.2-0.5,0.2-0.9-0.2-1.3
				l-5.1-4.1l0.9-0.6c0.3-0.2,0.3-0.4,0.1-0.9l-1-3.1l2.4,0.5c0.7,0.2,0.9,0,1-0.4l0.7-1.4l2.4,2.7c0.4,0.5,1,0.2,0.8-0.6l-1.2-5.7
				l1.8,1C625.5,361.1,625.8,361.1,625.9,360.9"/>
		</g>
		<g>
			<g>
				<path class="st12" d="M341.3,378.4l-1.9-30.5c-0.2-0.7-1.5-0.7-1.5,0c-0.1,6.6-11.7,1.1-15.8,0.1c-35.8-8.2-59.9,20.6-59.9,44.5
					c0,30.9,20.5,47.8,46.8,47.8c21,0,31.6-13.4,35-27.9c0.4-1.8-1.6-1.4-2.1,0c-6.3,20.2-22.1,25.3-29.9,25.2
					c-16.9-0.2-32.7-13.9-33.3-45.1c-0.7-39.7,44.1-65.7,61.2-14.6C340.2,379,341,379.3,341.3,378.4"/>
				<path class="st12" d="M364.2,437.5c7.7,1,14.5-6,14.5-12.8v-16.6C345.9,420.2,356.1,437,364.2,437.5 M355.9,383.3
					c9.3-3.9,34.4-2.7,34.4,8.8v35.2c0,9.6,9.5,12.9,12.2,6.5c0.9-0.9,2.3-0.2,1.6,1.2c-1.7,6.8-18.5,7.9-24.4-1.2
					c-32.3,23.5-52.9-22.8-14.3-23.5c12.1-1.8,13.4-8.8,13.4-13.6c0-12.1-6.3-13.2-10.1-13.2c-4,0-7.3,1.2-9.5,7.4
					C355.8,403.3,337.1,392.2,355.9,383.3z"/>
			</g>
			<path class="st12" d="M421.1,382.1l-15.7,2.1c-1,0.2-1,0.7,0.9,1.2c3.4,0.1,5.6,2.4,5.6,7.4v36.7c0,4.4-6.2,8.2-7.4,8.8
				c-2.9,1.2,1.5,1,1.5,1h25.7c0.9,0,3.5,0.2,0.1-1.3c-3.9-1.5-8.2-4.6-8.2-8.4c0-3.8,0-27.5,0-27.5c0-11.6,7.6-17.9,15-17.9
				c7.8,0,14.3,1.7,14.3,17.8v27.7c0,4-5.2,7.7-8,8.7c-1.8,0.5-2.6,1.1-1,1.1h27.4c1.5,0.1,2.1-0.4,0.7-0.7c-6.6-2.6-7.4-7.4-7.4-9
				v-32.2c0-18.4-17.7-16-23.9-16c-7.8,0.1-16.1,5-16.9,7.2C423.4,382.6,422.7,382,421.1,382.1"/>
			<g>
				<path class="st12" d="M558.8,437.5c9.7,0,16.2-3.8,16.2-26.4c0-21.6-6.5-26.8-16.2-26.8c-9.7,0-17.6,12.6-17.6,27
					C541.2,425.8,549.1,437.5,558.8,437.5 M574.6,434.7c-2.7,4.6-9.3,5.7-17.4,5.7c-15.5,0-28.1-11.9-28.1-28.3
					c0-14.5,8.2-30.8,29-30.8c18.8,0,18.6,12.5,18.6,2.1V365c0-9.5-3.8-12.3-6.7-13.2c-4.3-1.5-9.8-1.7-1-1.7l16.3-0.4
					c-1,0.2,1.1,0.2,1.1,1.7v71.9c0,5,1.8,12.7,9.9,14.9c0.7,0.1,1.6,0.6,0.7,0.9l-17.8,1.9c-2.6,0.2-3.7-1-4.7-6"/>
				<path class="st12" d="M492.9,437.5c7.7,1,14.5-6,14.5-12.8v-16.6C474.6,420.2,484.8,437,492.9,437.5 M484.6,383.2
					c9.3-3.9,34.4-2.7,34.4,8.8v35.2c0,9.6,9.5,12.9,12.2,6.5c0.9-0.9,2.3-0.2,1.6,1.2c-1.7,6.8-18.5,7.9-24.4-1.2
					c-32.3,23.5-52.9-22.8-14.3-23.5c12.1-1.8,13.4-8.8,13.4-13.6c0-12.1-6.3-13.2-10.1-13.2c-4,0-7.3,1.2-9.5,7.4
					C484.5,403.2,465.8,392.1,484.6,383.2z"/>
				<path class="st12" d="M616.7,437.6c7.7,1,14.5-6,14.5-12.8v-16.6C598.4,420.3,608.6,437.1,616.7,437.6 M608.4,383.4
					c9.3-3.9,34.4-2.7,34.4,8.8v35.2c0,9.6,9.5,12.9,12.2,6.5c0.9-0.9,2.3-0.2,1.6,1.2c-1.7,6.8-18.5,7.9-24.4-1.2
					c-32.3,23.5-52.9-22.8-14.3-23.5c12.1-1.8,13.4-8.8,13.4-13.7c0-12.1-6.3-13.2-10.1-13.2c-4,0-7.3,1.2-9.5,7.4
					C608.2,403.3,589.6,392.3,608.4,383.4z"/>
			</g>
			<rect x="594.1" y="349.8" class="st37" width="13.4" height="27.3"/>
			<rect x="637.2" y="349.8" class="st37" width="13.4" height="27.3"/>
			<path class="st37" d="M620.5,355.5l1.9-3.9l1.9,3.8c0.2,0.4,0.4,0.4,0.8,0.2l1.6-0.8l-1.1,5.2c-0.2,1,0.4,1.3,1,0.6l2.3-2.5
				l0.6,1.4c0.2,0.4,0.5,0.4,0.9,0.3l2.4-0.5l-0.8,3l0,0.1c-0.1,0.4-0.3,0.7,0.2,0.9l0.9,0.4l-5,4.2c-0.5,0.5-0.3,0.7-0.1,1.3
				l0.5,1.4l-4.6-0.8c-0.6-0.1-1-0.1-1,0.3l0.2,5.3h-1.4l0.2-5.3c0-0.5-0.4-0.5-1.3-0.3l-4.3,0.8l0.6-1.4c0.2-0.5,0.2-0.9-0.2-1.3
				l-5.1-4.1l0.9-0.6c0.3-0.2,0.3-0.4,0.1-0.9l-1-3.1l2.4,0.5c0.7,0.2,0.9,0,1-0.4l0.7-1.4l2.4,2.7c0.4,0.5,1,0.2,0.8-0.6l-1.2-5.7
				l1.8,1C620.1,355.7,620.4,355.7,620.5,355.5"/>
		</g>
	</g>
	<g>
		<rect x="477.9" y="483.1" class="st8" width="45.4" height="922.6"/>
		<rect x="484.5" y="483.1" class="st10" width="38.8" height="922.6"/>
		<rect x="492.2" y="496.4" class="st11" width="31.1" height="909.3"/>
		<rect x="552.1" y="483.1" class="st8" width="45.4" height="922.6"/>
		<rect x="558.7" y="483.1" class="st10" width="38.8" height="922.6"/>
		<rect x="566.4" y="496.4" class="st11" width="31.1" height="909.3"/>
		<rect x="626.3" y="483.1" class="st8" width="45.4" height="922.6"/>
		<rect x="632.9" y="483.1" class="st10" width="38.8" height="922.6"/>
		<rect x="640.6" y="496.4" class="st11" width="31.1" height="909.3"/>
		<rect x="700.5" y="483.1" class="st8" width="45.4" height="922.6"/>
		<rect x="707.1" y="483.1" class="st10" width="38.8" height="922.6"/>
		<rect x="714.7" y="496.4" class="st11" width="31.1" height="909.3"/>
		<rect x="403.7" y="483.1" class="st8" width="45.4" height="922.6"/>
		<rect x="410.3" y="483.1" class="st10" width="38.8" height="922.6"/>
		<rect x="418" y="496.4" class="st11" width="31.1" height="909.3"/>
		<rect x="329.5" y="483.1" class="st8" width="45.4" height="922.6"/>
		<rect x="336.1" y="483.1" class="st10" width="38.8" height="922.6"/>
		<rect x="343.8" y="496.4" class="st11" width="31.1" height="909.3"/>
		<rect x="255.3" y="483.1" class="st8" width="45.4" height="922.6"/>
		<rect x="261.9" y="483.1" class="st10" width="38.8" height="922.6"/>
		<rect x="269.6" y="496.4" class="st11" width="31.1" height="909.3"/>
	</g>
</g>
<g>
	<rect x="618.2" y="713.8" class="st38" width="623.1" height="140.7"/>
	<g>
		<g>
			<path class="st38" d="M712.9,775.3c-0.3,0.1-0.2,1,0.1,1c7.4,3.1,13,8.5,13,17.8c0,7.1-4,12.2-9.2,15.7c-5.2,3.7-15,4.8-19.3,4.8
				c-3,0-14.9-0.2-19.8-0.3c-3.9-0.1-6.5,0.1-8.2,0.1c-1.9,0-3.5-0.8-3.5-1.7c0-1,1.8-1.6,3-1.8c6.6-1.3,7-2.9,7.4-6.6
				c0.2-2.3,0.9-13.1,0.9-34.4c0-9.2-0.3-14.7-0.6-16.2c-0.5-2.4-1.2-3.2-6.8-4.3c-1.4-0.2-2.8-0.9-2.8-2.1c0-0.9,1.6-1.4,3-1.4h7.1
				c3.5,0,16.6-0.8,21.1-0.8c6.3,0,12.3,1.2,15.5,3.2c5.3,3.2,7.6,8,7.6,13.3C721.5,769.7,715.9,773.2,712.9,775.3z M695,748.8
				c-0.6,0-2.6,0.3-3.8,0.6c-0.2,0.1-0.9,1.1-1,1.7c-0.2,1.7-0.4,4.9-0.4,23c0,0.5,0.5,1.4,1.2,1.4c3.9,0,10-0.6,12.6-2.6
				c3.3-2.4,5.2-6,5.2-10.3C708.8,753.8,702.8,748.8,695,748.8z M703.8,781c-2.5-1.4-5.6-2.1-9.3-2.1c-1.5,0-3.3,0.4-3.7,0.8
				c-0.3,0.3-0.9,0.9-0.9,5.1c-0.1,2.8,0.2,15.8,0.4,19c0.1,0.9,0.6,2.6,1.4,3.5c1.8,1.9,4.9,3.7,6.8,3.7c6.9,0,13.2-6.9,13.2-15.9
				C711.8,788.7,708.5,783.6,703.8,781z"/>
			<path class="st38" d="M793.9,745.6c2.6,0.6,5.3,1.3,7.8,1.6c0.8,0,1.6,1.3,1.6,2.9c0.1,3,0.3,6.8,0.5,9.9
				c0.1,2.3-0.6,4.1-1.8,4.1c-0.5,0-1.5-1.3-2.1-2.9c-1.1-3.3-2.7-6.3-4.5-7.7c-4.6-3.9-10.1-6.3-16-6.3c-17.2,0-25.3,13.6-25.3,30
				c0,7.2,1.3,13.5,3.7,18.2c5.9,11.9,15.8,16.1,24.2,16.1c1.4,0,6.7-0.2,10.5-2.5c4-2.3,6.9-5.4,9.4-9.8c1.3-2.4,2.1-3.3,2.9-3.3
				c1.2,0,1.2,2.8,0.9,4c-0.5,2.7-2.3,7.5-3.2,9.4c-0.3,1-2.3,2.7-3.9,3.5c-1.5,0.5-9,3.1-18.9,3.1c-16,0-27.3-7.1-31.7-12.2
				c-4.1-4.7-9.1-12.3-9.1-24.3c0-13.1,7.3-22.2,11.9-25.9c9.2-7.6,20.3-9.7,29.2-9.7C784.9,743.9,790.1,744.6,793.9,745.6z"/>
			<path class="st38" d="M839.5,745.3c6.7,0,9,0.4,17.5,0.4c0.2,0,1.1,1,1.2,1.5c1,3.1,1.9,5.2,4.1,9.7
				c5.4,11.1,15.5,32.4,17.6,35.1c0.2,0.2,0.9,0.4,1,0.3c2.5-4.5,14.6-28.3,18-36.7c0.5-1.3,2.6-6,3.1-8.3c0.1-0.4,1.1-1.6,1.3-1.6
				c7.6,0,16.2-0.4,17.2-0.4c1.3,0,2.9,0.3,2.9,1.3c0,1.1-1.2,1.6-3.1,2.1c-1.7,0.4-3.1,1-4.9,1.8c-1.8,0.9-2.6,3.1-2.6,8.6
				c0,18.1,0.6,39.4,1.3,44.8c0.5,3.6,1.5,5.4,6.9,6.8c1.8,0.4,2.9,1.5,2.9,2.3c0,1.2-1.6,1.6-3.2,1.6c-1.2,0-11.3-0.5-15.2-0.5
				c-1.9,0-7.8,0.3-10.3,0.3c-1.7,0-3.1-0.4-3.1-1.5c0-1,1.5-1.9,3-2.3c4.4-1.1,4.8-4.4,5.1-8.7c0.4-5.3,0.6-33.1,0.5-38.5
				c0-1.1-0.6-1.6-1.1-0.8c-3.6,7-12.6,26.2-15.8,33.4c-2.8,6.3-5.1,12-6.5,15.4c-1.3,3.1-2.5,3.3-3,3.3c-0.5,0-1.5-1.2-2.1-2.4
				c-0.5-1.7-1.9-5.9-4-11c-5.6-13.8-15-34-17.1-38c-0.3-0.6-0.6-0.4-0.6,0.3c-0.9,7.2-1.8,26-1.7,37.7c0.1,6.2,1.1,7.6,6.6,9.3
				c2.3,0.8,3.1,1.4,3.1,2.4c0,0.9-1.3,1.5-3.1,1.5c-3.2,0-7.3-0.4-9.9-0.4c-2.6,0-7.1,0.4-9.6,0.4c-1.6,0-3.3-0.2-3.3-1.5
				c0-0.8,1.1-1.4,2.9-2.1c5.9-2.1,7.1-3.5,8.1-11c1-8.2,3.5-33.9,3.6-43.5c0-1.4-0.2-5.5-4.1-6.5c-1.7-0.5-3.1-1-4.4-1.3
				c-0.8-0.2-2.3-1-2.3-1.9C836.4,745.7,837.2,745.3,839.5,745.3z"/>
			<path class="st38" d="M933.8,773.8c4.4-0.9,11.2-3.5,13-3.9c0.5,0,1.1,0.9,1.1,1.2c-0.2,3.7-0.5,18.1-0.5,24.4
				c0,3.3,0.1,7.1,0.2,10.9c0.1,3.2,1.4,3.7,4.2,4.5c1.6,0.5,2.4,1.2,2.4,2.1c0,0.9-1.5,1.4-3,1.4c-0.8,0-6.6-0.3-9-0.3
				c-3.5,0-8.6,0.4-10.5,0.4c-1.7,0-3-0.6-3-1.4c0-0.8,0.8-1.3,2.8-1.9c2.6-0.8,3.8-2.1,4-3.1c0.4-1.5,0.6-9.2,0.6-16.8
				c0-2.3,0-8.4-0.2-9.7c-0.1-0.9-1.4-1.9-3.7-3.9c-0.6-0.6-1.3-1.2-1.3-1.7C930.9,775,932.1,774.1,933.8,773.8z M948.1,754.2
				c0,3.6-3.8,6.6-6.5,6.6c-1,0-3.1-0.6-4.3-1.8c-1.1-1.1-2.1-2.6-2.1-4.8c0-1.3,0.5-3.5,1.7-4.8c1.3-1.2,3.3-1.9,5.4-1.9
				C946.1,747.5,948.1,751.7,948.1,754.2z"/>
			<path class="st38" d="M962,773.9c2.2-0.6,7-2.4,8.7-3.2c1.7-0.9,3.1-1.6,3.7-1.6c0.4,0,1.2,1.2,1.2,1.6c0,1.2-0.1,3.8-0.1,4.8
				c0,0.6,0.8,0.5,0.8,0.5c4.3-3.2,8.9-5.8,13.7-5.8c5.3,0,8.4,2.6,9.9,4.3c2.5,2.8,3.9,7.6,3.9,13.1c0,2.3,0.2,18.1,0.3,19.7
				c0.2,1.6,1,2.9,3.8,3.7c2.1,0.5,2.8,1.1,2.8,1.9c0,0.9-1.3,1.5-3.1,1.5c-2.6,0-6.8-0.2-9.8-0.2c-2.7,0-7,0.3-8.5,0.3
				c-1.5,0-2.9-0.3-2.9-1.5c0-0.8,1.2-1.4,2.6-1.8c2.5-1,3-1.9,3.2-5.5c0.2-3.6,0.2-17,0.2-20.1c0-2.2-0.9-5.1-2.4-6.5
				c-1.2-1.1-3.9-2.3-6.2-2.3c-3.8,0-5.6,1.1-7.1,2.2c-0.4,0.3-1,1.7-1.1,2.4c-0.1,1.8,0.1,25.1,0.2,26.3c0.1,1.5,0.4,2.3,3.8,3.3
				c1,0.4,1.8,1.2,1.8,1.8c0,0.8-1.2,1.5-3,1.5c-2.1,0-6-0.2-8.3-0.2c-4,0-8.2,0.3-10,0.3s-2.9-0.6-2.9-1.6c0-0.9,1.1-1.4,2.3-1.7
				c3.6-1.2,4.1-2.1,4.4-6c0.3-3.2,0.5-11.9,0.5-22.8c0-1.2-0.8-2.3-3.1-4.4c-0.9-0.9-1.2-1.2-1.2-1.5
				C960.1,775.6,961.2,774.2,962,773.9z"/>
			<path class="st38" d="M1019.9,773.8c4.4-0.9,11.2-3.5,13-3.9c0.5,0,1.1,0.9,1.1,1.2c-0.2,3.7-0.5,18.1-0.5,24.4
				c0,3.3,0.1,7.1,0.2,10.9c0.1,3.2,1.4,3.7,4.2,4.5c1.6,0.5,2.4,1.2,2.4,2.1c0,0.9-1.5,1.4-3,1.4c-0.8,0-6.6-0.3-9-0.3
				c-3.5,0-8.6,0.4-10.5,0.4c-1.7,0-3-0.6-3-1.4c0-0.8,0.8-1.3,2.8-1.9c2.6-0.8,3.8-2.1,4-3.1c0.4-1.5,0.6-9.2,0.6-16.8
				c0-2.3,0-8.4-0.2-9.7c-0.1-0.9-1.4-1.9-3.7-3.9c-0.6-0.6-1.3-1.2-1.3-1.7C1017,775,1018.2,774.1,1019.9,773.8z M1034.1,754.2
				c0,3.6-3.8,6.6-6.5,6.6c-1,0-3.1-0.6-4.3-1.8c-1.1-1.1-2.1-2.6-2.1-4.8c0-1.3,0.5-3.5,1.7-4.8c1.3-1.2,3.3-1.9,5.4-1.9
				C1032.2,747.5,1034.1,751.7,1034.1,754.2z"/>
			<path class="st38" d="M1068.5,770.7c1.4,0.2,3.7,1.1,3.9,1.2c0.4,0.3,0.9,1,1,1.8c0.2,1.5,0.4,6.2,0.4,6.9c0,1-0.9,2.3-1.6,2.3
				c-0.8,0-1.7-1.4-2.4-2.6c-2.4-4.5-5.1-7-9-7c-2.7,0-5.4,2.7-5.4,5.5c0,3.9,4.1,6.3,9.5,9.3c9.3,5,10.6,8.7,10.6,13.6
				c0,5.1-3.2,8.6-6.8,10.9c-2.3,1.5-7.8,2.7-10.9,2.7c-3.3,0-8.9-0.8-10.9-2.5c-0.4-0.5-2.1-5.1-2.1-8.9c0-1.6,0.6-2.5,1.1-2.5
				c1.1,0,1.8,1.2,2.6,2.5c3.6,6,7.8,8.1,10.5,8.1c1.3,0,3.2-0.6,4.3-1.4c1.5-1.2,2.2-3.1,2.2-4.9c0-1.8-0.9-3.8-4.3-5.9
				c-2.9-1.8-4.2-2.7-7.4-4.6c-4-2.5-7.6-6.6-7.6-12.1c0-4,2.3-8.3,6.8-10.8c2.4-1.3,5.4-2.3,9.4-2.3
				C1064.8,770.1,1067.1,770.4,1068.5,770.7z"/>
			<path class="st38" d="M1110.6,771.3c0.4,0,1.6,0.4,1.6,1.2c0-0.3,0.3,3.1,0.3,4.4c0,1.1-2.1,1.3-2.8,1.3c-0.4,0-9.4,0-10.3,0
				c-0.6,0-1.1,0.5-1.1,0.8c0,5.4-0.1,15.4-0.1,21.8c0,2.7,0.5,4,1.7,5.1c1.2,1.1,3.6,1.8,5.3,1.8c1.1,0,3.3-0.8,4.8-1.5
				c0.9-0.5,1.4-0.8,1.8-0.8c0.3,0,0.8,0.5,0.8,1.7c0,1-1.1,2.4-1.7,3.1c-2.9,3-7.2,5.1-12.3,5.1c-4.3,0-8.3-2.2-10-4.6
				c-1.4-1.8-1.9-3.5-1.9-7.7c0-4,0.4-19.7,0.4-23.4c0-0.8-1.8-1.5-4.1-2.4c-0.9-0.3-1.3-1.2-1.3-1.8c0-0.4,0.1-0.6,0.5-1
				c5.4-3.6,9-6.2,11.3-8.6c1.3-1.5,2.1-2.4,2.5-2.4c0.8,0,2.2,1.1,2.2,1.8c0,0.4,0,2.3,0,5.4c0,0.3,0.5,1,1,1
				C1101.5,771.6,1110.2,771.3,1110.6,771.3z"/>
			<path class="st38" d="M1118.8,774.4c4.1-1.3,9-2.9,10.9-4.1c1.2-0.8,2.3-1.3,2.6-1.3c0.6,0,1.3,1,1.3,1.3c0,1.9-0.3,4-0.3,6
				c0,0.3,0.5,0.8,0.9,0.4c3.3-3.6,8.1-6.7,11.4-6.7c4.8,0,6.3,2.9,6.3,4.4c0,0.3-0.3,1.2-0.6,1.7c-1.2,1.8-4.5,6.3-5.3,6.4
				c-0.4,0-1.6-0.1-1.9-0.4c-1.2-1.1-4.8-3-6.8-3c-1,0-2.1,0.1-2.7,0.6c-0.6,0.5-1,1.2-1,2.2c0,2.2,0.5,20.9,0.6,22.6
				c0.2,3.3,1,5.3,2.5,5.6c1.1,0.2,3.3,1,4.6,1.4c1.7,0.5,2.2,1.3,2.2,1.7c0,0.9-1.3,1.3-3,1.3c-3.2,0-8.9-0.5-15.2-0.5
				c-2.3,0-4.5,0.3-7.1,0.3c-1.2,0-2.6-0.3-2.6-1.5c0-0.8,1.6-1.3,2.5-1.6c3.9-1.4,4.1-2.6,4.2-9.1c0-2.7,0-10.7,0-17.8
				c0-1.9-0.2-3.6-0.9-4.1c-1.7-1.4-3.9-3.3-3.9-3.8C1117.4,776.3,1117.6,774.7,1118.8,774.4z"/>
			<path class="st38" d="M1157.2,771.2c3.8,0,7.5,0.4,10.7,0.4c3.2,0,7.2-0.2,8.7-0.2c1,0,2.6,0.4,2.6,1.3c0,0.9-0.6,1.4-2.6,2.1
				c-2.9,0.9-3,1.5-2.1,4.3c1.6,5.4,6.8,17.5,8.3,20.4c0.2,0.3,0.8,0.3,1.1-0.3c1.3-3.1,6.9-17,7.8-19.5c0.8-2.6-0.2-4-4.1-5.1
				c-1.4-0.4-2.3-1.3-2.3-1.7c0-1,1.3-1.4,2.7-1.4c2.1,0,4.9,0.2,6.4,0.2c1.6,0,4.8-0.4,7.6-0.4c1.5,0,2.3,0.5,2.3,1.3
				c0,0.9-1.2,1.5-2.6,1.9c-2.3,0.6-3.8,2.2-5.6,5.3c-2.4,5-10.3,24.1-12.2,28.9c-3.6,9-8.2,20.6-11.7,29.4
				c-0.9,2.4-4.1,3.7-6.2,3.7c-4,0-5.7-3.3-5.7-5.9c0-1.7,1.5-5.3,4.9-5.3c0.6,0,3.8,0.1,5,0.1c1,0,1.5-0.8,1.9-1.8
				c1-1.7,4-10,4.8-12.2c0.2-0.8,0.3-1.8,0.1-2.3c-0.4-0.8-1.4-3.3-1.8-4.6c-2.7-6.8-10.4-24.9-13.3-31c-1.2-2.2-1.7-3-4.7-4
				c-1.5-0.5-2.5-1.1-2.5-2.2C1154.6,772,1155.4,771.2,1157.2,771.2z"/>
		</g>
		<g>
			<path class="st12" d="M707.5,769.9c-0.3,0.1-0.2,1,0.1,1c7.4,3.1,13,8.5,13,17.8c0,7.1-4,12.2-9.2,15.7c-5.2,3.7-15,4.8-19.3,4.8
				c-3,0-14.9-0.2-19.8-0.3c-3.9-0.1-6.5,0.1-8.2,0.1c-1.9,0-3.5-0.8-3.5-1.7c0-1,1.8-1.6,3-1.8c6.6-1.3,7-2.9,7.4-6.6
				c0.2-2.3,0.9-13.1,0.9-34.4c0-9.2-0.3-14.7-0.6-16.2c-0.5-2.4-1.2-3.2-6.8-4.3c-1.4-0.2-2.8-0.9-2.8-2.1c0-0.9,1.6-1.4,3-1.4h7.1
				c3.5,0,16.6-0.8,21.1-0.8c6.3,0,12.3,1.2,15.5,3.2c5.3,3.2,7.6,8,7.6,13.3C716.1,764.3,710.5,767.8,707.5,769.9z M689.6,743.4
				c-0.6,0-2.6,0.3-3.8,0.6c-0.2,0.1-0.9,1.1-1,1.7c-0.2,1.7-0.4,4.9-0.4,23c0,0.5,0.5,1.4,1.2,1.4c3.9,0,10-0.6,12.6-2.6
				c3.3-2.4,5.2-6,5.2-10.3C703.4,748.4,697.4,743.4,689.6,743.4z M698.4,775.6c-2.5-1.4-5.6-2.1-9.3-2.1c-1.5,0-3.3,0.4-3.7,0.8
				c-0.3,0.3-0.9,0.9-0.9,5.1c-0.1,2.8,0.2,15.8,0.4,19c0.1,0.9,0.6,2.6,1.4,3.5c1.8,1.9,4.9,3.7,6.8,3.7c6.9,0,13.2-6.9,13.2-15.9
				C706.4,783.3,703.1,778.2,698.4,775.6z"/>
			<path class="st12" d="M788.5,740.2c2.6,0.6,5.3,1.3,7.8,1.6c0.8,0,1.6,1.3,1.6,2.9c0.1,3,0.3,6.8,0.5,9.9
				c0.1,2.3-0.6,4.1-1.8,4.1c-0.5,0-1.5-1.3-2.1-2.9c-1.1-3.3-2.7-6.3-4.5-7.7c-4.6-3.9-10.1-6.3-16-6.3c-17.2,0-25.3,13.6-25.3,30
				c0,7.2,1.3,13.5,3.7,18.2c5.9,11.9,15.8,16.1,24.2,16.1c1.4,0,6.7-0.2,10.5-2.5c4-2.3,6.9-5.4,9.4-9.8c1.3-2.4,2.1-3.3,2.9-3.3
				c1.2,0,1.2,2.8,0.9,4c-0.5,2.7-2.3,7.5-3.2,9.4c-0.3,1-2.3,2.7-3.9,3.5c-1.5,0.5-9,3.1-18.9,3.1c-16,0-27.3-7.1-31.7-12.2
				c-4.1-4.7-9.1-12.3-9.1-24.3c0-13.1,7.3-22.2,11.9-25.9c9.2-7.6,20.3-9.7,29.2-9.7C779.5,738.5,784.7,739.2,788.5,740.2z"/>
			<path class="st12" d="M834.1,739.9c6.7,0,9,0.4,17.5,0.4c0.2,0,1.1,1,1.2,1.5c1,3.1,1.9,5.2,4.1,9.7
				c5.4,11.1,15.5,32.4,17.6,35.1c0.2,0.2,0.9,0.4,1,0.3c2.5-4.5,14.6-28.3,18-36.7c0.5-1.3,2.6-6,3.1-8.3c0.1-0.4,1.1-1.6,1.3-1.6
				c7.6,0,16.2-0.4,17.2-0.4c1.3,0,2.9,0.3,2.9,1.3c0,1.1-1.2,1.6-3.1,2.1c-1.7,0.4-3.1,1-4.9,1.8c-1.8,0.9-2.6,3.1-2.6,8.6
				c0,18.1,0.6,39.4,1.3,44.8c0.5,3.6,1.5,5.4,6.9,6.8c1.8,0.4,2.9,1.5,2.9,2.3c0,1.2-1.6,1.6-3.2,1.6c-1.2,0-11.3-0.5-15.2-0.5
				c-1.9,0-7.8,0.3-10.3,0.3c-1.7,0-3.1-0.4-3.1-1.5c0-1,1.5-1.9,3-2.3c4.4-1.1,4.8-4.4,5.1-8.7c0.4-5.3,0.6-33.1,0.5-38.5
				c0-1.1-0.6-1.6-1.1-0.8c-3.6,7-12.6,26.2-15.8,33.4c-2.8,6.3-5.1,12-6.5,15.4c-1.3,3.1-2.5,3.3-3,3.3c-0.5,0-1.5-1.2-2.1-2.4
				c-0.5-1.7-1.9-5.9-4-11c-5.6-13.8-15-34-17.1-38c-0.3-0.6-0.6-0.4-0.6,0.3c-0.9,7.2-1.8,26-1.7,37.7c0.1,6.2,1.1,7.6,6.6,9.3
				c2.3,0.8,3.1,1.4,3.1,2.4c0,0.9-1.3,1.5-3.1,1.5c-3.2,0-7.3-0.4-9.9-0.4c-2.6,0-7.1,0.4-9.6,0.4c-1.6,0-3.3-0.2-3.3-1.5
				c0-0.8,1.1-1.4,2.9-2.1c5.9-2.1,7.1-3.5,8.1-11c1-8.2,3.5-33.9,3.6-43.5c0-1.4-0.2-5.5-4.1-6.5c-1.7-0.5-3.1-1-4.4-1.3
				c-0.8-0.2-2.3-1-2.3-1.9C831,740.3,831.8,739.9,834.1,739.9z"/>
			<path class="st12" d="M928.4,768.4c4.4-0.9,11.2-3.5,13-3.9c0.5,0,1.1,0.9,1.1,1.2c-0.2,3.7-0.5,18.1-0.5,24.4
				c0,3.3,0.1,7.1,0.2,10.9c0.1,3.2,1.4,3.7,4.2,4.5c1.6,0.5,2.4,1.2,2.4,2.1c0,0.9-1.5,1.4-3,1.4c-0.8,0-6.6-0.3-9-0.3
				c-3.5,0-8.6,0.4-10.5,0.4c-1.7,0-3-0.6-3-1.4c0-0.8,0.8-1.3,2.8-1.9c2.6-0.8,3.8-2.1,4-3.1c0.4-1.5,0.6-9.2,0.6-16.8
				c0-2.3,0-8.4-0.2-9.7c-0.1-0.9-1.4-1.9-3.7-3.9c-0.6-0.6-1.3-1.2-1.3-1.7C925.5,769.6,926.7,768.7,928.4,768.4z M942.7,748.8
				c0,3.6-3.8,6.6-6.5,6.6c-1,0-3.1-0.6-4.3-1.8c-1.1-1.1-2.1-2.6-2.1-4.8c0-1.3,0.5-3.5,1.7-4.8c1.3-1.2,3.3-1.9,5.4-1.9
				C940.7,742.1,942.7,746.3,942.7,748.8z"/>
			<path class="st12" d="M956.6,768.5c2.2-0.6,7-2.4,8.7-3.2c1.7-0.9,3.1-1.6,3.7-1.6c0.4,0,1.2,1.2,1.2,1.6c0,1.2-0.1,3.8-0.1,4.8
				c0,0.6,0.8,0.5,0.8,0.5c4.3-3.2,8.9-5.8,13.7-5.8c5.3,0,8.4,2.6,9.9,4.3c2.5,2.8,3.9,7.6,3.9,13.1c0,2.3,0.2,18.1,0.3,19.7
				c0.2,1.6,1,2.9,3.8,3.7c2.1,0.5,2.8,1.1,2.8,1.9c0,0.9-1.3,1.5-3.1,1.5c-2.6,0-6.8-0.2-9.8-0.2c-2.7,0-7,0.3-8.5,0.3
				c-1.5,0-2.9-0.3-2.9-1.5c0-0.8,1.2-1.4,2.6-1.8c2.5-1,3-1.9,3.2-5.5c0.2-3.6,0.2-17,0.2-20.1c0-2.2-0.9-5.1-2.4-6.5
				c-1.2-1.1-3.9-2.3-6.2-2.3c-3.8,0-5.6,1.1-7.1,2.2c-0.4,0.3-1,1.7-1.1,2.4c-0.1,1.8,0.1,25.1,0.2,26.3c0.1,1.5,0.4,2.3,3.8,3.3
				c1,0.4,1.8,1.2,1.8,1.8c0,0.8-1.2,1.5-3,1.5c-2.1,0-6-0.2-8.3-0.2c-4,0-8.2,0.3-10,0.3c-1.8,0-2.9-0.6-2.9-1.6
				c0-0.9,1.1-1.4,2.3-1.7c3.6-1.2,4.1-2.1,4.4-6c0.3-3.2,0.5-11.9,0.5-22.8c0-1.2-0.8-2.3-3.1-4.4c-0.9-0.9-1.2-1.2-1.2-1.5
				C954.7,770.2,955.8,768.8,956.6,768.5z"/>
			<path class="st12" d="M1014.5,768.4c4.4-0.9,11.2-3.5,13-3.9c0.5,0,1.1,0.9,1.1,1.2c-0.2,3.7-0.5,18.1-0.5,24.4
				c0,3.3,0.1,7.1,0.2,10.9c0.1,3.2,1.4,3.7,4.2,4.5c1.6,0.5,2.4,1.2,2.4,2.1c0,0.9-1.5,1.4-3,1.4c-0.8,0-6.6-0.3-9-0.3
				c-3.5,0-8.6,0.4-10.5,0.4c-1.7,0-3-0.6-3-1.4c0-0.8,0.8-1.3,2.8-1.9c2.6-0.8,3.8-2.1,4-3.1c0.4-1.5,0.6-9.2,0.6-16.8
				c0-2.3,0-8.4-0.2-9.7c-0.1-0.9-1.4-1.9-3.7-3.9c-0.6-0.6-1.3-1.2-1.3-1.7C1011.6,769.6,1012.8,768.7,1014.5,768.4z M1028.7,748.8
				c0,3.6-3.8,6.6-6.5,6.6c-1,0-3.1-0.6-4.3-1.8c-1.1-1.1-2.1-2.6-2.1-4.8c0-1.3,0.5-3.5,1.7-4.8c1.3-1.2,3.3-1.9,5.4-1.9
				C1026.8,742.1,1028.7,746.3,1028.7,748.8z"/>
			<path class="st12" d="M1063.1,765.3c1.4,0.2,3.7,1.1,3.9,1.2c0.4,0.3,0.9,1,1,1.8c0.2,1.5,0.4,6.2,0.4,6.9c0,1-0.9,2.3-1.6,2.3
				c-0.8,0-1.7-1.4-2.4-2.6c-2.4-4.5-5.1-7-9-7c-2.7,0-5.4,2.7-5.4,5.5c0,3.9,4.1,6.3,9.5,9.3c9.3,5,10.6,8.7,10.6,13.6
				c0,5.1-3.2,8.6-6.8,10.9c-2.3,1.5-7.8,2.7-10.9,2.7c-3.3,0-8.9-0.8-10.9-2.5c-0.4-0.5-2.1-5.1-2.1-8.9c0-1.6,0.6-2.5,1.1-2.5
				c1.1,0,1.8,1.2,2.6,2.5c3.6,6,7.8,8.1,10.5,8.1c1.3,0,3.2-0.6,4.3-1.4c1.5-1.2,2.2-3.1,2.2-4.9c0-1.8-0.9-3.8-4.3-5.9
				c-2.9-1.8-4.2-2.7-7.4-4.6c-4-2.5-7.6-6.6-7.6-12.1c0-4,2.3-8.3,6.8-10.8c2.4-1.3,5.4-2.3,9.4-2.3
				C1059.4,764.7,1061.7,765,1063.1,765.3z"/>
			<path class="st12" d="M1105.2,765.9c0.4,0,1.6,0.4,1.6,1.2c0-0.3,0.3,3.1,0.3,4.4c0,1.1-2.1,1.3-2.8,1.3c-0.4,0-9.4,0-10.3,0
				c-0.6,0-1.1,0.5-1.1,0.8c0,5.4-0.1,15.4-0.1,21.8c0,2.7,0.5,4,1.7,5.1c1.2,1.1,3.6,1.8,5.3,1.8c1.1,0,3.3-0.8,4.8-1.5
				c0.9-0.5,1.4-0.8,1.8-0.8c0.3,0,0.8,0.5,0.8,1.7c0,1-1.1,2.4-1.7,3.1c-2.9,3-7.2,5.1-12.3,5.1c-4.3,0-8.3-2.2-10-4.6
				c-1.4-1.8-1.9-3.5-1.9-7.7c0-4,0.4-19.7,0.4-23.4c0-0.8-1.8-1.5-4.1-2.4c-0.9-0.3-1.3-1.2-1.3-1.8c0-0.4,0.1-0.6,0.5-1
				c5.4-3.6,9-6.2,11.3-8.6c1.3-1.5,2.1-2.4,2.5-2.4c0.8,0,2.2,1.1,2.2,1.8c0,0.4,0,2.3,0,5.4c0,0.3,0.5,1,1,1
				C1096.1,766.2,1104.8,765.9,1105.2,765.9z"/>
			<path class="st12" d="M1113.4,769c4.1-1.3,9-2.9,10.9-4.1c1.2-0.8,2.3-1.3,2.6-1.3c0.6,0,1.3,1,1.3,1.3c0,1.9-0.3,4-0.3,6
				c0,0.3,0.5,0.8,0.9,0.4c3.3-3.6,8.1-6.7,11.4-6.7c4.8,0,6.3,2.9,6.3,4.4c0,0.3-0.3,1.2-0.6,1.7c-1.2,1.8-4.5,6.3-5.3,6.4
				c-0.4,0-1.6-0.1-1.9-0.4c-1.2-1.1-4.8-3-6.8-3c-1,0-2.1,0.1-2.7,0.6c-0.6,0.5-1,1.2-1,2.2c0,2.2,0.5,20.9,0.6,22.6
				c0.2,3.3,1,5.3,2.5,5.6c1.1,0.2,3.3,1,4.6,1.4c1.7,0.5,2.2,1.3,2.2,1.7c0,0.9-1.3,1.3-3,1.3c-3.2,0-8.9-0.5-15.2-0.5
				c-2.3,0-4.5,0.3-7.1,0.3c-1.2,0-2.6-0.3-2.6-1.5c0-0.8,1.6-1.3,2.5-1.6c3.9-1.4,4.1-2.6,4.2-9.1c0-2.7,0-10.7,0-17.8
				c0-1.9-0.2-3.6-0.9-4.1c-1.7-1.4-3.9-3.3-3.9-3.8C1112,770.8,1112.2,769.3,1113.4,769z"/>
			<path class="st12" d="M1151.7,765.8c3.8,0,7.5,0.4,10.7,0.4c3.2,0,7.2-0.2,8.7-0.2c1,0,2.6,0.4,2.6,1.3c0,0.9-0.6,1.4-2.6,2.1
				c-2.9,0.9-3,1.5-2.1,4.3c1.6,5.4,6.8,17.5,8.3,20.4c0.2,0.3,0.8,0.3,1.1-0.3c1.3-3.1,6.9-17,7.8-19.5c0.8-2.6-0.2-4-4.1-5.1
				c-1.4-0.4-2.3-1.3-2.3-1.7c0-1,1.3-1.4,2.7-1.4c2.1,0,4.9,0.2,6.4,0.2c1.6,0,4.8-0.4,7.6-0.4c1.5,0,2.3,0.5,2.3,1.3
				c0,0.9-1.2,1.5-2.6,1.9c-2.3,0.6-3.8,2.2-5.6,5.3c-2.4,5-10.3,24.1-12.2,28.9c-3.6,9-8.2,20.6-11.7,29.4
				c-0.9,2.4-4.1,3.7-6.2,3.7c-4,0-5.7-3.3-5.7-5.9c0-1.7,1.5-5.3,4.9-5.3c0.6,0,3.8,0.1,5,0.1c1,0,1.5-0.8,1.9-1.8
				c1-1.7,4-10,4.8-12.2c0.2-0.8,0.3-1.8,0.1-2.3c-0.4-0.8-1.4-3.3-1.8-4.6c-2.7-6.8-10.4-24.9-13.3-31c-1.2-2.2-1.7-3-4.7-4
				c-1.5-0.5-2.5-1.1-2.5-2.2C1149.2,766.6,1150,765.8,1151.7,765.8z"/>
		</g>
	</g>
</g>
<g>
	<rect x="513.4" y="899.6" class="st39" width="832.7" height="863.4"/>
	<rect x="486.4" y="848.3" class="st39" width="886.7" height="51.3"/>
	<rect x="513.4" y="899.6" class="st15" width="832.7" height="18.5"/>
	<g>
		<g>
			<rect x="561" y="952.6" class="st15" width="102.6" height="158.2"/>
			<rect x="569.1" y="952.6" class="st8" width="102.6" height="158.2"/>
			<rect x="577.2" y="960.7" class="st0" width="94.5" height="150.1"/>
		</g>
		<g>
			<rect x="717.7" y="952.6" class="st15" width="102.6" height="158.2"/>
			<rect x="725.8" y="952.6" class="st8" width="102.6" height="158.2"/>
			<rect x="733.9" y="960.7" class="st0" width="94.5" height="150.1"/>
		</g>
		<g>
			<rect x="874.4" y="952.6" class="st15" width="102.6" height="158.2"/>
			<rect x="882.5" y="952.6" class="st8" width="102.6" height="158.2"/>
			<rect x="890.6" y="960.7" class="st0" width="94.5" height="150.1"/>
		</g>
		<g>
			<rect x="1031.1" y="952.6" class="st15" width="102.6" height="158.2"/>
			<rect x="1039.3" y="952.6" class="st8" width="102.6" height="158.2"/>
			<rect x="1047.4" y="960.7" class="st0" width="94.5" height="150.1"/>
		</g>
		<g>
			<rect x="1187.9" y="952.6" class="st15" width="102.6" height="158.2"/>
			<rect x="1196" y="952.6" class="st8" width="102.6" height="158.2"/>
			<rect x="1204.1" y="960.7" class="st0" width="94.5" height="150.1"/>
		</g>
	</g>
	<g>
		<g>
			<rect x="561" y="1147.1" class="st15" width="102.6" height="158.2"/>
			<rect x="569.1" y="1147.1" class="st8" width="102.6" height="158.2"/>
			<rect x="577.2" y="1155.2" class="st0" width="94.5" height="150.1"/>
		</g>
		<g>
			<rect x="717.7" y="1147.1" class="st15" width="102.6" height="158.2"/>
			<rect x="725.8" y="1147.1" class="st8" width="102.6" height="158.2"/>
			<rect x="733.9" y="1155.2" class="st0" width="94.5" height="150.1"/>
		</g>
		<g>
			<rect x="874.4" y="1147.1" class="st15" width="102.6" height="158.2"/>
			<rect x="882.5" y="1147.1" class="st8" width="102.6" height="158.2"/>
			<rect x="890.6" y="1155.2" class="st0" width="94.5" height="150.1"/>
		</g>
		<g>
			<rect x="1031.1" y="1147.1" class="st15" width="102.6" height="158.2"/>
			<rect x="1039.3" y="1147.1" class="st8" width="102.6" height="158.2"/>
			<rect x="1047.4" y="1155.2" class="st0" width="94.5" height="150.1"/>
		</g>
		<g>
			<rect x="1187.9" y="1147.1" class="st15" width="102.6" height="158.2"/>
			<rect x="1196" y="1147.1" class="st8" width="102.6" height="158.2"/>
			<rect x="1204.1" y="1155.2" class="st0" width="94.5" height="150.1"/>
		</g>
	</g>
	<g>
		<g>
			<rect x="561" y="1341.7" class="st15" width="102.6" height="158.2"/>
			<rect x="569.1" y="1341.7" class="st8" width="102.6" height="158.2"/>
			<rect x="577.2" y="1349.8" class="st0" width="94.5" height="150.1"/>
		</g>
		<g>
			<rect x="717.7" y="1341.7" class="st15" width="102.6" height="158.2"/>
			<rect x="725.8" y="1341.7" class="st8" width="102.6" height="158.2"/>
			<rect x="733.9" y="1349.8" class="st0" width="94.5" height="150.1"/>
		</g>
		<g>
			<rect x="874.4" y="1341.7" class="st15" width="102.6" height="158.2"/>
			<rect x="882.5" y="1341.7" class="st8" width="102.6" height="158.2"/>
			<rect x="890.6" y="1349.8" class="st0" width="94.5" height="150.1"/>
		</g>
		<g>
			<rect x="1031.1" y="1341.7" class="st15" width="102.6" height="158.2"/>
			<rect x="1039.3" y="1341.7" class="st8" width="102.6" height="158.2"/>
			<rect x="1047.4" y="1349.8" class="st0" width="94.5" height="150.1"/>
		</g>
		<g>
			<rect x="1187.9" y="1341.7" class="st15" width="102.6" height="158.2"/>
			<rect x="1196" y="1341.7" class="st8" width="102.6" height="158.2"/>
			<rect x="1204.1" y="1349.8" class="st0" width="94.5" height="150.1"/>
		</g>
	</g>
	<g>
		<g>
			<rect x="561" y="1536.2" class="st15" width="102.6" height="158.2"/>
			<rect x="569.1" y="1536.2" class="st8" width="102.6" height="158.2"/>
			<rect x="577.2" y="1544.3" class="st0" width="94.5" height="150.1"/>
		</g>
		<g>
			<rect x="717.7" y="1536.2" class="st15" width="102.6" height="158.2"/>
			<rect x="725.8" y="1536.2" class="st8" width="102.6" height="158.2"/>
			<rect x="733.9" y="1544.3" class="st0" width="94.5" height="150.1"/>
		</g>
		<g>
			<rect x="874.4" y="1536.2" class="st15" width="102.6" height="158.2"/>
			<rect x="882.5" y="1536.2" class="st8" width="102.6" height="158.2"/>
			<rect x="890.6" y="1544.3" class="st0" width="94.5" height="150.1"/>
		</g>
		<g>
			<rect x="1031.1" y="1536.2" class="st15" width="102.6" height="158.2"/>
			<rect x="1039.3" y="1536.2" class="st8" width="102.6" height="158.2"/>
			<rect x="1047.4" y="1544.3" class="st0" width="94.5" height="150.1"/>
		</g>
		<g>
			<rect x="1187.9" y="1536.2" class="st15" width="102.6" height="158.2"/>
			<rect x="1196" y="1536.2" class="st8" width="102.6" height="158.2"/>
			<rect x="1204.1" y="1544.3" class="st0" width="94.5" height="150.1"/>
		</g>
	</g>
</g>
<g>
	<rect x="56.2" y="1373.2" class="st13" width="658.1" height="406.4"/>
	<rect x="56.2" y="1373.2" class="st13" width="658.1" height="15.4"/>
	<polygon class="st0" points="641.4,1200.3 129.2,1200.3 56.2,1373.2 714.3,1373.2 	"/>
	<line class="st40" x1="641.4" y1="1200.3" x2="129.2" y2="1200.3"/>
	<line class="st40" x1="56.2" y1="1373.2" x2="714.3" y2="1373.2"/>
	<path class="st0" d="M579.6,1446.4c0-7-5.7-12.7-12.7-12.7h-39.1c-7,0-12.7,5.7-12.7,12.7c0,6,4.2,11,9.8,12.3v199.5h-5.7v47.4
		h56.3v-47.4h-5.7v-199.5C575.4,1457.4,579.6,1452.4,579.6,1446.4z"/>
	<path class="st0" d="M471.5,1446.4c0-7-5.7-12.7-12.7-12.7h-39.1c-7,0-12.7,5.7-12.7,12.7c0,6,4.2,11,9.8,12.3v199.5h-5.7v47.4
		h56.3v-47.4h-5.7v-199.5C467.3,1457.4,471.5,1452.4,471.5,1446.4z"/>
	<path class="st0" d="M363.4,1446.4c0-7-5.7-12.7-12.7-12.7h-39.1c-7,0-12.7,5.7-12.7,12.7c0,6,4.2,11,9.8,12.3v199.5h-5.7v47.4
		h56.3v-47.4h-5.7v-199.5C359.3,1457.4,363.4,1452.4,363.4,1446.4z"/>
	<path class="st0" d="M255.3,1446.4c0-7-5.7-12.7-12.7-12.7h-39.1c-7,0-12.7,5.7-12.7,12.7c0,6,4.2,11,9.8,12.3v199.5H195v47.4h56.3
		v-47.4h-5.7v-199.5C251.2,1457.4,255.3,1452.4,255.3,1446.4z"/>
	<rect x="175" y="1690.7" class="st41" width="420.5" height="63.2"/>
	<rect x="149.4" y="1723.1" class="st41" width="471.8" height="63.2"/>
	<rect x="149.4" y="1346.2" class="st41" width="471.8" height="90.3"/>
	<path class="st41" d="M632.2,1314.7l-235.9-190.2c-6.4-5.2-15.6-5.2-22,0l-235.9,190.2c-5.8,4.7-8,12.5-5.5,19.5
		c2.5,7,9.1,11.7,16.5,11.7h471.8c7.4,0,14.1-4.7,16.5-11.7C640.2,1327.2,638,1319.4,632.2,1314.7z"/>
	<path class="st13" d="M385.3,1155.5l197.7,159.4H187.6L385.3,1155.5"/>
	<g>
		<path class="st7" d="M217.3,1401.5l-7,7h-27l-7-7v-48.7l7-7h27l7,7v14.5h-12.8v-9.8h-15.4v39.3h15.4v-9.8h12.8V1401.5z"/>
		<path class="st7" d="M244.1,1357.5v39.3h6v11.7h-24.8v-11.7h6v-39.3h-6v-11.7H250v11.7H244.1z"/>
		<path class="st7" d="M294.7,1368.4v-10.9h-7v39.3h7v11.7h-26.9v-11.7h7.1v-39.3h-7v10.9h-11.3v-22.6h49.3v22.6H294.7z"/>
		<path class="st7" d="M343.3,1384.1v12.8h6.8v11.7h-26.5v-11.7h6.8v-12.8l-13.6-26.6h-5.2v-11.7h23.3v11.4h-4.5l6.9,15l6.9-15h-4.5
			v-11.4h22.6v11.7H357L343.3,1384.1z"/>
		<path class="st7" d="M434.8,1357.5v39.3h6v11.7h-23v-11.7h4.3v-14.4h-13.6v14.4h4.3v11.7h-23.1v-11.7h6v-39.3h-6v-11.7h23.1v11.7
			h-4.3v13.2h13.6v-13.2h-4.3v-11.7h23v11.7H434.8z"/>
		<path class="st7" d="M498.3,1396.8v11.7h-23.1v-11h4.8l-1.8-9.2H466l-1.8,9.2h4.7v11H446v-11.7h5.6l9.6-39.8h-6.7v-11.2h26.2
			l-0.2,0.1l12.3,50.9H498.3z M476.2,1378.5l-4.2-21.4l-4.2,21.4H476.2z"/>
		<path class="st7" d="M545.4,1384.7v23.8h-41.8v-11.7h6v-39.3h-6v-11.7h25.8v11.7h-7v39.3h11.9v-12.1H545.4z"/>
		<path class="st7" d="M594.2,1384.7v23.8h-41.8v-11.7h6v-39.3h-6v-11.7h25.8v11.7h-7v39.3H583v-12.1H594.2z"/>
	</g>
	<path class="st19" d="M129.2,1200.3"/>
	<path class="st19" d="M641.4,1200.3"/>
	<polygon class="st42" points="385.3,1155.5 187.6,1314.9 220,1314.9 401.5,1168.6 	"/>
	<g>
		<g>
			<rect x="102" y="1599.1" class="st0" width="50.3" height="68.1"/>
			<path class="st13" d="M152.4,1599.1H102c0-12.4,11.3-22.5,25.2-22.5S152.4,1586.6,152.4,1599.1z"/>
		</g>
		<g>
			<rect x="618.2" y="1599.1" class="st0" width="50.3" height="68.1"/>
			<path class="st13" d="M668.5,1599.1h-50.3c0-12.4,11.3-22.5,25.2-22.5C657.2,1576.6,668.5,1586.6,668.5,1599.1z"/>
		</g>
		<g>
			<rect x="102" y="1482.9" class="st0" width="50.3" height="68.1"/>
			<path class="st13" d="M152.4,1482.9H102c0-12.4,11.3-22.5,25.2-22.5S152.4,1470.4,152.4,1482.9z"/>
		</g>
		<g>
			<rect x="618.2" y="1482.9" class="st0" width="50.3" height="68.1"/>
			<path class="st13" d="M668.5,1482.9h-50.3c0-12.4,11.3-22.5,25.2-22.5C657.2,1460.4,668.5,1470.4,668.5,1482.9z"/>
		</g>
	</g>
</g>
<g>
	<g>
		<rect x="1252" y="1208.2" class="st43" width="35" height="39.7"/>
		<rect x="954.8" y="1208.2" class="st43" width="35" height="39.7"/>
	</g>
	<g>
		<rect x="857.2" y="1257.5" class="st44" width="527.4" height="503.5"/>
		<rect x="857.2" y="1268.3" class="st43" width="527.4" height="20.9"/>
		<rect x="843.7" y="1244" class="st44" width="554.4" height="27"/>
		<rect x="843.7" y="1103.5" class="st44" width="554.4" height="113.5"/>
		<g>
			<rect x="1037.4" y="1620.1" class="st45" width="167.7" height="167.7"/>
			<polygon class="st46" points="1205.1,1631.7 1205.1,1620.1 1037.4,1620.1 1037.4,1787.7 1046.7,1787.7 1046.7,1631.7 			"/>
			<rect x="1114.3" y="1614.5" class="st44" width="13.9" height="175.5"/>
			<rect x="1037.4" y="1601.5" class="st43" width="167.7" height="21.3"/>
		</g>
		<g>
			<rect x="884.3" y="1627.1" class="st46" width="126" height="108.5"/>
			<rect x="895.1" y="1637.9" class="st45" width="115.1" height="97.7"/>
		</g>
		<g>
			<rect x="884.3" y="1457.5" class="st46" width="98.9" height="108.5"/>
			<rect x="895.1" y="1468.3" class="st45" width="88.1" height="97.7"/>
		</g>
		<g>
			<rect x="1259.2" y="1457.5" class="st46" width="98.9" height="108.5"/>
			<rect x="1270" y="1468.3" class="st45" width="88.1" height="97.7"/>
		</g>
		<g>
			<rect x="1134.3" y="1457.5" class="st46" width="98.9" height="108.5"/>
			<rect x="1145.1" y="1468.3" class="st45" width="88.1" height="97.7"/>
		</g>
		<g>
			<rect x="1009.3" y="1457.5" class="st46" width="98.9" height="108.5"/>
			<rect x="1020.1" y="1468.3" class="st45" width="88.1" height="97.7"/>
		</g>
		<g>
			<rect x="884.3" y="1317" class="st46" width="98.9" height="108.5"/>
			<rect x="895.1" y="1327.8" class="st45" width="88.1" height="97.7"/>
		</g>
		<g>
			<rect x="1259.2" y="1317" class="st46" width="98.9" height="108.5"/>
			<rect x="1270" y="1327.8" class="st45" width="88.1" height="97.7"/>
		</g>
		<g>
			<rect x="1134.3" y="1317" class="st46" width="98.9" height="108.5"/>
			<rect x="1145.1" y="1327.8" class="st45" width="88.1" height="97.7"/>
		</g>
		<g>
			<rect x="1009.3" y="1317" class="st46" width="98.9" height="108.5"/>
			<rect x="1020.1" y="1327.8" class="st45" width="88.1" height="97.7"/>
		</g>
		<g>
			<rect x="1232.2" y="1627.1" class="st46" width="126" height="108.5"/>
			<rect x="1243" y="1637.9" class="st45" width="115.1" height="97.7"/>
		</g>
	</g>
	<g>
		<path class="st0" d="M936.1,1190.1h-13.2l-3.7-13.3h-17.2l-3.7,13.3H886l19.2-62.4h11.9L936.1,1190.1z M904.4,1167.4h12.5
			l-6.2-22.5L904.4,1167.4z"/>
		<path class="st0" d="M940.4,1143.4c0-9.9,8.2-16.6,18.4-16.6c15.6,0,19,13.5,19,13.5l-10.2,4.1c0,0-2.1-7.1-8.5-7.1
			c-3.4,0-6.1,2.1-6.1,5.4c0,4.3,3.3,7,9.5,10.7c7.9,4.8,14.5,10.8,14.5,19.8c0,11.2-8.5,17.7-19.2,17.7
			c-16.1,0-20.3-15.5-20.3-15.5l10.2-4.1c0,0,3.2,9.1,10,9.1c4.1,0,6.8-2.6,6.8-6.4c0-4.7-3.7-7.5-10.5-11.6
			C946.2,1157.8,940.4,1151.6,940.4,1143.4z"/>
		<path class="st0" d="M983.3,1143.4c0-9.9,8.2-16.6,18.4-16.6c15.6,0,19,13.5,19,13.5l-10.2,4.1c0,0-2.1-7.1-8.5-7.1
			c-3.4,0-6.1,2.1-6.1,5.4c0,4.3,3.3,7,9.5,10.7c7.9,4.8,14.5,10.8,14.5,19.8c0,11.2-8.5,17.7-19.2,17.7
			c-16.1,0-20.3-15.5-20.3-15.5l10.2-4.1c0,0,3.2,9.1,10,9.1c4.1,0,6.8-2.6,6.8-6.4c0-4.7-3.7-7.5-10.5-11.6
			C989.1,1157.8,983.3,1151.6,983.3,1143.4z"/>
		<path class="st0" d="M1027.4,1147.9c0-12.9,8.9-21,21.1-21c12.3,0,20.8,7.8,20.8,20.8v22.3c0,12.9-8.8,21.1-21,21.1
			c-12.3,0-20.9-7.9-20.9-20.9V1147.9z M1040,1170.3c0,6.1,3.2,9.5,8.3,9.5c5.2,0,8.4-3.5,8.4-9.5v-22.7c0-6-3.2-9.5-8.4-9.5
			c-5.1,0-8.3,3.6-8.3,9.5V1170.3z"/>
		<path class="st0" d="M1106.6,1167.1h12.2v3.2c0,12.7-8.5,20.7-20.2,20.7c-12,0-20.4-7.8-20.4-20.4v-23.2
			c0-12.7,8.7-20.6,20.7-20.6c11.8,0,20,7.7,20,20.3v2.6h-12.2v-2.7c0-5.7-3-9.1-7.9-9.1c-4.8,0-7.8,3.4-7.8,9.1v23.6
			c0,5.8,3,9.1,7.8,9.1c4.9,0,7.9-3.3,7.9-9.1V1167.1z"/>
		<path class="st0" d="M1129,1127.8h13v62.4h-13V1127.8z"/>
		<path class="st0" d="M1198,1190.1h-13.2l-3.7-13.3h-17.2l-3.7,13.3h-12.5l19.2-62.4h11.9L1198,1190.1z M1166.3,1167.4h12.5
			l-6.2-22.5L1166.3,1167.4z"/>
		<path class="st0" d="M1218.8,1139.2v51h-12.7v-51h-13.1v-11.4h38.8v11.4H1218.8z"/>
		<path class="st0" d="M1239,1127.8h13v62.4h-13V1127.8z"/>
		<path class="st0" d="M1262.2,1147.9c0-12.9,8.9-21,21.1-21c12.3,0,20.8,7.8,20.8,20.8v22.3c0,12.9-8.8,21.1-21,21.1
			c-12.3,0-20.9-7.9-20.9-20.9V1147.9z M1274.9,1170.3c0,6.1,3.2,9.5,8.3,9.5c5.2,0,8.4-3.5,8.4-9.5v-22.7c0-6-3.2-9.5-8.4-9.5
			c-5.1,0-8.3,3.6-8.3,9.5V1170.3z"/>
		<path class="st0" d="M1325.5,1150.5v39.7h-11.6v-62.4h12.3l18.1,38.1v-38.1h11.5v62.4h-11.5L1325.5,1150.5z"/>
	</g>
</g>
<rect y="1755.4" class="st0" width="1430" height="241.4"/>
<g>
	<g>
		<rect x="2221.4" y="1933.3" class="st47" width="597.4" height="60.8"/>
		<rect x="2216.7" y="2716.6" class="st47" width="606.9" height="92"/>
		<rect x="2216.7" y="2655.8" class="st7" width="606.9" height="92"/>
		<polygon class="st7" points="2815.3,2119.3 2225.7,2119.3 2225.7,2158.9 2815.3,2158.9 2815.3,2154.3 		"/>
		<polygon class="st47" points="2815.3,2158.9 2225.7,2158.9 2225.7,2198.5 2815.3,2198.5 2815.3,2163.5 		"/>
		<g>
			<line class="st48" x1="2815.3" y1="2316.6" x2="2815.3" y2="2316.6"/>
			<polygon class="st7" points="2815.3,2281.6 2225.7,2281.6 2225.7,2321.2 2815.3,2321.2 2815.3,2316.6 			"/>
		</g>
		<g>
			<line class="st49" x1="2815.3" y1="2325.7" x2="2815.3" y2="2325.7"/>
			<polygon class="st47" points="2815.3,2321.2 2225.7,2321.2 2225.7,2360.7 2815.3,2360.7 2815.3,2325.7 			"/>
		</g>
		<g>
			<line class="st48" x1="2815.3" y1="2478.9" x2="2815.3" y2="2478.9"/>
			<polygon class="st7" points="2815.3,2443.9 2225.7,2443.9 2225.7,2483.4 2815.3,2483.4 2815.3,2478.9 			"/>
		</g>
		<g>
			<line class="st49" x1="2815.3" y1="2488" x2="2815.3" y2="2488"/>
			<polygon class="st47" points="2815.3,2483.4 2225.7,2483.4 2225.7,2523 2815.3,2523 2815.3,2488 			"/>
		</g>
		<g>
			<polygon class="st0" points="2815.3,2149.8 2225.7,2149.8 2192.9,2116.9 2192.9,1993.7 2214.3,1972.3 2826.7,1972.3 
				2848.1,1993.7 2848.1,2116.9 			"/>
			<polygon class="st0" points="2815.3,2312 2225.7,2312 2192.9,2279.2 2192.9,2200.9 2225.7,2168 2815.3,2168 2848.1,2200.9 
				2848.1,2279.2 			"/>
		</g>
		<line class="st49" x1="2815.3" y1="2163.5" x2="2815.3" y2="2163.5"/>
		<polygon class="st0" points="2815.3,2474.3 2225.7,2474.3 2192.9,2441.5 2192.9,2393.6 2225.7,2330.3 2815.3,2330.3 
			2848.1,2393.6 2848.1,2441.5 		"/>
		<polygon class="st0" points="2192.9,2733.1 2192.9,2525.4 2225.7,2492.6 2815.3,2492.6 2848.1,2525.4 2848.1,2733.1 		"/>
		<rect x="2192.9" y="1915.3" class="st0" width="654.5" height="30.4"/>
		<rect x="2192.9" y="2784.3" class="st0" width="654.5" height="54.8"/>
		<g>
			<path class="st30" d="M2703.7,2206h-366.5c-25.9,0-47.1-21.2-47.1-47.1v0c0-25.9,21.2-47.1,47.1-47.1h366.5
				c25.9,0,47.1,21.2,47.1,47.1v0C2750.9,2184.8,2729.7,2206,2703.7,2206z"/>
			<path class="st50" d="M2707.1,2111.8h-373.2c-14.6,0-27.6,7.3-35.6,18.4h444.3C2734.7,2119,2721.7,2111.8,2707.1,2111.8z"/>
			<path class="st7" d="M2308.4,2162.2v-6.7c0-24.1,19.7-43.8,43.8-43.8h-18.3c-24.1,0-43.8,19.7-43.8,43.8v6.7
				c0,24.1,19.7,43.8,43.8,43.8h18.3C2328.1,2206,2308.4,2186.3,2308.4,2162.2z"/>
			<path class="st47" d="M2732.6,2162.2v-6.7c0-24.1-19.7-43.8-43.8-43.8h18.3c24.1,0,43.8,19.7,43.8,43.8v6.7
				c0,24.1-19.7,43.8-43.8,43.8h-18.3C2712.9,2206,2732.6,2186.3,2732.6,2162.2z"/>
		</g>
		<g>
			<path class="st30" d="M2703.7,2368.3h-366.5c-25.9,0-47.1-21.2-47.1-47.1l0,0c0-25.9,21.2-47.1,47.1-47.1h366.5
				c25.9,0,47.1,21.2,47.1,47.1l0,0C2750.9,2347.1,2729.7,2368.3,2703.7,2368.3z"/>
			<path class="st50" d="M2707.1,2274h-373.2c-14.6,0-27.6,7.3-35.6,18.4h444.3C2734.7,2281.3,2721.7,2274,2707.1,2274z"/>
			<path class="st51" d="M2308.4,2324.5v-6.7c0-24.1,19.7-43.8,43.8-43.8h-18.3c-24.1,0-43.8,19.7-43.8,43.8v6.7
				c0,24.1,19.7,43.8,43.8,43.8h18.3C2328.1,2368.3,2308.4,2348.6,2308.4,2324.5z"/>
			<path class="st47" d="M2732.6,2324.5v-6.7c0-24.1-19.7-43.8-43.8-43.8h18.3c24.1,0,43.8,19.7,43.8,43.8v6.7
				c0,24.1-19.7,43.8-43.8,43.8h-18.3C2712.9,2368.3,2732.6,2348.6,2732.6,2324.5z"/>
		</g>
		<g>
			<path class="st30" d="M2703.7,2530.6h-366.5c-25.9,0-47.1-21.2-47.1-47.1v0c0-25.9,21.2-47.1,47.1-47.1h366.5
				c25.9,0,47.1,21.2,47.1,47.1v0C2750.9,2509.4,2729.7,2530.6,2703.7,2530.6z"/>
			<path class="st50" d="M2707.1,2436.3h-373.2c-14.6,0-27.6,7.3-35.6,18.4h444.3C2734.7,2443.6,2721.7,2436.3,2707.1,2436.3z"/>
			<path class="st51" d="M2308.4,2486.8v-6.7c0-24.1,19.7-43.8,43.8-43.8h-18.3c-24.1,0-43.8,19.7-43.8,43.8v6.7
				c0,24.1,19.7,43.8,43.8,43.8h18.3C2328.1,2530.6,2308.4,2510.9,2308.4,2486.8z"/>
			<path class="st47" d="M2732.6,2486.8v-6.7c0-24.1-19.7-43.8-43.8-43.8h18.3c24.1,0,43.8,19.7,43.8,43.8v6.7
				c0,24.1-19.7,43.8-43.8,43.8h-18.3C2712.9,2530.6,2732.6,2510.9,2732.6,2486.8z"/>
		</g>
		<ellipse class="st20" cx="2242.8" cy="2688.4" rx="18.7" ry="18.7"/>
		<ellipse class="st52" cx="2303.7" cy="2688.4" rx="18.7" ry="18.7"/>
	</g>
	<rect x="2577.6" y="2037.4" class="st45" width="838.2" height="638.6"/>
	<rect x="2577.6" y="2037.4" class="st30" width="838.2" height="638.6"/>
	<rect x="2577.6" y="2636.5" class="st46" width="838.2" height="39.6"/>
	<rect x="2577.6" y="2037.4" class="st46" width="838.2" height="63.7"/>
	<circle class="st12" cx="2617.6" cy="2068.1" r="18.8"/>
	<circle class="st12" cx="2674.6" cy="2068.1" r="18.8"/>
	<circle class="st12" cx="2731.7" cy="2068.1" r="18.8"/>
	<g>
		<polygon class="st7" points="3294.3,2473.6 3223.7,2514.7 3178.1,2582.4 3123.5,2407.6 		"/>
		
			<rect x="3224.2" y="2476.3" transform="matrix(0.7301 -0.6833 0.6833 0.7301 -858.92 2903.7109)" class="st7" width="45.1" height="125.9"/>
	</g>
	<g>
		<path class="st7" d="M2656.8,2252.7h-20.6v-96.9h20.6V2252.7z"/>
		<path class="st7" d="M2676.6,2252.7v-96.9h39.8c15,0,22.9,2.5,29.8,9.9c5.1,5.5,7.4,12.6,8.3,21.6c0.6,4.8,0.6,9.9,0.6,17.1
			c0,7.1,0,12.2-0.6,17c-0.9,8.9-3.2,16.3-8.1,21.6c-7,7.3-15,9.6-29.9,9.6H2676.6z M2697,2235.3h18.2c8.6,0,12.6-1,15.1-4.1
			c3.2-3.9,3.9-9.9,3.9-26.9c0-17.1-0.7-23.1-3.9-27c-2.5-2.9-6.5-3.9-15.1-3.9H2697V2235.3z"/>
		<path class="st7" d="M2838.9,2173.3h-45.2v21.6h41.5v17.4h-41.5v22.9h46.3v17.4h-66.8v-96.9h65.6V2173.3z"/>
		<path class="st7" d="M2911.3,2252.7l-29.6-53l-7-14.5v67.5h-20.6v-96.9h23.8l29.8,53l7,14.5v-67.5h20.6v96.9H2911.3z"/>
		<path class="st7" d="M3028.4,2173.4h-29v79.3h-20.6v-79.3h-29v-17.6h78.7V2173.4z"/>
		<path class="st7" d="M3063.4,2252.7h-20.6v-96.9h20.6V2252.7z"/>
		<path class="st7" d="M3147.3,2173.3h-43.6v23.5h40.7v17.4h-40.7v38.5h-20.6v-96.9h64.2V2173.3z"/>
		<path class="st7" d="M3180.2,2252.7h-20.6v-96.9h20.6V2252.7z"/>
		<path class="st7" d="M3265.6,2173.3h-45.2v21.6h41.5v17.4h-41.5v22.9h46.3v17.4H3200v-96.9h65.6V2173.3z"/>
		<path class="st7" d="M3280.9,2155.8h35.7c16.4,0,24.7,2.5,30.4,8.7c4.8,5.4,7.1,12.9,7.1,24c0,10.3-1.9,17.3-6.1,22.5
			c-2.3,2.8-5.2,4.9-8.7,6.5l18,35.1h-22.7l-15.8-31.7h-17.3v31.7h-20.6V2155.8z M3301.2,2203.5h12.3c7.4,0,14.7,0,17.1-1.7
			c2.6-1.7,3-5.4,3-13.2c0-7.8-0.4-11.5-3-13.4c-2.3-1.7-9.9-1.7-17.1-1.7h-12.3V2203.5z"/>
		<path class="st7" d="M2674.2,2301h35.7c16.4,0,24.7,2.5,30.4,8.7c4.8,5.4,7.1,12.9,7.1,24c0,10.3-1.9,17.3-6.1,22.5
			c-2.3,2.8-5.2,4.9-8.7,6.5l18,35.1h-22.7l-15.8-31.7h-17.3v31.7h-20.6V2301z M2694.5,2348.7h12.3c7.4,0,14.7,0,17.1-1.7
			c2.6-1.7,3-5.4,3-13.2c0-7.8-0.4-11.5-3-13.4c-2.3-1.7-9.9-1.7-17.1-1.7h-12.3V2348.7z"/>
		<path class="st7" d="M2831.9,2318.5h-45.2v21.6h41.5v17.4h-41.5v22.9h46.3v17.4h-66.8V2301h65.6V2318.5z"/>
		<path class="st7" d="M2902.7,2332.2c-0.3-5.4-0.7-10.2-2.6-12.5c-2-2.8-6-2.9-14.4-2.9c-11.3,0-14.2,0.7-16.1,3
			c-2.2,2.8-3,9.4-3,29.5c0,20.2,1,27.3,3,29.8c1.9,2.2,4.8,2.9,16.1,2.9c10.9,0,14.2-0.6,16.1-2.8c2.5-2.9,2.8-7.6,3-17.4h-18.6
			v-17.3h39.1v11c0,20.3-2.2,28.9-8.9,35.9c-5.7,6.1-13.1,8.1-30.5,8.1c-16.1,0-24.5-1.3-31.7-8.1c-7.1-6.8-8.7-18.3-8.7-42
			c0-23.8,1.6-35.3,8.6-42.1c7.3-6.8,15.5-8.1,31.8-8.1c13.8,0,19.2,1.3,25.1,4.8c7.3,4.5,10.9,12.2,12.1,28.2H2902.7z"/>
		<path class="st7" d="M2963.4,2397.9h-20.6V2301h20.6V2397.9z"/>
		<path class="st7" d="M3030.3,2330.9c-0.4-7-0.6-10.2-2.5-12.1c-2-1.9-4.9-2.6-13.2-2.6c-12.1,0-13.7,1.5-13.7,9.9
			c0,6,1.7,8.3,7.8,10.2l20.5,6.8c16.3,5.2,22.4,12.9,22.4,27.6c0,11.3-3.8,19.2-11.2,23.8c-5.5,3.6-12.5,5.1-24.5,5.1
			c-17.4,0-26.4-3.1-32.1-10.5c-3.6-4.9-5.1-8.9-5.8-22.9h20.8c0.3,8.1,0.6,10.3,2,12.3c1.7,2.6,6.2,3.6,15.1,3.6
			c6.5,0,10.6-0.4,12.8-2.3c2-1.6,2.2-3.9,2.2-8.9c0-6.4-1.7-8.7-8.7-10.9l-20.5-6.8c-14.2-4.6-20.6-12.9-20.6-26.7
			c0-18.7,10.3-27.3,33.1-27.3c13.5,0,20.9,1.9,26.4,6c7.7,5.5,9.1,11.8,10,25.7H3030.3z"/>
		<path class="st7" d="M3141.3,2318.6h-29v79.3h-20.6v-79.3h-29V2301h78.7V2318.6z"/>
		<path class="st7" d="M3155.6,2301h35.7c16.4,0,24.7,2.5,30.4,8.7c4.8,5.4,7.1,12.9,7.1,24c0,10.3-1.9,17.3-6.1,22.5
			c-2.3,2.8-5.2,4.9-8.7,6.5l18,35.1h-22.7l-15.8-31.7h-17.3v31.7h-20.6V2301z M3176,2348.7h12.3c7.4,0,14.7,0,17.1-1.7
			c2.6-1.7,3-5.4,3-13.2c0-7.8-0.4-11.5-3-13.4c-2.3-1.7-9.9-1.7-17.1-1.7H3176V2348.7z"/>
		<path class="st7" d="M3291,2364.8v33.1h-20.6v-33.1l-34.1-63.8h22.2l21.9,43.6h0.6l21.9-43.6h22.2L3291,2364.8z"/>
	</g>
</g>
<polygon class="st0" points="2732.3,697.7 2732.3,1667.3 2725.1,1667.3 2634,1667.3 2750.3,1872.5 2866.5,1667.3 2775.5,1667.3 
	2768.3,1667.3 2768.3,697.7 "/>
<g>
	<defs>
		<path id="SVGID_1_" d="M3188.1,434.3c0,239.8-194.4,434.3-434.3,434.3c-239.8,0-434.3-194.4-434.3-434.3S2514,0,2753.8,0
			C2993.6,0,3188.1,194.4,3188.1,434.3"/>
	</defs>
	<clipPath id="SVGID_2_">
		<use xlink:href="#SVGID_1_"  style="overflow:visible;"/>
	</clipPath>
	<g class="st53">
		<path class="st30" d="M3265.6,950.8h-993.1c-23.3,0-42.3-19.1-42.3-42.3V13.9c0-23.3,19.1-42.3,42.3-42.3h993.1
			c23.3,0,42.3,19.1,42.3,42.3v894.6C3308,931.8,3288.9,950.8,3265.6,950.8z"/>
		<ellipse class="st54" cx="2753.8" cy="81.6" rx="85.5" ry="55.7"/>
		<path class="st55" d="M2933.7,399.2c17.3-53.8,25.3-203.7-17.3-271.1c-42.5-67.4-101.7-80.4-162.6-80.4s-120.1,13-162.6,80.4
			c-42.5,67.4-34.5,217.3-17.3,271.1"/>
		<path class="st56" d="M2619.9,399.2c2.8,32.3,1.3,67.9-20.5,69.8s-55.6-30.5-58.3-62.9c-3.6-43.5,12.5-60.1,34.3-62
			C2597.1,342.2,2617,366.8,2619.9,399.2z"/>
		<path class="st55" d="M2591.9,392.1c-15.4-3-25.5-23.8-30-56.9c-2.7-31.6,2.7-104.7,59.1-120.8S2591.9,392.1,2591.9,392.1z"/>
		<path class="st54" d="M2848.9,469.8c78.1,38,40.1,181.4,97,221.5c-21.1,16.9-126.6-14.8-154-73.8S2848.9,469.8,2848.9,469.8z"/>
		<path class="st56" d="M2888.4,399.2c-2.8,32.3-1.3,67.9,20.5,69.8c21.8,1.9,55.6-30.5,58.3-62.9c3.6-43.5-12.5-60.1-34.3-62
			C2911.2,342.2,2891.2,366.8,2888.4,399.2z"/>
		<path class="st47" d="M2865.2,671.4c0,21.1-49.9,38.6-111.4,38.6c-61.5,0-111-15.4-111.4-38.6c-0.1-3.9,49.9-7.1,111.4-7.1
			C2815.4,664.3,2865.2,667.5,2865.2,671.4z"/>
		<rect x="2665.4" y="550" class="st56" width="176.9" height="186.5"/>
		<path class="st57" d="M2665.4,550v42.8c29.6,42.3,86.4,76.3,176.9,78.5V550H2665.4z"/>
		<path class="st0" d="M2595.9,735.2"/>
		<path class="st0" d="M3073.4,781.3c-24.5-19.3-146.8-65-196.4-67.7h-246.4c-49.7,2.6-172,48.4-196.4,67.7
			c-24.5,19.3-35,38.6-35,74.2l0,247.4c46.5,34.9,287.1,55.2,354.7,55.9c67.6-0.6,308.1-21,354.7-55.9l0-247.4
			C3108.5,819.8,3097.9,800.6,3073.4,781.3z"/>
		<polygon class="st7" points="2775,871.4 2732.7,871.4 2732.7,698.4 2753.8,696.3 2775,698.4 		"/>
		<g>
			<circle class="st0" cx="2753.9" cy="742.4" r="12.7"/>
		</g>
		<g>
			<circle class="st0" cx="2753.9" cy="816" r="12.7"/>
		</g>
		<path class="st58" d="M2753.8,638L2753.8,638c49.3-0.5,144.7-68,164.5-219.3c4-30.6,9.6-80.2,9.4-108.3
			c-0.5-86.7-77.9-159.5-173.9-159.5h-0.1c-96.1,0-173.4,72.8-173.9,159.5c-0.2,28.1,5.4,77.7,9.4,108.3
			C2609.1,570,2705.7,639.5,2753.8,638L2753.8,638z"/>
		<g>
			<line class="st59" x1="2869" y1="314.4" x2="2815.5" y2="305.5"/>
			<line class="st59" x1="2636.8" y1="314.4" x2="2690.4" y2="305.5"/>
		</g>
		<line class="st60" x1="2740.1" y1="540.1" x2="2767.6" y2="540.1"/>
		<line class="st61" x1="2718.2" y1="532.1" x2="2789.5" y2="532.1"/>
		<g>
			<path class="st62" d="M2843.2,367.3c0,11.5-9.4,20.9-21,21c-11.6,0.1-21-9.2-21-20.7s9.4-20.9,21-21
				C2833.8,346.5,2843.2,355.8,2843.2,367.3z"/>
			<path class="st62" d="M2706.5,367.3c0,11.5-9.4,20.9-21,21c-11.6,0.1-21-9.2-21-20.7s9.4-20.9,21-21
				C2697.1,346.5,2706.5,355.8,2706.5,367.3z"/>
		</g>
		<path class="st63" d="M2753.9,485c21.1,0,34.5-19.7,31.9-27.4c-2.6-7.8-12.2,8.7-31.9,9.3c-19.8-0.6-29.3-17.1-31.9-9.3
			C2719.3,465.3,2732.7,485,2753.9,485L2753.9,485z"/>
		<path class="st55" d="M2753.8,140.5c-74.9,0-153.9,36.8-152.2,147.1c41.3-11.9,94.3-19.1,152.2-19.1s110.9,7.2,152.2,19.1
			C2907.8,177.2,2828.8,140.5,2753.8,140.5z"/>
		<g>
			<path class="st55" d="M2579.9,322.4c-0.8-38,17.8-72.5,42.2-81.5l3.3-58.7l-52.2,50.6l-3.3,84L2579.9,322.4z"/>
			<path class="st55" d="M2927.7,322.4c0.8-38-17.8-72.5-42.2-81.5l-3.3-58.7l52.2,50.6l3.3,84L2927.7,322.4z"/>
		</g>
		<g>
			<ellipse class="st12" cx="2937.7" cy="452.8" rx="17.5" ry="18"/>
			<ellipse class="st12" cx="2569.9" cy="452.8" rx="17.5" ry="18"/>
		</g>
		<path class="st7" d="M2642.4,671.4c-15.3,15.6-26.3,45.2-26.3,45.2c5.1,15.2,69.3,38.9,69.3,38.9l68.3-59.2
			C2717.3,696.2,2643.1,682.2,2642.4,671.4z"/>
		<path class="st7" d="M2865.2,671.4c15.3,15.6,26.3,45.2,26.3,45.2c-5.1,15.2-69.3,38.9-69.3,38.9l-68.3-59.2
			C2790.3,696.2,2864.5,682.2,2865.2,671.4z"/>
	</g>
</g>
<rect x="2169.8" y="749.8" class="st0" width="1168.3" height="193.6"/>
<g>
	<path class="st12" d="M2523.4,906.6h-25.6V857h-48.1v49.7h-25.6V786.6h25.6v48.2h48.1v-48.2h25.6V906.6z"/>
	<path class="st12" d="M2636.6,794.3c8.8,8.1,11.3,20.9,11.3,52.4c0,31.3-2.5,44.3-11.3,52.2c-8.3,7.7-17.1,9.9-39.6,9.9
		s-31.3-2.2-39.6-9.9c-8.8-7.9-11.3-20.9-11.3-52.2c0-31.5,2.5-44.3,11.3-52.4c8.1-7.7,16.9-9.9,39.6-9.9S2628.5,786.6,2636.6,794.3
		z M2576.2,810c-2.9,3.2-4.1,13-4.1,36.7c0,23.6,1.3,33.3,4.1,36.5c2.5,2.9,5.4,3.8,20.9,3.8c15.5,0,18.4-0.9,20.9-3.8
		c2.9-3.2,4.1-13,4.1-36.5c0-23.8-1.3-33.5-4.1-36.7c-2.5-2.9-5.4-3.8-20.9-3.8C2581.6,806.2,2578.7,807.1,2576.2,810z"/>
	<path class="st12" d="M2696.2,786.6v98.5h56v21.6h-81.5V786.6H2696.2z"/>
	<path class="st12" d="M2768.9,906.6V786.6h49.3c18.5,0,28.4,3.1,36.9,12.2c6.3,6.8,9.2,15.7,10.3,26.8c0.7,5.9,0.7,12.2,0.7,21.2
		c0,8.8,0,15.1-0.7,21.1c-1.1,11-4,20.2-10.1,26.8c-8.6,9-18.5,11.9-37.1,11.9H2768.9z M2794.3,885.1h22.5c10.6,0,15.7-1.3,18.7-5
		c4-4.9,4.9-12.2,4.9-33.3c0-21.2-0.9-28.6-4.9-33.5c-3.1-3.6-8.1-4.9-18.7-4.9h-22.5V885.1z"/>
	<path class="st12" d="M2970.2,808.2h-56V835h51.5v21.6h-51.5v28.4h57.4v21.6h-82.8V786.6h81.4V808.2z"/>
	<path class="st12" d="M2989.1,786.6h44.3c20.3,0,30.6,3.1,37.6,10.8c5.9,6.7,8.8,16,8.8,29.7c0,12.8-2.3,21.4-7.6,27.9
		c-2.9,3.4-6.5,6.1-10.8,8.1l22.3,43.6h-28.1l-19.6-39.2h-21.4v39.2h-25.6V786.6z M3014.3,845.6h15.3c9.2,0,18.2,0,21.2-2.2
		c3.2-2.2,3.8-6.7,3.8-16.4c0-9.7-0.5-14.2-3.8-16.6c-2.9-2.2-12.2-2.2-21.2-2.2h-15.3V845.6z"/>
</g>
<g>
	<path class="st12" d="M450.7,1936.1h-25.6v-120.1h25.6V1936.1z"/>
	<path class="st12" d="M533.6,1853.1c-0.5-8.6-0.7-12.6-3.1-14.9c-2.5-2.3-6.1-3.2-16.4-3.2c-14.9,0-16.9,1.8-16.9,12.2
		c0,7.4,2.2,10.3,9.7,12.6l25.4,8.5c20.2,6.5,27.7,16,27.7,34.2c0,14-4.7,23.8-13.9,29.5c-6.8,4.5-15.5,6.3-30.4,6.3
		c-21.6,0-32.8-3.8-39.8-13c-4.5-6.1-6.3-11-7.2-28.4h25.7c0.4,10.1,0.7,12.8,2.5,15.3c2.2,3.2,7.7,4.5,18.7,4.5
		c8.1,0,13.1-0.5,15.8-2.9c2.5-2,2.7-4.9,2.7-11c0-7.9-2.2-10.8-10.8-13.5l-25.4-8.5c-17.6-5.8-25.6-16-25.6-33.1
		c0-23.2,12.8-33.8,41-33.8c16.7,0,25.9,2.3,32.8,7.4c9.5,6.8,11.3,14.6,12.4,31.9H533.6z"/>
	<path class="st12" d="M641.6,1853.1c-0.5-8.6-0.7-12.6-3.1-14.9c-2.5-2.3-6.1-3.2-16.4-3.2c-14.9,0-16.9,1.8-16.9,12.2
		c0,7.4,2.2,10.3,9.7,12.6l25.4,8.5c20.2,6.5,27.7,16,27.7,34.2c0,14-4.7,23.8-13.9,29.5c-6.8,4.5-15.5,6.3-30.4,6.3
		c-21.6,0-32.8-3.8-39.8-13c-4.5-6.1-6.3-11-7.2-28.4h25.7c0.4,10.1,0.7,12.8,2.5,15.3c2.2,3.2,7.7,4.5,18.7,4.5
		c8.1,0,13.1-0.5,15.8-2.9c2.5-2,2.7-4.9,2.7-11c0-7.9-2.2-10.8-10.8-13.5l-25.4-8.5c-17.6-5.8-25.6-16-25.6-33.1
		c0-23.2,12.8-33.8,41-33.8c16.7,0,25.9,2.3,32.8,7.4c9.5,6.8,11.3,14.6,12.4,31.9H641.6z"/>
	<path class="st12" d="M712.6,1816.1v79.9c0,9.4,0.4,14.2,2.7,16.7c2.7,3.1,7.9,3.8,21.2,3.8c13,0,18.2-0.7,21.1-3.8
		c2.3-2.5,2.7-7.2,2.7-16.7v-79.9h25.6v79.9c0,16.7-2.5,26.5-9.7,32.9c-7.6,7-16.2,9.4-39.6,9.4s-32.2-2.3-39.8-9.4
		c-7-6.5-9.7-16.2-9.7-32.9v-79.9H712.6z"/>
	<path class="st12" d="M891.3,1837.7h-56v26.8h51.5v21.6h-51.5v28.4h57.4v21.6h-82.8v-120.1h81.4V1837.7z"/>
	<path class="st12" d="M910.2,1816.1h44.3c20.3,0,30.6,3.1,37.6,10.8c5.9,6.7,8.8,16,8.8,29.7c0,12.8-2.3,21.4-7.6,27.9
		c-2.9,3.4-6.5,6.1-10.8,8.1l22.3,43.6h-28.1l-19.6-39.2h-21.4v39.2h-25.6V1816.1z M935.4,1875.1h15.3c9.2,0,18.2,0,21.2-2.2
		c3.2-2.2,3.8-6.7,3.8-16.4c0-9.7-0.5-14.2-3.8-16.6c-2.9-2.2-12.2-2.2-21.2-2.2h-15.3V1875.1z"/>
</g>
<g>
	<path class="st0" d="M3040,1214.3h-579.5c-61.9,0-112.6-50.7-112.6-112.6v0c0-61.9,50.7-112.6,112.6-112.6H3040
		c61.9,0,112.6,50.7,112.6,112.6v0C3152.6,1163.7,3101.9,1214.3,3040,1214.3z"/>
	<polygon class="st35" points="2510.1,1017.7 2525.7,1033.2 2546.5,1026 2553.9,1046.8 2575.8,1049.3 2573.4,1071.2 2592,1083 
		2580.3,1101.7 2592,1120.4 2573.4,1132.2 2575.8,1154.1 2553.9,1156.6 2546.5,1177.4 2525.7,1170.2 2510.1,1185.8 2494.4,1170.2 
		2473.6,1177.4 2466.3,1156.6 2444.4,1154.1 2446.8,1132.2 2428.1,1120.4 2439.8,1101.7 2428.1,1083 2446.8,1071.2 2444.4,1049.3 
		2466.3,1046.8 2473.6,1026 2494.4,1033.2 	"/>
	<polygon class="st64" points="2750.3,1017.7 2765.9,1033.2 2786.7,1026 2794.1,1046.8 2816,1049.3 2813.5,1071.2 2832.2,1083 
		2820.5,1101.7 2832.2,1120.4 2813.5,1132.2 2816,1154.1 2794.1,1156.6 2786.7,1177.4 2765.9,1170.2 2750.3,1185.8 2734.6,1170.2 
		2713.8,1177.4 2706.4,1156.6 2684.5,1154.1 2687,1132.2 2668.3,1120.4 2680,1101.7 2668.3,1083 2687,1071.2 2684.5,1049.3 
		2706.4,1046.8 2713.8,1026 2734.6,1033.2 	"/>
	<polygon class="st65" points="2990.4,1017.7 3006.1,1033.2 3026.9,1026 3034.2,1046.8 3056.2,1049.3 3053.7,1071.2 3072.4,1083 
		3060.7,1101.7 3072.4,1120.4 3053.7,1132.2 3056.2,1154.1 3034.2,1156.6 3026.9,1177.4 3006.1,1170.2 2990.4,1185.8 2974.8,1170.2 
		2954,1177.4 2946.6,1156.6 2924.7,1154.1 2927.1,1132.2 2908.5,1120.4 2920.2,1101.7 2908.5,1083 2927.1,1071.2 2924.7,1049.3 
		2946.6,1046.8 2954,1026 2974.8,1033.2 	"/>
</g>
</svg>
